<?xml version="1.0" encoding="UTF-8" standalone="no"?>
<!-- Created with Inkscape (http://www.inkscape.org/) -->

<svg
   version="1.1"
   id="svg1"
   width="640"
   height="400"
   viewBox="0 0 640 400"
   sodipodi:docname="container.svg"
   inkscape:version="1.3.1 (9b9bdc1480, 2023-11-25, custom)"
   xml:space="preserve"
   xmlns:inkscape="http://www.inkscape.org/namespaces/inkscape"
   xmlns:sodipodi="http://sodipodi.sourceforge.net/DTD/sodipodi-0.dtd"
   xmlns="http://www.w3.org/2000/svg"
   xmlns:svg="http://www.w3.org/2000/svg"><defs
     id="defs1"><defs
       id="defs2" /></defs><sodipodi:namedview
     id="namedview1"
     pagecolor="#ffffff"
     bordercolor="#999999"
     borderopacity="1"
     inkscape:showpageshadow="0"
     inkscape:pageopacity="0"
     inkscape:pagecheckerboard="0"
     inkscape:deskcolor="#d1d1d1"
     showgrid="false"
     inkscape:zoom="0.88224674"
     inkscape:cx="456.78831"
     inkscape:cy="376.31196"
     inkscape:window-width="1864"
     inkscape:window-height="1016"
     inkscape:window-x="56"
     inkscape:window-y="1107"
     inkscape:window-maximized="1"
     inkscape:current-layer="g1" /><g
     inkscape:groupmode="layer"
     inkscape:label="Image"
     id="g1"><rect
       style="fill:#02886f;fill-opacity:1;stroke-width:1.51181"
       id="rect1"
       width="640"
       height="400"
       x="0"
       y="0" /><text
       xml:space="preserve"
       style="font-style:normal;font-weight:normal;font-size:43.3601px;line-height:1.25;font-family:sans-serif;fill:#000000;fill-opacity:1;stroke:none;stroke-width:1.084"
       x="352.51151"
       y="355.53671"
       id="text2"><tspan
         sodipodi:role="line"
         id="tspan2"
         style="stroke-width:1.084"
         x="352.51151"
         y="355.53671" /></text><g
       id="g3"
       transform="matrix(0.79777961,0,0,0.79777961,127.07762,81.430393)"><g
         id="g2"><text
           xml:space="preserve"
           style="font-style:normal;font-weight:normal;font-size:70.9094px;line-height:1.25;font-family:sans-serif;fill:#9bece1;fill-opacity:1;stroke:none;stroke-width:1.77275"
           x="323.3851"
           y="356.51309"
           id="text3149-3-0"><tspan
             sodipodi:role="line"
             id="tspan3147-0-4"
             style="font-style:normal;font-variant:normal;font-weight:normal;font-stretch:normal;font-family:Manjari;-inkscape-font-specification:Manjari;fill:#9bece1;fill-opacity:1;stroke-width:1.77275"
             x="323.3851"
             y="356.51309">GE </tspan></text><text
           xml:space="preserve"
           style="font-style:normal;font-weight:normal;font-size:70.9094px;line-height:1.25;font-family:sans-serif;fill:#9bece1;fill-opacity:1;stroke:none;stroke-width:1.77275"
           x="501.70108"
           y="356.23615"
           id="text3149-3-0-9"><tspan
             sodipodi:role="line"
             id="tspan3147-0-4-7"
             style="font-style:normal;font-variant:normal;font-weight:normal;font-stretch:normal;font-family:Manjari;-inkscape-font-specification:Manjari;fill:#9bece1;fill-opacity:1;stroke-width:1.77275"
             x="501.70108"
             y="356.23615">VIZ</tspan></text><text
           xml:space="preserve"
           style="font-style:normal;font-weight:normal;font-size:29.9417px;line-height:1.25;font-family:sans-serif;fill:#9bece1;fill-opacity:1;stroke:none;stroke-width:0.748542"
           x="445.66852"
           y="342.48007"
           id="text13773"><tspan
             sodipodi:role="line"
             id="tspan13771"
             style="font-style:normal;font-variant:normal;font-weight:normal;font-stretch:normal;font-family:Manjari;-inkscape-font-specification:Manjari;fill:#9bece1;fill-opacity:1;stroke-width:0.748542"
             x="445.66852"
             y="342.48007">JS</tspan></text></g><circle
         style="display:inline;fill:none;fill-opacity:1;stroke:#9bece1;stroke-width:4.05837;stroke-dasharray:none;stroke-opacity:1;stop-color:#000000"
         id="path19588-6"
         cx="460.9472"
         cy="332.74384"
         r="34.976864" /></g><path
       d="m 519.96266,86.972005 1.57313,0.7874 4.28992,-1.84856 2.43072,-8.405809 1.13934,0.438814 0.96621,2.40453 2.60336,7.057575 1.77944,0.44746 0.27745,2.34203 -3.04385,6.35049 -2.8036,4.608295 2.43512,-1.344755 2.39098,-3.53877 2.53058,-0.39067 3.2811,0.84218 -0.41119,7.398465 1.35793,-1.3939 0.75702,-4.816385 5.8614,0.33415 5.48379,3.580045 0.77666,3.23631 3.1667,-1.45949 3.51448,1.78784 6.94976,-1.00396 5.01364,3.28341 4.51224,5.10241 5.25299,0.30163 3.06744,9.15463 0.27868,3.52861 -0.96443,6.30008 -2.83294,6.69332 -1.40813,1.51113 -2.72964,9.34912 -2.07592,0.23167 -0.65749,3.65762 0.4808,6.17802 1.12924,5.40926 -0.0473,8.78247 -1.4479,4.23339 0.4334,4.2217 -3.28653,10.57724 0.50544,1.94921 -2.82409,3.24527 -0.10253,2.01523 -5.58536,0.63305 -2.48897,1.34849 -2.01776,2.97339 -4.44902,3.71844 -2.38985,3.21252 -1.89723,4.96993 0.45258,13.01265 -2.70693,4.39718 -1.11611,5.03916 -5.46809,13.04504 0.39695,-1.72031 2.6516,-6.35991 0.88099,-3.81362 -1.32821,0.0768 -0.6054,2.47584 -1.06795,2.81421 -1.42444,7.02035 -2.05772,3.36973 -0.56396,-0.77732 0.73363,-4.41668 -4.88519,-4.92403 -4.66501,-2.49529 -2.82678,-2.89048 -2.36948,0.7525 4.82387,-10.06801 5.48643,-5.95319 0.13226,-4.53307 -1.00415,-2.66414 -2.15007,0.0724 -0.0904,-0.67073 0.46646,-6.59712 -3.52429,0.11668 -2.18423,-7.59304 -6.63011,-0.32443 0.0543,-5.17762 -1.39175,-3.55299 1.01664,-9.62614 -1.00958,-2.8447 -1.9436,-1.07897 -0.66163,-4.37058 -5.15527,0.51784 -2.12504,-11.50065 -1.9142,-1.29717 -2.43849,0.69292 -4.1597,-3.55428 -4.15333,-0.29218 -2.05299,-1.88651 -1.58798,-3.78246 -0.295,-6.29965 -4.05594,1.00202 -4.65478,5.85411 -3.96849,0.48456 -3.25196,0.78153 -0.57191,-6.81686 -2.17266,2.44274 -2.47782,0.38252 -0.54297,-2.13666 -2.85512,-0.18944 0.64783,-1.6454 -3.92894,-6.76298 0.50333,-3.1332 1.74994,-2.51085 0.0961,-6.24245 6.01458,-5.48111 2.69669,-0.14372 0.42352,-14.65876 -2.53444,-4.6639 -0.24768,-3.36923 2.43824,-0.40112 0.126,-1.15149 -2.14542,-0.76632 -0.29261,-3.052745 5.70589,-1.08299 1.17214,-1.18408 2.51613,3.13537 2.42568,1.96454 5.9996,-5.29569 1.81052,-3.9746 -2.06492,0.0772 -0.96268,-5.21979 -1.41772,-2.28603 3.65203,0.15541 1.69791,1.67145 0.3104,-2.23165 3.59551,-1.64375 2.65964,-3.526502 -0.52222,-1.360505 2.38171,0.18761 -0.26305,2.778428 2.15974,2.443589 -0.9161,6.057 1.13542,3.85208 1.76818,1.98989 6.308,-4.0498 1.87274,-0.36552 1.03574,-1.57268 3.41614,-1.53075 z"
       fill="#487294"
       stroke="#ffffff"
       stroke-width="0.989507"
       fill-opacity="1"
       stroke-opacity="1"
       stroke-linecap="round"
       stroke-linejoin="round"
       stroke-dasharray="none"
       style="fill:#9bece1;fill-opacity:0.572549;stroke:none"
       id="path66" /><rect
       style="opacity:0.329299;fill:#34a994;fill-opacity:1;stroke:#ffffff;stroke-width:3.97984;stroke-linecap:round;stroke-dasharray:none;stroke-opacity:1"
       id="rect4"
       width="326.09595"
       height="341.67358"
       x="30.120014"
       y="29.808443" /><path
       d="m 202.00484,67.370134 3.40011,2.312372 11.36649,-0.370065 10.29752,-12.503596 2.53139,1.455087 1.08146,4.629605 2.61039,13.440982 4.0783,1.875151 -0.55517,4.088714 -10.70625,8.681197 -9.21069,5.922707 6.60698,-0.703752 7.64998,-4.397252 6.33814,0.950845 7.51102,3.486161 -4.8747,12.10032 4.02188,-1.46838 4.35944,-7.567167 14.03126,4.272437 11.41453,9.45621 0.18603,5.89917 8.44023,-0.43179 7.58093,5.21399 17.37052,2.72655 10.43053,8.6627 8.26182,11.384 12.57368,3.83259 2.63597,17.23868 -1.17412,6.07199 -5.63986,9.91464 -10.3747,9.38759 -4.20504,1.63239 -11.51646,13.89022 -5.15289,-0.92835 -3.51079,5.69424 -2.0731,10.6265 -0.0985,9.75299 -4.71833,14.64316 -5.72834,6.15539 -1.16246,7.32797 -13.50996,15.58918 0.20331,3.57689 -8.54587,3.63245 -1.30485,3.30192 -13.86916,-2.48158 -6.7394,0.6757 -6.44908,3.68917 -12.73229,3.39333 -7.47626,3.85288 -7.20346,7.10123 -5.724,22.02745 -8.86574,5.63122 -5.34656,7.71184 -20.09101,18.32982 1.86385,-2.62263 9.76044,-8.94549 4.1343,-5.81331 -3.25947,-0.71328 -2.76514,3.75286 -4.06353,4.02507 -7.13234,10.8265 -6.75367,4.32602 -0.95944,-1.65606 4.09325,-6.91419 -9.25928,-11.32235 -9.99867,-7.12504 -5.33618,-6.62045 -6.13742,-0.24423 16.9691,-13.76427 16.41812,-6.46957 2.69668,-7.48976 -1.03726,-5.08734 -5.24913,-1.24147 0.13242,-1.17792 4.58862,-10.72644 -8.60304,-2.03827 -1.31386,-14.07004 -15.89945,-4.74329 2.84563,-8.61602 -1.51085,-6.81801 7.50992,-15.43852 -0.95583,-5.39247 -4.14518,-3.03427 0.68736,-7.72133 -12.76638,-2.40153 0.8779,-20.5611 -3.95955,-3.38019 -6.27338,-0.38752 -8.21889,-8.57409 -9.91333,-3.12001 -3.987,-4.45279 -1.86614,-7.3257 2.58713,-10.71198 -10.3557,-0.89601 -14.350418,6.83108 -9.872501,-1.70514 -8.291511,-0.75494 2.1871,-11.75156 -6.546366,2.70442 -6.206021,-0.93101 -0.195994,-3.91384 -6.820706,-2.12571 2.432623,-2.33851 -5.977641,-13.78876 2.862271,-4.91583 5.557508,-3.08607 3.504956,-10.36859 17.450719,-5.34624 6.611354,1.46871 8.710269,-24.222535 -3.698064,-9.39811 1.165784,-5.786047 6.119833,0.874887 0.909011,-1.843982 -4.798222,-2.63981 0.89102,-5.285746 14.397156,1.806254 3.46161,-1.235545 4.4549,6.832759 4.84939,4.819301 17.3172,-5.045916 6.47159,-5.493248 -5.04524,-1.179444 0.40282,-9.330887 -2.23785,-4.717724 8.77,2.573814 3.23913,3.86847 1.9221,-3.531827 9.57613,-0.46789 8.29471,-4.20653 -0.55255,-2.603943 5.67424,1.822655 -2.09395,4.475328 3.95373,5.451133 -5.39533,9.53913 0.73273,7.155269 3.24254,4.445024 17.41163,-2.768964 4.73057,0.576028 3.3347,-1.971208 9.08215,-0.392797 z"
       fill="#487294"
       stroke="#ffffff"
       stroke-width="2.07125"
       fill-opacity="1"
       stroke-opacity="1"
       stroke-linecap="round"
       stroke-linejoin="round"
       stroke-dasharray="none"
       style="fill:#9bece1;fill-opacity:0.572549;stroke:none"
       id="path66-0-8" /><path
       style="fill:#014d3f;fill-opacity:1;stroke-width:0.372966"
       d="m 485.10516,185.74908 c -0.1959,0.0221 -0.58791,0.10256 -0.87107,0.17863 l -0.51494,0.1383 -3.42307,3.05696 c -5.03955,4.50054 -8.01645,6.90554 -12.5121,10.10809 -9.55658,6.80799 -20.26763,12.16643 -30.99876,15.50779 -6.56588,2.04442 -13.8018,3.51804 -20.50563,4.17598 -5.75737,0.56507 -11.83297,0.63881 -17.66827,0.21448 -3.51358,-0.25549 -4.05515,-0.32152 -8.35779,-1.01913 -2.44689,-0.39671 -4.77231,-0.80542 -5.63948,-0.99108 -3.5566,-0.76154 -8.85785,-2.25593 -9.3643,-2.63971 -0.0627,-0.0476 0.58185,-2.29611 2.67825,-9.34154 l 2.76105,-9.27881 -0.23151,-0.3525 c -0.37082,-0.56447 -0.94391,-0.94171 -1.60067,-1.0536 -0.13797,-0.0235 -0.46361,-0.0339 -0.72372,-0.0232 -0.81179,0.0336 -0.49957,-0.13267 -17.05592,9.08067 -13.57535,7.55449 -22.73212,12.66134 -28.20847,15.73229 -1.84926,1.03694 -2.15753,1.32806 -2.09322,1.97656 0.0303,0.30654 0.14355,0.48974 0.85081,1.37782 1.13253,1.42195 23.93801,27.74305 26.1315,30.15975 1.88329,2.07494 2.25827,2.4025 2.86894,2.50568 0.45104,0.0763 1.22246,-0.0493 1.74998,-0.28482 0.8248,-0.36827 0.49985,0.49069 3.57872,-9.45968 1.51045,-4.8813 2.78518,-8.90375 2.83294,-8.93877 0.12649,-0.0928 0.65292,0.0126 2.4446,0.48952 3.51077,0.93452 5.09428,1.27591 9.72211,2.09608 4.40975,0.7815 6.19852,1.04511 9.42141,1.38865 0.8244,0.0878 1.59481,0.16276 1.71185,0.16639 0.11711,0.004 0.74085,0.0515 1.38614,0.10642 1.74315,0.14825 4.55748,0.28582 7.00009,0.34223 8.16857,0.1886 16.72482,-0.56427 24.10364,-2.12088 13.33449,-2.81301 25.02815,-8.12043 35.17682,-15.96584 5.24114,-4.05154 10.53527,-9.2792 14.77904,-14.59331 4.39187,-5.49965 7.9477,-11.05489 11.71198,-18.29749 0.29646,-0.57042 0.67328,-1.27846 0.83739,-1.57341 0.35697,-0.64152 0.43112,-1.00509 0.29239,-1.43385 -0.13935,-0.43066 -0.47725,-0.80274 -1.02989,-1.1342 -0.51373,-0.3081 -0.72403,-0.35904 -1.24084,-0.30051 z"
       id="path3" /></g></svg>
