<?xml version="1.0" encoding="UTF-8" standalone="no"?>
<!-- Created with Inkscape (http://www.inkscape.org/) -->

<svg
   version="1.1"
   id="svg1"
   width="640"
   height="400"
   viewBox="0 0 640 400"
   sodipodi:docname="geoviz-lite.svg"
   inkscape:version="1.3.2 (1:1.3.2+202311252150+091e20ef0f)"
   xml:space="preserve"
   xmlns:inkscape="http://www.inkscape.org/namespaces/inkscape"
   xmlns:sodipodi="http://sodipodi.sourceforge.net/DTD/sodipodi-0.dtd"
   xmlns="http://www.w3.org/2000/svg"
   xmlns:svg="http://www.w3.org/2000/svg"><defs
     id="defs1" /><sodipodi:namedview
     id="namedview1"
     pagecolor="#ffffff"
     bordercolor="#999999"
     borderopacity="1"
     inkscape:showpageshadow="0"
     inkscape:pageopacity="0"
     inkscape:pagecheckerboard="0"
     inkscape:deskcolor="#d1d1d1"
     showgrid="false"
     inkscape:zoom="0.91728643"
     inkscape:cx="297.61696"
     inkscape:cy="120.46401"
     inkscape:window-width="3440"
     inkscape:window-height="1403"
     inkscape:window-x="0"
     inkscape:window-y="0"
     inkscape:window-maximized="1"
     inkscape:current-layer="g1" /><g
     inkscape:groupmode="layer"
     inkscape:label="Image"
     id="g1"><rect
       style="fill:#02886f;fill-opacity:1;stroke-width:1.51181"
       id="rect1"
       width="640"
       height="400"
       x="0"
       y="0" /><text
       xml:space="preserve"
       style="font-style:normal;font-weight:normal;font-size:43.3601px;line-height:1.25;font-family:sans-serif;fill:#000000;fill-opacity:1;stroke:none;stroke-width:1.084"
       x="352.51151"
       y="355.53671"
       id="text2"><tspan
         sodipodi:role="line"
         id="tspan2"
         style="stroke-width:1.084"
         x="352.51151"
         y="355.53671" /></text><text
       xml:space="preserve"
       style="font-style:normal;font-weight:normal;font-size:133.06px;line-height:1.25;font-family:sans-serif;fill:#9bece1;fill-opacity:1;stroke:none;stroke-width:3.32652"
       x="49.946369"
       y="244.6024"
       id="text3149-3-0"><tspan
         sodipodi:role="line"
         id="tspan3147-0-4"
         style="font-style:normal;font-variant:normal;font-weight:normal;font-stretch:normal;font-family:Manjari;-inkscape-font-specification:Manjari;fill:#9bece1;fill-opacity:1;stroke-width:3.32652"
         x="49.946369"
         y="244.6024">GE </tspan></text><text
       xml:space="preserve"
       style="font-style:normal;font-weight:normal;font-size:64.5935px;line-height:1.25;font-family:sans-serif;fill:#9bece1;fill-opacity:1;stroke:none;stroke-width:1.61485"
       x="475.81885"
       y="317.84064"
       id="text3149-3-0-5"><tspan
         sodipodi:role="line"
         id="tspan3147-0-4-9"
         style="font-style:normal;font-variant:normal;font-weight:normal;font-stretch:normal;font-size:66.6667px;font-family:Sans;-inkscape-font-specification:'Sans, Normal';font-variant-ligatures:normal;font-variant-caps:normal;font-variant-numeric:normal;font-variant-east-asian:normal;fill:#9bece1;fill-opacity:1;stroke-width:1.61485"
         x="475.81885"
         y="317.84064">-lite</tspan></text><text
       xml:space="preserve"
       style="font-style:normal;font-weight:normal;font-size:133.06px;line-height:1.25;font-family:sans-serif;fill:#9bece1;fill-opacity:1;stroke:none;stroke-width:3.32652"
       x="384.55179"
       y="244.08272"
       id="text3149-3-0-9"><tspan
         sodipodi:role="line"
         id="tspan3147-0-4-7"
         style="font-style:normal;font-variant:normal;font-weight:normal;font-stretch:normal;font-family:Manjari;-inkscape-font-specification:Manjari;fill:#9bece1;fill-opacity:1;stroke-width:3.32652"
         x="384.55179"
         y="244.08272">VIZ</tspan></text><circle
       style="display:inline;fill:none;fill-opacity:1;stroke:#9bece1;stroke-width:7.61543;stroke-dasharray:none;stroke-opacity:1;stop-color:#000000"
       id="path19588-6"
       cx="308.07816"
       cy="200"
       r="65.633194" /><path
       d="m 275.11981,154.23766 c 0,0.0316 0.23316,0.42172 0.51296,0.87509 2.72801,4.36489 4.86143,9.52055 5.63088,13.67458 0.34974,1.93997 0.29147,5.19784 -0.18653,8.85634 -0.60624,4.70228 -0.71116,5.93585 -0.79274,9.01448 -0.11661,4.93425 0.33806,9.08829 1.53886,14.18067 0.83939,3.50035 2.40157,8.24482 3.98708,12.07202 3.47414,8.38188 8.17236,14.87651 14.08305,19.49446 4.6516,3.63744 9.95606,5.91477 15.31882,6.58955 1.6671,0.21085 4.72151,0.2214 6.24874,0.009 4.69825,-0.63261 9.48974,-1.69746 11.73976,-2.59364 0.59457,-0.23195 1.16581,-0.43228 1.25907,-0.44282 0.23317,-0.0316 0.6412,1.29683 0.88603,2.85721 0.40803,2.68855 -0.0933,4.3122 -1.85365,5.99911 -0.39638,0.37957 -0.52462,0.56935 -0.4197,0.60099 0.64119,0.18977 1.52723,0.37955 1.77206,0.37955 0.61786,0 1.6438,-1.5077 2.07513,-3.03645 0.43135,-1.52878 0.23317,-3.16299 -0.71115,-5.8726 -0.68784,-1.97158 -0.66451,-1.85562 -0.40802,-2.01375 7.00653,-4.45981 11.77473,-11.13368 12.81228,-17.913 0.58292,-3.86937 0.24483,-7.04288 -1.32902,-12.30397 -1.30571,-4.32273 -2.7513,-7.81257 -4.76818,-11.47106 -5.09461,-9.19371 -12.59079,-16.27876 -22.86162,-21.6031 -1.84197,-0.95945 -8.23063,-3.8483 -10.60891,-4.79718 -3.01945,-1.21247 -6.9366,-2.59365 -11.65814,-4.12242 -6.52856,-2.10865 -8.63869,-2.88885 -13.34857,-4.95534 -3.35754,-1.47604 -6.35371,-2.7096 -7.65942,-3.15243 -1.17747,-0.3901 -1.25907,-0.41119 -1.25907,-0.32683 z m 4.7915,3.93264 c 5.61922,5.26108 17.95353,18.41904 26.94196,28.69871 2.71635,3.11028 7.28635,8.48733 8.18403,9.626 1.6438,2.08754 5.61922,7.96013 7.92753,11.72408 1.4806,2.40387 4.47674,7.72822 5.72416,10.17423 2.76298,5.39815 5.73581,12.45159 6.52856,15.51967 l 0.2215,0.82237 -0.27979,0.26358 c -0.26815,0.26359 -0.74613,0.34793 -0.86271,0.16871 -0.035,-0.0528 -0.34974,-0.96998 -0.6995,-2.03486 -4.30185,-13.15798 -13.26696,-28.45623 -24.65697,-42.09919 -3.3925,-4.05916 -16.92764,-19.13601 -26.1259,-29.09936 -3.62568,-3.93263 -4.31352,-4.7023 -4.31352,-4.83937 0,-0.20031 0.32644,0.0527 1.41065,1.07543 z"
       id="path1"
       style="fill:#9bece1;fill-opacity:1;stroke:none;stroke-width:0.0110867" /></g></svg>
