<?xml version="1.0" encoding="UTF-8" standalone="no"?>
<!-- Created with Inkscape (http://www.inkscape.org/) -->

<svg
   version="1.1"
   id="svg1"
   width="406.82983"
   height="92.006432"
   viewBox="0 0 406.82984 92.006432"
   sodipodi:docname="interactive.svg"
   inkscape:version="1.3.1 (9b9bdc1480, 2023-11-25, custom)"
   xml:space="preserve"
   xmlns:inkscape="http://www.inkscape.org/namespaces/inkscape"
   xmlns:sodipodi="http://sodipodi.sourceforge.net/DTD/sodipodi-0.dtd"
   xmlns="http://www.w3.org/2000/svg"
   xmlns:svg="http://www.w3.org/2000/svg"><defs
     id="defs1"><defs
       id="defs2" /></defs><sodipodi:namedview
     id="namedview1"
     pagecolor="#ffffff"
     bordercolor="#999999"
     borderopacity="1"
     inkscape:showpageshadow="0"
     inkscape:pageopacity="0"
     inkscape:pagecheckerboard="0"
     inkscape:deskcolor="#d1d1d1"
     showgrid="false"
     inkscape:zoom="1.2476853"
     inkscape:cx="220.40814"
     inkscape:cy="42.47866"
     inkscape:window-width="1864"
     inkscape:window-height="1016"
     inkscape:window-x="994"
     inkscape:window-y="1107"
     inkscape:window-maximized="1"
     inkscape:current-layer="g1"
     showguides="true" /><g
     inkscape:groupmode="layer"
     inkscape:label="Image"
     id="g1"
     transform="translate(549.32678,-491.88104)"><text
       xml:space="preserve"
       style="font-style:normal;font-weight:normal;font-size:43.3601px;line-height:1.25;font-family:sans-serif;fill:#000000;fill-opacity:1;stroke:none;stroke-width:1.084"
       x="352.51151"
       y="355.53671"
       id="text2"><tspan
         sodipodi:role="line"
         id="tspan2"
         style="stroke-width:1.084"
         x="352.51151"
         y="355.53671" /></text><rect
       style="fill:#02886f;fill-opacity:1;stroke-width:0.578086"
       id="rect1-9-3-7"
       width="406.82983"
       height="92.006432"
       x="-549.32678"
       y="491.88104" /><text
       xml:space="preserve"
       style="font-style:normal;font-weight:normal;font-size:56.5701px;line-height:1.25;font-family:sans-serif;fill:#9bece1;fill-opacity:1;stroke:none;stroke-width:1.41426"
       x="-433.35056"
       y="556.73633"
       id="text3149-3-0-9-2-0-7"><tspan
         sodipodi:role="line"
         id="tspan3147-0-4-7-9-4-6"
         style="font-style:normal;font-variant:normal;font-weight:normal;font-stretch:normal;font-family:Manjari;-inkscape-font-specification:Manjari;fill:#9bece1;fill-opacity:1;stroke-width:1.41426"
         x="-433.35056"
         y="556.73633">Interactive</tspan></text><path
       style="opacity:0.6;fill:#ffffff;fill-opacity:1;stroke:none;stroke-width:0.358649"
       d="m -495.03306,563.37665 c -3.0587,-0.99696 -4.57146,-2.27279 -12.7409,-10.74533 -9.63741,-9.99498 -9.96121,-10.53534 -7.81095,-13.03516 0.77105,-0.8964 1.44605,-1.19392 2.70869,-1.19392 1.44013,0 2.16445,0.43204 5.04207,3.0075 l 3.36036,3.0075 v -18.86125 c 0,-18.10898 0.0355,-18.90632 0.889,-19.99143 1.77539,-2.25705 5.48259,-1.78891 6.57707,0.83055 0.48813,1.16825 0.64662,4.99117 0.7197,17.35956 0.0814,13.78132 0.12564,14.69177 0.33716,6.9426 l 0.24346,-8.91879 1.26136,-1.08389 c 0.69374,-0.59615 1.66472,-1.0839 2.15772,-1.0839 1.2517,0 3.38505,1.17191 3.71938,2.04315 0.15359,0.40026 0.27925,4.45377 0.27925,9.0078 0,5.22034 0.16613,8.28007 0.44956,8.28007 0.28028,0 0.44956,-2.61155 0.44956,-6.93553 v -6.93553 l 1.18453,-0.93175 c 1.64444,-1.29351 3.96365,-1.21914 5.35451,0.17172 1.0736,1.0736 1.10564,1.30167 1.18416,8.42922 l 0.0807,7.32576 0.25646,-5.72044 c 0.23091,-5.15027 0.35752,-5.82139 1.27024,-6.73316 1.39384,-1.39238 4.22254,-1.39156 5.61495,0.002 1.00492,1.00547 1.01378,1.12713 1.01378,13.9261 v 12.91176 l -1.21832,2.30976 c -1.54865,2.93605 -4.40997,5.39179 -7.27287,6.24198 -2.15018,0.63854 -13.44121,0.91757 -15.11064,0.37343 z"
       id="path241993" /></g></svg>
