<?xml version="1.0" encoding="UTF-8" standalone="no"?>
<!-- Created with Inkscape (http://www.inkscape.org/) -->

<svg
   version="1.1"
   id="svg1"
   width="473.76389"
   height="92.006432"
   viewBox="0 0 473.76389 92.006432"
   sodipodi:docname="interoperable.svg"
   inkscape:version="1.3.1 (9b9bdc1480, 2023-11-25, custom)"
   xml:space="preserve"
   xmlns:inkscape="http://www.inkscape.org/namespaces/inkscape"
   xmlns:sodipodi="http://sodipodi.sourceforge.net/DTD/sodipodi-0.dtd"
   xmlns="http://www.w3.org/2000/svg"
   xmlns:svg="http://www.w3.org/2000/svg"><defs
     id="defs1"><defs
       id="defs2" /></defs><sodipodi:namedview
     id="namedview1"
     pagecolor="#ffffff"
     bordercolor="#999999"
     borderopacity="1"
     inkscape:showpageshadow="0"
     inkscape:pageopacity="0"
     inkscape:pagecheckerboard="0"
     inkscape:deskcolor="#d1d1d1"
     showgrid="false"
     inkscape:zoom="1.2476853"
     inkscape:cx="220.40814"
     inkscape:cy="140.25973"
     inkscape:window-width="1864"
     inkscape:window-height="1016"
     inkscape:window-x="994"
     inkscape:window-y="1107"
     inkscape:window-maximized="1"
     inkscape:current-layer="g1"
     showguides="true" /><g
     inkscape:groupmode="layer"
     inkscape:label="Image"
     id="g1"
     transform="translate(549.32678,-393.83868)"><text
       xml:space="preserve"
       style="font-style:normal;font-weight:normal;font-size:43.3601px;line-height:1.25;font-family:sans-serif;fill:#000000;fill-opacity:1;stroke:none;stroke-width:1.084"
       x="352.51151"
       y="355.53671"
       id="text2"><tspan
         sodipodi:role="line"
         id="tspan2"
         style="stroke-width:1.084"
         x="352.51151"
         y="355.53671" /></text><rect
       style="fill:#02886f;fill-opacity:1;stroke-width:0.623831"
       id="rect1-9-3-7-6"
       width="473.76389"
       height="92.006432"
       x="-549.32678"
       y="393.83868" /><text
       xml:space="preserve"
       style="font-style:normal;font-weight:normal;font-size:56.5701px;line-height:1.25;font-family:sans-serif;fill:#9bece1;fill-opacity:1;stroke:none;stroke-width:1.41426"
       x="-433.35056"
       y="453.6944"
       id="text3149-3-0-9-2-6-8-8"><tspan
         sodipodi:role="line"
         id="tspan3147-0-4-7-9-0-7-9"
         style="font-style:normal;font-variant:normal;font-weight:normal;font-stretch:normal;font-family:Manjari;-inkscape-font-specification:Manjari;fill:#9bece1;fill-opacity:1;stroke-width:1.41426"
         x="-433.35056"
         y="453.6944">Interoperable</tspan></text><path
       style="opacity:0.6;fill:#ffffff;fill-opacity:1;stroke:none;stroke-width:0.246702"
       d="m -521.87973,468.54899 -0.23192,-0.24421 v -5.82393 -5.82394 h 3.07713 c 3.87078,0 5.769,-0.38978 8.59465,-1.76487 l 2.24013,-1.09012 1.83603,-1.96272 1.83603,-1.96272 0.91871,-1.9441 c 0.50527,-1.06925 1.0883,-2.77791 1.29561,-3.79701 l 0.37691,-1.8529 -0.18885,-2.03212 c -0.37161,-3.99816 -1.99698,-7.33116 -4.92614,-10.10142 l -1.62093,-1.53301 -2.00379,-0.95152 -2.00381,-0.95151 -1.83489,-0.33515 c -1.00921,-0.18433 -3.13135,-0.33515 -4.71585,-0.33515 h -2.88094 v -6.07817 -6.07817 l 4.56122,0.20004 4.56122,0.20002 2.16463,0.57386 c 2.79884,0.74198 5.60275,1.88704 7.80474,3.18726 l 1.75683,1.03737 3.10666,3.09235 3.10669,3.09235 1.29716,2.31927 c 0.71344,1.2756 1.71695,3.57878 2.23001,5.11819 l 0.93286,2.79892 0.33492,2.92194 0.3349,2.92193 -0.20378,2.16466 c -0.44162,4.69115 -1.9222,8.94129 -4.44369,12.75594 l -1.78856,2.70583 -2.13197,2.029 c -3.69596,3.51743 -7.36015,5.55305 -12.23715,6.79826 l -2.51666,0.64256 -4.2031,0.1736 -4.20308,0.17361 z m 22.65149,-0.464 c 0.42519,-0.35331 1.70922,-1.41479 2.8534,-2.35882 2.15472,-1.77782 4.62142,-4.65036 6.37532,-7.42427 l 1.01293,-1.60199 4.75323,-0.0988 4.75325,-0.0988 0.85276,-0.63757 c 0.46903,-0.35067 1.12944,-1.00815 1.4676,-1.46108 l 0.61483,-0.82348 0.0227,-1.53073 0.0227,-1.53073 -0.64689,-0.87365 c -0.3558,-0.48051 -1.10696,-1.18675 -1.66921,-1.56943 l -1.02234,-0.69577 -2.81469,-1.2e-4 -2.8147,-1.1e-4 v -6.03007 -6.03006 l 2.79854,7e-5 2.79854,8e-5 1.29991,-0.84289 1.29992,-0.84288 0.50259,-1.31599 0.50258,-1.316 -0.19699,-0.98496 c -0.10836,-0.54172 -0.56209,-1.4636 -1.0083,-2.04861 l -0.81128,-1.06366 -1.03163,-0.43104 -1.03163,-0.43104 h -4.29384 -4.29388 l -1.48431,-2.24196 c -1.78433,-2.69515 -5.81106,-6.90665 -8.13121,-8.50434 l -1.68347,-1.15927 10.16535,-0.0863 10.16534,-0.0863 2.24309,0.49416 2.24307,0.49416 2.08623,1.0443 2.08624,1.04429 1.8842,1.86195 1.88424,1.86194 0.94876,1.78827 c 0.52183,0.98354 1.18884,2.61971 1.48224,3.63593 l 0.53344,1.84768 -0.0136,2.79086 -0.0136,2.79086 -0.63587,2.01003 c -0.34973,1.10551 -1.12798,2.82703 -1.72943,3.8256 -0.60146,0.99856 -1.09001,1.90307 -1.08564,2.01003 0.005,0.10695 0.49607,0.95981 1.09272,1.89526 1.28098,2.00838 2.14221,4.63823 2.43046,7.42165 l 0.20814,2.01003 -0.48946,2.31638 c -1.33086,6.29828 -5.08058,10.52413 -11.28991,12.72348 l -2.01003,0.71195 -10.97786,0.0921 -10.97787,0.092 z"
       id="path241995" /></g></svg>
