<?xml version="1.0" encoding="UTF-8" standalone="no"?>
<!-- Created with Inkscape (http://www.inkscape.org/) -->

<svg
   version="1.1"
   id="svg1"
   width="640"
   height="400"
   viewBox="0 0 640 400"
   sodipodi:docname="layout.svg"
   inkscape:version="1.3.1 (9b9bdc1480, 2023-11-25, custom)"
   xmlns:inkscape="http://www.inkscape.org/namespaces/inkscape"
   xmlns:sodipodi="http://sodipodi.sourceforge.net/DTD/sodipodi-0.dtd"
   xmlns="http://www.w3.org/2000/svg"
   xmlns:svg="http://www.w3.org/2000/svg">
  <defs
     id="defs1" />
  <sodipodi:namedview
     id="namedview1"
     pagecolor="#ffffff"
     bordercolor="#999999"
     borderopacity="1"
     inkscape:showpageshadow="0"
     inkscape:pageopacity="0"
     inkscape:pagecheckerboard="0"
     inkscape:deskcolor="#d1d1d1"
     showgrid="false"
     inkscape:zoom="1.0274263"
     inkscape:cx="344.06361"
     inkscape:cy="264.73918"
     inkscape:window-width="1864"
     inkscape:window-height="1016"
     inkscape:window-x="56"
     inkscape:window-y="1107"
     inkscape:window-maximized="1"
     inkscape:current-layer="g1" />
  <g
     inkscape:groupmode="layer"
     inkscape:label="Image"
     id="g1">
    <rect
       style="fill:#02886f;fill-opacity:1;stroke-width:1.51181"
       id="rect1"
       width="640"
       height="400"
       x="0"
       y="0" />
    <text
       xml:space="preserve"
       style="font-style:normal;font-weight:normal;font-size:43.3601px;line-height:1.25;font-family:sans-serif;fill:#000000;fill-opacity:1;stroke:none;stroke-width:1.084"
       x="352.51151"
       y="355.53671"
       id="text2"><tspan
         sodipodi:role="line"
         id="tspan2"
         style="stroke-width:1.084"
         x="352.51151"
         y="355.53671" /></text>
    <g
       id="g3"
       transform="matrix(0.79777961,0,0,0.79777961,127.07762,81.430393)">
      <g
         id="g2">
        <text
           xml:space="preserve"
           style="font-style:normal;font-weight:normal;font-size:70.9094px;line-height:1.25;font-family:sans-serif;fill:#9bece1;fill-opacity:1;stroke:none;stroke-width:1.77275"
           x="323.3851"
           y="356.51309"
           id="text3149-3-0"><tspan
             sodipodi:role="line"
             id="tspan3147-0-4"
             style="font-style:normal;font-variant:normal;font-weight:normal;font-stretch:normal;font-family:Manjari;-inkscape-font-specification:Manjari;fill:#9bece1;fill-opacity:1;stroke-width:1.77275"
             x="323.3851"
             y="356.51309">GE </tspan></text>
        <text
           xml:space="preserve"
           style="font-style:normal;font-weight:normal;font-size:70.9094px;line-height:1.25;font-family:sans-serif;fill:#9bece1;fill-opacity:1;stroke:none;stroke-width:1.77275"
           x="501.70108"
           y="356.23615"
           id="text3149-3-0-9"><tspan
             sodipodi:role="line"
             id="tspan3147-0-4-7"
             style="font-style:normal;font-variant:normal;font-weight:normal;font-stretch:normal;font-family:Manjari;-inkscape-font-specification:Manjari;fill:#9bece1;fill-opacity:1;stroke-width:1.77275"
             x="501.70108"
             y="356.23615">VIZ</tspan></text>
        <text
           xml:space="preserve"
           style="font-style:normal;font-weight:normal;font-size:29.9417px;line-height:1.25;font-family:sans-serif;fill:#9bece1;fill-opacity:1;stroke:none;stroke-width:0.748542"
           x="445.66852"
           y="342.48007"
           id="text13773"><tspan
             sodipodi:role="line"
             id="tspan13771"
             style="font-style:normal;font-variant:normal;font-weight:normal;font-stretch:normal;font-family:Manjari;-inkscape-font-specification:Manjari;fill:#9bece1;fill-opacity:1;stroke-width:0.748542"
             x="445.66852"
             y="342.48007">JS</tspan></text>
      </g>
      <circle
         style="display:inline;fill:none;fill-opacity:1;stroke:#9bece1;stroke-width:4.05837;stroke-dasharray:none;stroke-opacity:1;stop-color:#000000"
         id="path19588-6"
         cx="460.9472"
         cy="332.74384"
         r="34.976864" />
    </g>
    <rect
       fill="#ffffff"
       stroke="currentColor"
       stroke-width="1.29787"
       width="0"
       y="141.95528"
       height="0.51914859"
       id="rect7"
       x="521.27338"
       style="font-family:sans-serif;fill:#9bece1;fill-opacity:1" />
    <g
       id="g4"
       transform="matrix(1.0603717,0,0,1.0603717,-2.196697,24.07679)">
      <path
         class="domain"
         fill="none"
         stroke="currentColor"
         d="m 280.22657,149.10037 v -7.1451 h 241.04679 v 7.1451"
         id="path4"
         style="font-family:sans-serif;fill:#9bece1;fill-opacity:1;stroke:none;stroke-width:9.62984" />
      <line
         stroke="currentColor"
         y2="149.10025"
         id="line4"
         x1="280.22656"
         y1="141.95535"
         x2="280.22656"
         style="font-family:sans-serif;fill:#9bece1;fill-opacity:1;stroke:none;stroke-width:9.62984" />
      <text
         fill="currentColor"
         y="155.45314"
         font-size="25.9574px"
         text-anchor="middle"
         dy="22.115728"
         id="text4"
         style="font-family:sans-serif;fill:#9bece1;fill-opacity:1;stroke-width:2.59574"
         x="280.22656">0</text>
      <rect
         fill="currentColor"
         stroke="currentColor"
         stroke-width="4.81492"
         width="60.2617"
         y="141.95535"
         height="7.1450782"
         id="rect4"
         x="280.22656"
         style="font-family:sans-serif;fill:#9bece1;fill-opacity:1;stroke:none" />
      <line
         stroke="currentColor"
         y2="149.10025"
         id="line5"
         x1="340.48828"
         y1="141.95535"
         x2="340.48828"
         style="font-family:sans-serif;fill:#9bece1;fill-opacity:1;stroke:none;stroke-width:9.62984" />
      <text
         fill="currentColor"
         y="155.45314"
         font-size="25.9574px"
         text-anchor="middle"
         dy="22.115728"
         id="text5"
         style="font-family:sans-serif;fill:#9bece1;fill-opacity:1;stroke-width:2.59574"
         x="340.48828">100</text>
      <rect
         fill="#ffffff"
         stroke="currentColor"
         stroke-width="4.81492"
         width="60.2617"
         y="141.95535"
         height="7.1450782"
         id="rect5"
         x="340.48828"
         style="font-family:sans-serif;fill:#9bece1;fill-opacity:1;stroke:none" />
      <line
         stroke="currentColor"
         y2="149.10025"
         id="line6"
         x1="400.74997"
         y1="141.95535"
         x2="400.74997"
         style="font-family:sans-serif;fill:#9bece1;fill-opacity:1;stroke:none;stroke-width:9.62984" />
      <text
         fill="currentColor"
         y="155.45314"
         font-size="25.9574px"
         text-anchor="middle"
         dy="22.115728"
         id="text6"
         style="font-family:sans-serif;fill:#9bece1;fill-opacity:1;stroke-width:2.59574"
         x="400.74997">200</text>
      <rect
         fill="currentColor"
         stroke="currentColor"
         stroke-width="4.81492"
         width="120.5234"
         y="141.95535"
         height="7.1450782"
         id="rect6"
         x="400.74997"
         style="font-family:sans-serif;fill:#9bece1;fill-opacity:1;stroke:none" />
      <line
         stroke="currentColor"
         y2="149.10025"
         id="line7"
         x1="521.27338"
         y1="141.95535"
         x2="521.27338"
         style="font-family:sans-serif;fill:#9bece1;fill-opacity:1;stroke:none;stroke-width:9.62984" />
      <text
         fill="currentColor"
         y="155.45314"
         font-size="25.9574px"
         text-anchor="middle"
         dy="22.115728"
         id="text7"
         style="font-family:sans-serif;fill:#9bece1;fill-opacity:1;stroke-width:2.59574"
         x="521.27338">400</text>
      <text
         class="label"
         fill="currentColor"
         font-size="31.1489px"
         dy="-9.9676533"
         x="280.22656"
         y="141.95528"
         text-anchor="start"
         id="text8"
         style="font-family:sans-serif;fill:#9bece1;fill-opacity:1;stroke-width:2.59574">kilometers</text>
    </g>
    <g
       id="rouxsdxjqxtxwqo"
       fill="#ffffff"
       fill-opacity="1"
       transform="matrix(2.8198063,1.3336569,-1.3336569,2.8198063,113.16348,-278.46174)"
       style="fill:#9bece1;fill-opacity:1">
      <path
         d="m 0.0449585,-17.812349 c -0.31491969,0 -0.59839547,0.219925 -0.71623536,0.555004 L -8.3333415,4.589384 c -0.1111399,0.3173496 -0.053359,0.6794395 0.1477946,0.9312093 0.1487199,0.1849688 0.3554042,0.2857706 0.567924,0.2857706 0.0761,0 0.1527674,-0.012157 0.2273763,-0.038757 4.6805313,-1.6600663 9.6903252,-1.6579204 14.890564,0.00672 0.2835297,0.0904 0.5863314,-0.01182 0.7823812,-0.263033 C 8.4787474,5.2601218 8.5328574,4.9026136 8.4232585,4.589384 L 0.76119385,-17.257345 C 0.64335397,-17.592424 0.35987718,-17.812349 0.0449585,-17.812349 Z m 0.0051676,3.271634 6.3737712,18.1720179 c -0.0149,-0.004 -0.029985,-0.0062 -0.045475,-0.010852 C 0.64157284,-2.0936385 0.09748309,-4.360355 0.0501261,-14.540715 Z m -3.4194295,1.572514 c -5.7659492,1.515186 -10.0319456,6.7711341 -10.0319456,13.00644156 0,4.53274064 2.252872,8.64843034 5.860624,11.10681544 a 8.3801446,8.3801446 0 0 1 0.4439006,-0.869714 C -10.385638,7.9859154 -12.4349,4.2025426 -12.4349,0.03824056 c 0,-5.69765856 3.8392468,-10.51289056 9.0655966,-12.00236856 z m 6.926709,0.02739 v 1.004073 c 5.1771088,1.520906 8.9689614,6.3123309 8.9689614,11.97497956 0,4.15266204 -2.047483,7.93702334 -5.329907,10.22934944 a 8.3801446,8.3801446 0 0 1 0.4594034,0.858863 C 11.247977,8.6637544 13.492716,4.5522912 13.492716,0.03824056 13.492716,-6.161767 9.2740539,-11.392436 3.5574056,-12.940811 Z M -3.6158,7.7333781 c -0.1109299,7.9e-4 -0.2227828,0.019527 -0.3317627,0.056327 -0.4365985,0.1467289 -0.7317382,0.5558494 -0.7317382,1.017509 V 18.45262 c 0,0.593339 0.4804878,1.073837 1.0738362,1.073837 0.5933494,0 1.0733195,-0.480498 1.0733195,-1.073837 v -6.448702 l 5.3733154,7.097242 c 0.2068498,0.273409 0.5263289,0.425813 0.8562785,0.425813 0.1138099,0 0.2286946,-0.01851 0.3410645,-0.05581 0.4373195,-0.14672 0.7317383,-0.556376 0.7317383,-1.018026 V 8.8072144 c 0,-0.5933395 -0.4812069,-1.0733195 -1.0738363,-1.0733195 -0.5926184,0 -1.0733195,0.47998 -1.0733195,1.0733195 V 15.25695 L -2.7502197,8.1597087 C -2.9590285,7.8833089 -3.2829703,7.7303491 -3.6158,7.7333781 Z"
         transform="matrix(2,0,0,2,75,125)"
         id="path8"
         style="fill:#9bece1;fill-opacity:1" />
    </g>
  </g>
</svg>
