<?xml version="1.0" encoding="UTF-8" standalone="no"?>
<!-- Created with Inkscape (http://www.inkscape.org/) -->

<svg
   version="1.1"
   id="svg1"
   width="640"
   height="400"
   viewBox="0 0 640 400"
   sodipodi:docname="panzoom.svg"
   inkscape:version="1.3.1 (9b9bdc1480, 2023-11-25, custom)"
   xml:space="preserve"
   xmlns:inkscape="http://www.inkscape.org/namespaces/inkscape"
   xmlns:sodipodi="http://sodipodi.sourceforge.net/DTD/sodipodi-0.dtd"
   xmlns="http://www.w3.org/2000/svg"
   xmlns:svg="http://www.w3.org/2000/svg"><defs
     id="defs1"><defs
       id="defs2" /></defs><sodipodi:namedview
     id="namedview1"
     pagecolor="#ffffff"
     bordercolor="#999999"
     borderopacity="1"
     inkscape:showpageshadow="0"
     inkscape:pageopacity="0"
     inkscape:pagecheckerboard="0"
     inkscape:deskcolor="#d1d1d1"
     showgrid="false"
     inkscape:zoom="1.2476853"
     inkscape:cx="285.32836"
     inkscape:cy="274.10758"
     inkscape:window-width="1864"
     inkscape:window-height="1016"
     inkscape:window-x="56"
     inkscape:window-y="1107"
     inkscape:window-maximized="1"
     inkscape:current-layer="g1" /><g
     inkscape:groupmode="layer"
     inkscape:label="Image"
     id="g1"><rect
       style="fill:#02886f;fill-opacity:1;stroke-width:1.51181"
       id="rect1"
       width="640"
       height="400"
       x="0"
       y="0" /><text
       xml:space="preserve"
       style="font-style:normal;font-weight:normal;font-size:43.3601px;line-height:1.25;font-family:sans-serif;fill:#000000;fill-opacity:1;stroke:none;stroke-width:1.084"
       x="352.51151"
       y="355.53671"
       id="text2"><tspan
         sodipodi:role="line"
         id="tspan2"
         style="stroke-width:1.084"
         x="352.51151"
         y="355.53671" /></text><g
       id="g3"
       transform="matrix(0.79777961,0,0,0.79777961,127.07762,81.430393)"><g
         id="g2"><text
           xml:space="preserve"
           style="font-style:normal;font-weight:normal;font-size:70.9094px;line-height:1.25;font-family:sans-serif;fill:#9bece1;fill-opacity:1;stroke:none;stroke-width:1.77275"
           x="323.3851"
           y="356.51309"
           id="text3149-3-0"><tspan
             sodipodi:role="line"
             id="tspan3147-0-4"
             style="font-style:normal;font-variant:normal;font-weight:normal;font-stretch:normal;font-family:Manjari;-inkscape-font-specification:Manjari;fill:#9bece1;fill-opacity:1;stroke-width:1.77275"
             x="323.3851"
             y="356.51309">GE </tspan></text><text
           xml:space="preserve"
           style="font-style:normal;font-weight:normal;font-size:70.9094px;line-height:1.25;font-family:sans-serif;fill:#9bece1;fill-opacity:1;stroke:none;stroke-width:1.77275"
           x="501.70108"
           y="356.23615"
           id="text3149-3-0-9"><tspan
             sodipodi:role="line"
             id="tspan3147-0-4-7"
             style="font-style:normal;font-variant:normal;font-weight:normal;font-stretch:normal;font-family:Manjari;-inkscape-font-specification:Manjari;fill:#9bece1;fill-opacity:1;stroke-width:1.77275"
             x="501.70108"
             y="356.23615">VIZ</tspan></text><text
           xml:space="preserve"
           style="font-style:normal;font-weight:normal;font-size:29.9417px;line-height:1.25;font-family:sans-serif;fill:#9bece1;fill-opacity:1;stroke:none;stroke-width:0.748542"
           x="445.66852"
           y="342.48007"
           id="text13773"><tspan
             sodipodi:role="line"
             id="tspan13771"
             style="font-style:normal;font-variant:normal;font-weight:normal;font-stretch:normal;font-family:Manjari;-inkscape-font-specification:Manjari;fill:#9bece1;fill-opacity:1;stroke-width:0.748542"
             x="445.66852"
             y="342.48007">JS</tspan></text></g><circle
         style="display:inline;fill:none;fill-opacity:1;stroke:#9bece1;stroke-width:4.05837;stroke-dasharray:none;stroke-opacity:1;stop-color:#000000"
         id="path19588-6"
         cx="460.9472"
         cy="332.74384"
         r="34.976864" /></g><path
       style="fill:#9bece1;fill-opacity:1;stroke-width:1.60379"
       d="m 141.11173,267.00464 59.72326,-43.10542 5.91533,6.65589 5.91533,6.65586 7.65573,-5.6645 7.65577,-5.6645 -3.2294,-6.12371 c -5.45039,-10.33515 -10.76446,-28.9966 -11.9783,-42.06411 -1.40874,-15.16577 2.03801,-38.69795 7.68396,-52.46129 19.58027,-47.73131 71.16997,-76.722008 121.96215,-68.536285 18.96655,3.056681 32.75195,8.73208 48.9095,20.135947 11.5123,8.125276 15.81803,12.474286 25.32805,25.582578 9.51001,13.1083 12.30815,18.55106 16.45979,32.01647 10.99769,35.66988 5.67936,69.30477 -15.74009,99.54494 -23.87484,33.70686 -62.94887,51.22807 -103.93253,46.60445 -26.26609,-2.96326 -48.54102,-13.27193 -66.27924,-30.6735 l -6.51113,-6.38755 -7.72507,5.49472 -7.72508,5.49471 3.76471,6.40174 c 2.07062,3.52095 3.64819,7.13438 3.50573,8.02984 -0.14218,0.89549 -27.10287,21.09592 -59.91206,44.88991 L 112.9051,357.09265 96.907853,335.10296 c -8.79846,-12.09434 -15.88973,-22.66541 -15.75834,-23.4913 0.1309,-0.82598 27.114377,-20.89906 59.962147,-44.60703 z m 93.97812,-85.50378 c 7.85393,54.40008 62.92141,89.88859 115.55666,74.47107 24.26138,-7.10648 45.31051,-24.70615 56.45785,-47.20575 5.4571,-11.0145 6.41006,-14.45998 8.19617,-29.6336 2.42044,-20.5626 0.70651,-31.84096 -7.47558,-49.1926 -7.14345,-15.14903 -16.74269,-26.66947 -29.7742,-35.733313 -13.44586,-9.35202 -22.28484,-12.865959 -38.85172,-15.445468 -23.45394,-3.651769 -44.33528,0.718611 -63.37034,13.263353 -30.1189,19.849388 -45.81425,54.321688 -40.73884,89.476308 z"
       id="path1" /><path
       style="fill:#9bece1;fill-opacity:1"
       d="m 325.28368,215.36782 c -3.41967,-0.69874 -5.98307,-3.11737 -6.9505,-6.55797 l -0.2761,-0.98193 -0.0391,-16.35105 -0.0391,-16.35106 -16.22232,-0.002 c -18.31989,-0.002 -17.09663,0.0608 -19.23023,-0.99355 -1.05841,-0.52301 -1.43936,-0.79476 -2.22548,-1.58754 -2.85496,-2.87918 -3.51871,-6.85953 -1.74434,-10.46052 1.32892,-2.69697 3.973,-4.53343 7.03178,-4.88396 0.63769,-0.0731 7.28856,-0.12173 16.72466,-0.12234 l 15.66596,-10e-4 0.04,-16.41287 0.04,-16.41288 0.28225,-0.92389 c 0.7858,-2.57215 2.33674,-4.48073 4.58772,-5.64565 1.38686,-0.71772 2.48395,-0.97289 4.14758,-0.96469 1.58309,0.008 2.55354,0.22532 3.86426,0.86612 2.35807,1.15283 4.0093,3.17377 4.76174,5.82788 l 0.27326,0.96387 0.0357,16.34802 0.0357,16.34801 16.47121,0.0355 c 18.48596,0.0399 16.91599,-0.0411 19.00231,0.98048 0.84761,0.41505 1.26244,0.72735 2.17437,1.63696 1.66395,1.65973 2.38238,3.12442 2.6771,5.4579 0.48603,3.84814 -1.79779,7.72396 -5.45838,9.2633 -1.66638,0.70074 -1.05793,0.67852 -18.64268,0.68085 l -16.22395,0.002 -0.039,16.41288 c -0.0435,18.29035 0.0183,16.99463 -0.90217,18.90843 -1.7547,3.64816 -5.89611,5.72291 -9.82219,4.9207 z"
       id="path2" /><path
       style="fill:#9bece1;stroke-width:0.123363;fill-opacity:1"
       d="M 507.02599,195.92545 V 182.4701 H 480.7225 454.41902 v -19.23878 -19.23879 h 26.30348 26.30349 v -13.45535 c 0,-7.40044 0.0448,-13.45535 0.0996,-13.45535 0.0548,0 11.40296,10.38362 25.21823,23.07471 l 25.11866,23.07471 -25.11991,23.07478 c -13.81596,12.69112 -25.16416,23.07477 -25.21823,23.07477 -0.054,0 -0.0983,-6.05491 -0.0983,-13.45535 z"
       id="path3" /><path
       style="fill:#9bece1;stroke-width:0.123363;fill-opacity:1"
       d="m 143.12656,130.53476 -0.37157,13.45022 26.29346,0.72637 26.29345,0.72637 -0.53128,19.23144 -0.53128,19.23145 -26.29345,-0.72637 -26.29345,-0.72637 -0.37157,13.45022 c -0.20437,7.39762 -0.41636,13.44898 -0.47113,13.44747 -0.0548,-0.002 -11.11187,-10.69455 -24.57141,-23.76231 L 91.80646,161.82369 117.554,139.45139 c 14.16115,-12.30475 25.79177,-22.37106 25.84582,-22.36956 0.054,0.001 -0.069,6.05531 -0.27331,13.45293 z"
       id="path3-0" /></g></svg>
