<?xml version="1.0" encoding="UTF-8" standalone="no"?>
<!-- Created with Inkscape (http://www.inkscape.org/) -->

<svg
   version="1.1"
   id="svg1"
   width="640"
   height="400"
   viewBox="0 0 640 400"
   sodipodi:docname="path.svg"
   inkscape:version="1.3.1 (9b9bdc1480, 2023-11-25, custom)"
   xmlns:inkscape="http://www.inkscape.org/namespaces/inkscape"
   xmlns:sodipodi="http://sodipodi.sourceforge.net/DTD/sodipodi-0.dtd"
   xmlns="http://www.w3.org/2000/svg"
   xmlns:svg="http://www.w3.org/2000/svg">
  <defs
     id="defs1" />
  <sodipodi:namedview
     id="namedview1"
     pagecolor="#ffffff"
     bordercolor="#999999"
     borderopacity="1"
     inkscape:showpageshadow="0"
     inkscape:pageopacity="0"
     inkscape:pagecheckerboard="0"
     inkscape:deskcolor="#d1d1d1"
     showgrid="false"
     inkscape:zoom="0.53079475"
     inkscape:cx="196.87459"
     inkscape:cy="480.41168"
     inkscape:window-width="1864"
     inkscape:window-height="1016"
     inkscape:window-x="56"
     inkscape:window-y="1107"
     inkscape:window-maximized="1"
     inkscape:current-layer="g1" />
  <g
     inkscape:groupmode="layer"
     inkscape:label="Image"
     id="g1">
    <rect
       style="fill:#02886f;fill-opacity:1;stroke-width:1.51181"
       id="rect1"
       width="640"
       height="400"
       x="0"
       y="0" />
    <text
       xml:space="preserve"
       style="font-style:normal;font-weight:normal;font-size:43.3601px;line-height:1.25;font-family:sans-serif;fill:#000000;fill-opacity:1;stroke:none;stroke-width:1.084"
       x="352.51151"
       y="355.53671"
       id="text2"><tspan
         sodipodi:role="line"
         id="tspan2"
         style="stroke-width:1.084"
         x="352.51151"
         y="355.53671" /></text>
    <g
       id="g3"
       transform="matrix(0.79777961,0,0,0.79777961,127.07762,81.430393)">
      <g
         id="g2">
        <text
           xml:space="preserve"
           style="font-style:normal;font-weight:normal;font-size:70.9094px;line-height:1.25;font-family:sans-serif;fill:#9bece1;fill-opacity:1;stroke:none;stroke-width:1.77275"
           x="323.3851"
           y="356.51309"
           id="text3149-3-0"><tspan
             sodipodi:role="line"
             id="tspan3147-0-4"
             style="font-style:normal;font-variant:normal;font-weight:normal;font-stretch:normal;font-family:Manjari;-inkscape-font-specification:Manjari;fill:#9bece1;fill-opacity:1;stroke-width:1.77275"
             x="323.3851"
             y="356.51309">GE </tspan></text>
        <text
           xml:space="preserve"
           style="font-style:normal;font-weight:normal;font-size:70.9094px;line-height:1.25;font-family:sans-serif;fill:#9bece1;fill-opacity:1;stroke:none;stroke-width:1.77275"
           x="501.70108"
           y="356.23615"
           id="text3149-3-0-9"><tspan
             sodipodi:role="line"
             id="tspan3147-0-4-7"
             style="font-style:normal;font-variant:normal;font-weight:normal;font-stretch:normal;font-family:Manjari;-inkscape-font-specification:Manjari;fill:#9bece1;fill-opacity:1;stroke-width:1.77275"
             x="501.70108"
             y="356.23615">VIZ</tspan></text>
        <text
           xml:space="preserve"
           style="font-style:normal;font-weight:normal;font-size:29.9417px;line-height:1.25;font-family:sans-serif;fill:#9bece1;fill-opacity:1;stroke:none;stroke-width:0.748542"
           x="445.66852"
           y="342.48007"
           id="text13773"><tspan
             sodipodi:role="line"
             id="tspan13771"
             style="font-style:normal;font-variant:normal;font-weight:normal;font-stretch:normal;font-family:Manjari;-inkscape-font-specification:Manjari;fill:#9bece1;fill-opacity:1;stroke-width:0.748542"
             x="445.66852"
             y="342.48007">JS</tspan></text>
      </g>
      <circle
         style="display:inline;fill:none;fill-opacity:1;stroke:#9bece1;stroke-width:4.05837;stroke-dasharray:none;stroke-opacity:1;stop-color:#000000"
         id="path19588-6"
         cx="460.9472"
         cy="332.74384"
         r="34.976864" />
    </g>
    <g
       id="g190"
       transform="matrix(1.7635704,0,0,1.1438786,-420.95648,-627.45635)">
      <path
         style="fill:#ddecea;fill-opacity:1;stroke:none;stroke-width:1.42087"
         d="m 474.44934,725.87997 0.91426,0.52573 -0.79362,1.42528 -0.22236,1.526 -1.58843,1.37065 -1.57897,-0.9388 -0.11118,-1.82641 1.22178,-1.22045 1.12597,-0.48477 z"
         id="path190" />
      <path
         style="fill:#ddecea;fill-opacity:1;stroke:none;stroke-width:1.42087"
         d="m 384.43155,712.29458 0.31935,-0.53085 0.49085,0.11262 -0.1656,1.02586 -0.26729,0.0136 z"
         id="path159" />
      <path
         style="fill:#ddecea;fill-opacity:1;stroke:none;stroke-width:1.42087"
         d="m 495.72461,796.04641 0.39976,-0.7886 0.97814,-0.33285 -0.343,1.2068 z"
         id="path158" />
      <path
         style="fill:#ddecea;fill-opacity:1;stroke:none;stroke-width:1.42087"
         d="m 492.43894,713.86153 0.28385,0.99002 -0.40449,3.87642 -0.80191,2.91201 -0.78653,0.11782 -0.88114,-2.98369 0.21289,-1.47991 1.42994,-3.02295 z"
         id="path147" />
      <path
         style="fill:#ddecea;fill-opacity:1;stroke:none;stroke-width:1.42087"
         d="m 553.15294,791.64255 2.70613,1.64206 0.007,1.00879 -2.28033,-1.52086 z"
         id="path144" />
      <path
         style="fill:#ddecea;fill-opacity:1;stroke:none;stroke-width:1.42087"
         d="m 556.77452,793.47408 0.67299,0.49159 0.2803,2.23607 -0.84211,-0.84663 z"
         id="path143" />
      <path
         style="fill:#ddecea;fill-opacity:1;stroke:none;stroke-width:1.42087"
         d="m 554.83127,795.88937 0.77706,-0.35333 1.14372,0.89272 0.22354,0.94563 -0.85513,0.17582 -0.93083,-0.67424 z"
         id="path142" />
      <path
         style="fill:#ddecea;fill-opacity:1;stroke:none;stroke-width:1.42087"
         d="m 558.23758,797.45804 0.69427,0.99 -0.32644,0.63328 -0.74395,-0.43868 -0.25783,-0.85517 z"
         id="path141" />
      <path
         style="fill:#ddecea;fill-opacity:1;stroke:none;stroke-width:1.42087"
         d="m 540.7471,780.08498 1.79068,0.79713 1.49145,2.34531 -0.23656,1.92542 -0.41277,-1.95443 -1.042,-1.4526 -1.29157,-0.69812 z"
         id="path139" />
      <path
         style="fill:#ddecea;fill-opacity:1;stroke:none;stroke-width:1.42087"
         d="m 542.701,783.59271 -0.22118,2.99906 -1.48198,1.62498 -2.57366,0.37553 -2.0426,-1.24264 0.0722,-0.78347 2.78182,0.20483 2.58194,-1.68815 -0.25428,-1.52258 z"
         id="path138" />
      <path
         style="fill:#ddecea;fill-opacity:1;stroke:none;stroke-width:1.42087"
         d="m 546.93524,786.65834 1.8167,2.45114 -0.32644,0.84151 -1.58015,-2.19169 z"
         id="path137" />
      <path
         style="fill:#ddecea;fill-opacity:1;stroke:none;stroke-width:1.42087"
         d="m 491.24436,729.64032 1.86992,0.0512 0.79126,3.44969 -0.48729,1.82812 -1.07512,0.91832 -0.32644,1.47819 0.57955,2.6389 0.95212,0.33798 0.26256,-0.69472 1.39564,0.41136 1.0704,1.04976 -0.55708,0.52061 1.32231,1.43552 -1.43349,0.20654 -0.9261,-1.42016 -0.51094,0.4455 -1.40866,-1.07706 -0.66234,0.0615 -1.31758,-0.36528 0.007,-1.38773 -0.90716,-0.96612 -0.43999,-3.70743 0.79955,0.82956 0.0567,-3.64768 z"
         id="path136" />
      <path
         style="fill:#ddecea;fill-opacity:1;stroke:none;stroke-width:1.42087"
         d="m 491.67961,741.94552 0.94975,1.40821 -0.83266,1.34676 -1.45951,-3.09123 z"
         id="path135" />
      <path
         style="fill:#ddecea;fill-opacity:1;stroke:none;stroke-width:1.42087"
         d="m 497.83227,743.87605 0.95447,0.74421 0.10764,2.32483 -0.52396,0.4165 -1.59435,-3.41555 z"
         id="path134" />
      <path
         style="fill:#ddecea;fill-opacity:1;stroke:none;stroke-width:1.42087"
         d="m 493.52943,745.77415 1.55531,0.24238 -0.90481,2.56209 -1.22531,0.3448 z"
         id="path133" />
      <path
         style="fill:#ddecea;fill-opacity:1;stroke:none;stroke-width:1.42087"
         d="m 497.05047,746.52008 0.88824,0.15532 0.40332,2.67304 -0.73803,0.24238 z"
         id="path132" />
      <path
         style="fill:#ddecea;fill-opacity:1;stroke:none;stroke-width:1.42087"
         d="m 489.45131,746.4552 0.25666,1.98175 -1.61564,1.95783 -0.62567,1.4304 -2.31818,2.07391 2.66828,-4.40898 0.66115,-0.88589 z"
         id="path131" />
      <path
         style="fill:#ddecea;fill-opacity:1;stroke:none;stroke-width:1.42087"
         d="m 496.3219,747.39743 0.24956,1.92029 -1.01243,1.32286 z"
         id="path130" />
      <path
         style="fill:#ddecea;fill-opacity:1;stroke:none;stroke-width:1.42087"
         d="m 495.12259,747.63298 0.50267,0.36017 -0.8918,4.24511 -1.04791,-1.89981 0.79481,-0.6674 z"
         id="path129" />
      <path
         style="fill:#ddecea;fill-opacity:1;stroke:none;stroke-width:1.42087"
         d="m 499.02211,750.87272 1.07275,0.4933 0.27322,2.78058 0.24246,2.25996 -0.66471,2.318 -0.48847,-1.84689 -0.85394,0.73398 0.52159,1.46795 -0.52396,1.36384 -1.0349,-0.0137 -1.49382,-1.89638 -0.0981,-2.77546 -0.94147,0.5411 -1.09996,-0.28506 -0.99941,1.09925 0.58308,-2.4443 2.40926,-1.41675 0.63514,0.50866 1.04437,-1.31944 1.22414,-0.18265 z"
         id="path128" />
      <path
         style="fill:#ddecea;fill-opacity:1;stroke:none;stroke-width:1.42087"
         d="m 330.64254,583.09596 6.58317,1.24776 -5.08699,1.5789 -3.42288,0.14851 -5.53763,-2.31117 z"
         id="path125" />
      <path
         style="fill:#ddecea;fill-opacity:1;stroke:none;stroke-width:1.42087"
         d="m 320.25683,584.29422 6.88714,2.60988 -3.31761,0.73056 -3.58609,4.50458 -5.07754,-2.84715 -4.94625,-4.25194 6.30878,-0.5923 2.95569,2.1217 z"
         id="path124" />
      <path
         style="fill:#ddecea;fill-opacity:1;stroke:none;stroke-width:1.42087"
         d="m 330.16353,587.87876 1.59552,0.69301 -2.28506,2.27362 -2.47905,-0.78178 -0.93792,-1.93394 2.50861,-0.83639 z"
         id="path123" />
      <path
         style="fill:#ddecea;fill-opacity:1;stroke:none;stroke-width:1.42087"
         d="m 373.69693,802.32106 0.96986,2.23606 0.88943,5.71307 -0.41633,1.25117 -0.97222,-1.01049 0.34654,2.38798 -0.57717,2.95126 -2.62334,11.10524 -1.27263,5.81549 -3.26912,1.53963 -1.81907,-1.38601 -0.52869,-1.40651 0.084,-2.25654 -0.87523,-2.89324 0.46364,-2.19169 1.59671,-3.31143 -0.88115,-5.82401 1.49736,-2.91714 2.2413,-1.22897 1.23598,-1.2051 2.91784,-4.23657 0.38912,-2.55527 z"
         id="path122" />
      <path
         style="fill:#ddecea;fill-opacity:1;stroke:none;stroke-width:1.42087"
         d="m 424.71596,750.64228 1.57069,2.90689 0.84567,2.73791 -0.32645,2.05171 -1.79186,1.27508 -1.19575,-2.09439 -0.38085,-5.50312 z"
         id="path121" />
      <path
         style="fill:#ddecea;fill-opacity:1;stroke:none;stroke-width:1.42087"
         d="m 525.92017,665.89533 1.53521,-0.58718 1.27499,3.76888 2.80312,0.13314 -0.12063,1.79227 -2.83033,1.51745 -0.67771,1.72911 -2.53937,-1.11803 -1.41101,0.47623 0.32881,1.2324 -1.33414,0.6674 -0.54525,-2.99223 2.12185,-1.13169 z"
         id="path120" />
      <path
         style="fill:#ddecea;fill-opacity:1;stroke:none;stroke-width:1.42087"
         d="m 524.70193,675.62136 1.30339,4.29803 -1.5967,2.77034 -0.0922,2.35725 -0.78416,2.59453 0.45535,1.2819 -1.50327,1.97832 -0.23654,-0.96441 -2.57248,1.42698 -2.23421,-0.0648 -1.22296,2.25143 -1.51984,-0.13314 0.37494,-1.68814 -1.69725,-0.43015 -1.65584,0.86882 -3.82147,0.76299 -0.0449,-0.83467 3.40277,-2.84033 2.49796,-0.31578 1.96928,0.49331 1.50918,-4.15466 0.92965,-0.59742 0.26138,1.29044 1.29866,-0.46599 1.95035,-2.33678 1.01243,-3.16634 -0.31461,-2.57233 1.13189,-1.13681 z"
         id="path119" />
      <path
         style="fill:#ddecea;fill-opacity:1;stroke:none;stroke-width:1.42087"
         d="m 513.0152,692.19387 1.17921,0.52915 -1.13308,2.11317 -1.07394,-0.45234 -1.15908,1.31092 -0.73805,-1.37578 0.73923,-1.23582 1.11651,0.0529 z"
         id="path118" />
      <path
         style="fill:#ddecea;fill-opacity:1;stroke:none;stroke-width:1.42087"
         d="m 507.78982,693.56283 1.23006,0.48647 0.48611,1.5567 -1.12952,3.67672 -1.1177,0.87565 -0.71557,-0.57694 -0.0698,-2.00735 0.4116,-0.67764 -0.34418,-1.07707 -0.63395,0.32943 -0.44472,-1.22556 z"
         id="path117" />
      <path
         style="fill:#ddecea;fill-opacity:1;stroke:none;stroke-width:1.42087"
         d="m 445.05095,742.09403 0.45417,-1.51063 0.44708,0.95928 -0.5689,2.43578 -0.44945,2.88812 -0.25783,-1.04464 -0.0308,-1.04464 z"
         id="path114" />
      <path
         style="fill:#ddecea;fill-opacity:1;stroke:none;stroke-width:1.42087"
         d="m 449.50991,760.37003 1.02426,0.76641 2.25077,0.0717 1.3294,2.77715 2.37378,2.13195 1.3306,2.42724 0.80426,-0.31919 1.75402,2.1456 0.56771,1.45259 2.12896,1.26653 -0.68127,2.2173 1.69488,0.79712 0.83147,2.97005 1.21705,0.27824 0.73803,2.02269 -0.47782,6.10055 -0.42934,0.14337 -0.66353,-0.77835 -0.94501,0.6674 -1.39564,-2.11145 -2.26615,-2.27533 -1.98465,-3.33021 -1.31877,-4.19732 -1.13544,-2.16949 -0.77351,-0.4148 -0.99351,-3.94298 -1.44058,-1.12657 -0.0911,-1.07707 -3.57426,-4.64965 -0.55708,-1.3331 z"
         id="path113" />
      <path
         style="fill:#ddecea;fill-opacity:1;stroke:none;stroke-width:1.42087"
         d="m 503.17474,769.11631 -0.51095,1.79397 1.48909,-1.14364 0.55351,0.59571 -1.38618,1.66425 1.87348,0.28848 -0.23182,1.1334 -1.68069,0.13825 0.65643,1.72058 -0.35718,0.89272 -1.57307,-1.72741 -0.41277,-1.81616 0.002,-1.79397 0.7333,-2.49723 z"
         id="path112" />
      <path
         style="fill:#ddecea;fill-opacity:1;stroke:none;stroke-width:1.42087"
         d="m 498.06645,769.68813 0.53697,0.62985 -1.75283,2.39481 -2.04971,-0.27823 -3.7978,0.53768 -0.50503,1.50891 0.36429,2.48358 1.35424,-1.26995 2.88945,-0.8381 1.32823,0.19971 -0.66944,1.03098 -2.12066,0.67936 -1.11297,1.41503 1.01835,2.4153 -0.18333,1.49355 1.16027,1.51575 -2.33592,1.09073 0.23418,-1.35017 -1.20522,-1.29898 0.30633,-1.84859 -1.1378,1.08048 -0.10526,5.43996 -1.59435,-0.36528 0.44945,-2.46821 -0.54052,-2.10122 -0.87642,-0.79885 0.94028,-2.65767 -0.013,-1.79056 0.66589,-1.37748 0.54052,-3.26364 0.46009,-0.80909 0.92964,-0.63838 0.9391,0.55133 3.7777,0.38577 z"
         id="path111" />
      <path
         style="fill:#ddecea;fill-opacity:1;stroke:none;stroke-width:1.42087"
         d="m 452.64892,769.58058 0.86341,1.73936 -0.38676,0.97977 -1.16501,-2.23607 z"
         id="path110" />
      <path
         style="fill:#ddecea;fill-opacity:1;stroke:none;stroke-width:1.42087"
         d="m 524.20637,779.82382 0.005,10.1835 -10e-4,5.23854 -1.71499,-2.36409 -1.79778,0.07 0.4187,-1.37066 -1.6724,-5.07466 -3.45719,-2.13366 -1.22059,-0.13826 -2.19518,-1.55501 -1.51392,0.72715 -0.0615,-1.32287 -1.19931,-2.08073 1.16501,-0.75276 -1.37671,-0.60083 -0.43053,-1.38602 -1.39801,-0.17753 0.46483,-1.48502 2.40807,-1.08901 2.08281,0.86029 0.79955,5.07126 1.65348,1.18802 1.53402,-2.71059 1.3507,-0.34479 0.93319,-1.39968 3.40158,2.10463 z m 0.004,15.42204 10e-4,-5.23854 -0.005,-10.1835 5.0113,2.04489 2.9344,3.31314 -0.13839,1.3314 2.82796,1.27849 0.66589,1.72911 -1.44059,0.11782 0.34654,1.71204 1.52101,1.40481 0.73094,2.31628 0.95685,-0.13825 0.13956,1.21533 1.36253,0.54108 -0.19161,0.82274 1.23834,1.17266 -4.46133,-0.92515 -1.51864,-1.67449 -1.59908,-3.25511 -3.48674,-0.2731 -1.6038,0.86199 0.69782,1.48503 -1.23598,0.87394 z"
         id="path109" />
      <path
         style="fill:#ddecea;fill-opacity:1;stroke:none;stroke-width:1.42087"
         d="m 455.0298,775.52921 0.6647,1.24434 0.30396,0.97978 -0.52159,0.19459 -0.59729,-0.69813 -0.58546,-1.13852 0.14903,-0.72885 z"
         id="path108" />
      <path
         style="fill:#ddecea;fill-opacity:1;stroke:none;stroke-width:1.42087"
         d="m 466.54976,777.18834 0.93673,1.95955 0.78654,0.71007 -0.11947,0.6657 -0.86931,0.39601 -0.27794,-0.78519 -0.56891,-1.26824 -1.09286,-0.23726 -0.18096,-1.06853 0.5216,0.007 z"
         id="path107" />
      <path
         style="fill:#ddecea;fill-opacity:1;stroke:none;stroke-width:1.42087"
         d="m 515.17608,777.42731 -0.27084,-1.09926 1.29392,0.41649 1.47371,-0.1485 -0.0201,1.03097 -1.33887,0.0734 z"
         id="path106" />
      <path
         style="fill:#ddecea;fill-opacity:1;stroke:none;stroke-width:1.42087"
         d="m 497.1924,777.53655 4.40692,-0.07 -0.44945,1.04292 -4.1609,-0.10067 z"
         id="path105" />
      <path
         style="fill:#ddecea;fill-opacity:1;stroke:none;stroke-width:1.42087"
         d="m 469.78931,779.70264 0.63632,0.40454 0.10053,0.75787 -0.63987,0.40454 -0.76287,-0.37894 -0.0189,-0.90637 z"
         id="path104" />
      <path
         style="fill:#ddecea;fill-opacity:1;stroke:none;stroke-width:1.42087"
         d="m 504.70403,780.42808 3.28449,1.25117 -0.42815,1.14193 -1.53403,-0.78861 -1.44886,-0.30553 -1.47134,0.0802 -0.55708,-1.16753 z"
         id="path103" />
      <path
         style="fill:#ddecea;fill-opacity:1;stroke:none;stroke-width:1.42087"
         d="m 501.36986,781.20813 0.28032,0.99855 -0.8232,0.60084 -1.03017,-0.24409 -0.20225,-1.20508 0.8362,-0.56158 z"
         id="path102" />
      <path
         style="fill:#ddecea;fill-opacity:1;stroke:none;stroke-width:1.42087"
         d="m 513.70356,786.51838 0.90599,-0.3192 0.10526,2.01587 -0.15021,1.22557 -1.1449,0.38406 0.14548,-1.61133 z"
         id="path101" />
      <path
         style="fill:#ddecea;fill-opacity:1;stroke:none;stroke-width:1.42087"
         d="m 467.01458,787.90439 1.961,0.1724 1.79895,0.68277 0.90718,1.01903 2.41871,0.34821 0.94148,-0.89783 2.55946,0.79712 1.01598,1.67792 2.04497,0.51889 -0.17859,1.37066 0.39266,0.86883 -2.29925,-1.18119 -0.86222,0.40283 -3.60739,-0.79543 -2.00949,-0.90637 -1.52219,0.20824 -2.96397,-0.9627 0.0237,-1.01562 -1.78004,-0.41308 -0.18569,-0.7647 z"
         id="path100" />
      <path
         style="fill:#ddecea;fill-opacity:1;stroke:none;stroke-width:1.42087"
         d="m 481.53872,789.99367 -0.55943,0.72544 -1.82498,0.0887 -0.83265,-0.77495 z"
         id="path99" />
      <path
         style="fill:#ddecea;fill-opacity:1;stroke:none;stroke-width:1.42087"
         d="m 520.18148,792.98932 -1.80606,0.72373 -0.31935,-1.64377 0.81374,-1.14364 1.33887,-0.36527 0.4317,1.09925 z"
         id="path98" />
      <path
         style="fill:#ddecea;fill-opacity:1;stroke:none;stroke-width:1.42087"
         d="m 482.3501,792.98248 0.67298,0.66741 -0.60675,0.50525 -0.75459,-0.26628 -0.5417,-0.49671 0.0261,-0.37382 z"
         id="path97" />
      <path
         style="fill:#ddecea;fill-opacity:1;stroke:none;stroke-width:1.42087"
         d="m 496.38695,792.52332 -0.002,0.50354 -1.71735,0.67595 -0.30396,0.36869 -2.22594,0.8893 -2.51806,-0.27311 -0.29333,-1.06341 0.7747,-0.30553 2.18927,0.14849 z"
         id="path96" />
      <path
         style="fill:#ddecea;fill-opacity:1;stroke:none;stroke-width:1.42087"
         d="m 486.41875,792.8613 1.67122,0.49499 0.0863,0.7613 -1.17801,0.0836 -1.43113,0.38577 -0.7818,-0.21848 0.27322,-1.04122 z"
         id="path95" />
      <path
         style="fill:#ddecea;fill-opacity:1;stroke:none;stroke-width:1.42087"
         d="m 484.53108,793.35801 -0.3844,1.26654 -0.86813,-0.23044 0.30042,-1.12657 z"
         id="path94" />
      <path
         style="fill:#ddecea;fill-opacity:1;stroke:none;stroke-width:1.42087"
         d="m 498.06645,796.14711 -1.05737,1.60622 -2.06863,0.87907 -0.27913,-1.40993 1.06329,-1.17606 1.0349,0.0854 0.343,-1.2068 0.65051,-0.2458 z m 0,0 -0.31343,-1.46795 0.44945,-0.55816 2.89536,-1.21533 1.40038,0.43185 -2.02368,1.10267 z"
         id="path93" />
      <path
         style="fill:#ddecea;fill-opacity:1;stroke:none;stroke-width:1.42087"
         d="m 489.77066,795.84158 1.4666,0.49501 0.77825,0.97465 -1.18157,0.41819 -1.19457,-0.6657 -1.62628,-0.7169 z"
         id="path92" />
      <path
         style="fill:#ddecea;fill-opacity:1;stroke:none;stroke-width:1.42087"
         d="m 331.0565,681.15179 1.49736,1.02586 -0.0804,0.71009 -1.85928,-1.22899 z"
         id="path88" />
      <path
         style="fill:#ddecea;fill-opacity:1;stroke:none;stroke-width:1.42087"
         d="m 331.88915,689.43378 3.06451,0.45233 0.77943,0.70325 -2.4684,0.25604 -2.00476,-0.86029 z"
         id="path87" />
      <path
         style="fill:#ddecea;fill-opacity:1;stroke:none;stroke-width:1.42087"
         d="m 287.12687,634.61086 -1.19812,1.67962 3.80726,1.1129 -2.33001,3.35582 2.54172,1.12144 3.22063,5.92472 2.36786,1.42358 -1.30457,1.56696 0.62449,1.64546 -1.78477,0.90809 -2.12184,-0.22702 -4.06393,0.69984 -0.2472,0.76299 -2.94504,0.0751 3.1189,-2.85397 -2.87407,-1.22899 1.79423,-0.85858 0.0745,-2.24972 1.58725,-0.35334 0.63987,-1.77348 -3.90189,-2.0944 0.90835,-1.15389 -1.50328,-1.36212 -1.06801,-1.99538 0.61739,-2.21047 1.34597,-1.85883 z"
         id="path86" />
      <path
         style="fill:#ddecea;fill-opacity:1;stroke:none;stroke-width:1.42087"
         d="m 282.32728,645.40715 -2.63989,-0.99515 1.0349,-1.30749 1.88175,-0.33969 0.92727,1.31605 z m -1.60499,-2.30264 -1.0349,1.30749 2.63989,0.99515 0.44826,2.68499 -1.1378,2.37432 -3.29632,0.91832 -2.76882,-0.71349 0.47665,-1.60451 0.87287,-1.40479 -1.01243,-0.62986 0.54643,-2.17291 2.25668,0.1246 0.31461,-2.0961 z"
         id="path85" />
      <path
         style="fill:#ddecea;fill-opacity:1;stroke:none;stroke-width:1.42087"
         d="m 346.86038,691.69886 -0.70846,-0.25775 -0.33354,-0.58034 0.33354,-0.67253 0.70018,-0.0529 0.12064,-0.47964 0.92964,0.1246 1.3779,-0.6674 -0.95447,1.19996 -10e-4,10e-4 0.20816,0.52403 -0.61503,0.31748 -0.21998,0.42674 z"
         id="path79" />
      <path
         style="fill:#ddecea;fill-opacity:1;stroke:none;stroke-width:1.42087"
         d="m 479.89352,762.74949 1.82735,-0.92174 0.81373,0.81762 -1.67596,1.47989 z m 5.86171,1.04804 -2.83032,-0.5445 -0.62449,3.21925 -1.12598,1.85883 -0.45654,1.922 -1.39801,0.48136 -1.02898,-0.72032 -1.38501,0.20824 -0.58664,1.04463 -2.08519,0.37212 -1.16736,-1.30751 -0.32527,-1.61304 0.93556,1.01391 1.53284,-0.63839 0.4802,-1.79056 2.57485,-1.14022 1.62863,-3.41384 0.96512,1.37577 1.67596,-1.47989 -0.81373,-0.81762 1.21114,-1.35017 1.52574,-3.47871 1.58725,1.51063 0.0497,1.14192 1.04555,0.26628 1.40747,1.40992 -1.13899,0.72031 0.11709,1.07538 z m 0,0 -0.1987,1.71717 1.05973,2.78057 -0.3761,0.89102 1.87346,2.18998 -1.95745,0.35675 -0.60792,3.16975 -1.74456,2.94102 0.36783,1.08731 -1.04318,3.28241 -2.207,1.3314 -0.14785,-1.05487 -1.48198,-0.63668 -0.8433,-0.51891 -0.82319,0.44038 -1.30812,0.28848 -0.77944,-1.18973 -1.78121,-0.0972 -0.55944,-4.50114 -1.06685,-0.59402 0.0449,-2.0483 -0.73094,-1.9476 0.39504,-1.7274 0.90243,-1.23923 0.32527,1.61304 1.16736,1.30751 2.08519,-0.37212 0.58664,-1.04463 1.38501,-0.20824 1.02898,0.72032 1.39801,-0.48136 0.45654,-1.922 1.12598,-1.85883 0.62449,-3.21925 z"
         id="path73" />
      <path
         style="fill:#ddecea;fill-opacity:1;stroke:none;stroke-width:1.42087"
         d="m 506.56804,799.96038 1.68661,-0.24921 0.9935,1.15047 -1.44887,0.86028 -1.67477,-0.2953 z"
         id="path71" />
      <path
         style="fill:#ddecea;fill-opacity:1;stroke:none;stroke-width:1.42087"
         d="m 451.12909,580.11909 3.23127,1.65912 -9.03383,1.70011 z"
         id="path57" />
      <path
         style="fill:#ddecea;fill-opacity:1;stroke:none;stroke-width:1.42087"
         d="m 372.83826,582.07181 4.71798,0.32431 5.34957,-0.24409 3.52459,-0.40282 3.80727,-0.0375 -8.1787,3.80302 -4.44832,0.64522 -3.01719,-1.09415 z"
         id="path56" />
      <path
         style="fill:#ddecea;fill-opacity:1;stroke:none;stroke-width:1.42087"
         d="m 453.24148,583.68827 4.14316,1.20338 -1.38381,2.60134 -7.52937,-0.15704 -2.61269,-2.27532 z"
         id="path55" />
      <path
         style="fill:#ddecea;fill-opacity:1;stroke:none;stroke-width:1.42087"
         d="m 461.70996,585.71779 3.08223,1.42016 -9.71863,2.65597 3.97522,-3.98907 z"
         id="path54" />
      <path
         style="fill:#ddecea;fill-opacity:1;stroke:none;stroke-width:1.42087"
         d="m 402.92855,593.23507 -9.47262,1.82641 -3.67007,2.10976 -1.09877,0.62473 -2.27916,1.46624 -2.43646,2.86251 0.82083,2.59794 2.51807,1.25459 -4.06747,0.4182 -3.24428,-0.65888 -1.57779,-2.02099 2.30636,-4.92106 8.70621,-4.99787 6.61275,-0.80395 4.22477,-0.88932 1.84864,0.12462 z"
         id="path53" />
      <path
         style="fill:#ddecea;fill-opacity:1;stroke:none;stroke-width:1.42087"
         d="m 521.14305,593.25385 3.70792,-0.19971 6.59382,1.58574 -2.74872,1.33822 -7.16862,0.61619 -3.60503,-1.05828 -0.13365,-1.40309 z"
         id="path52" />
      <path
         style="fill:#ddecea;fill-opacity:1;stroke:none;stroke-width:1.42087"
         d="m 533.66007,594.6962 5.75644,0.21679 4.59615,0.17239 -7.98237,1.2341 z"
         id="path51" />
      <path
         style="fill:#ddecea;fill-opacity:1;stroke:none;stroke-width:1.42087"
         d="m 527.57365,597.54165 2.43882,0.40965 -1.80723,1.8247 -4.78895,-0.33114 z"
         id="path50" />
      <path
         style="fill:#ddecea;fill-opacity:1;stroke:none;stroke-width:1.42087"
         d="m 375.73244,609.29209 -1.82025,1.66254 -1.68304,0.0324 -0.1029,-1.84176 1.67831,-1.52088 1.67478,0.37724 z"
         id="path48" />
      <path
         style="fill:#ddecea;fill-opacity:1;stroke:none;stroke-width:1.42087"
         d="m 527.69784,644.68341 0.87405,3.71426 -0.34418,2.03294 1.73745,6.37877 -2.00712,-0.2492 -0.83147,3.1834 1.35779,3.56235 -1.41693,-0.5155 -0.2117,1.67279 -0.8102,0.37211 -0.44707,-1.65914 0.60675,-3.2346 -0.1857,-2.06197 0.74988,-5.58163 -0.70493,-1.76495 0.071,-3.70916 0.73922,-0.37381 0.27203,-1.2341 z"
         id="path46" />
      <path
         style="fill:#ddecea;fill-opacity:1;stroke:none;stroke-width:1.42087"
         d="m 384.20092,822.44055 0.4802,0.11782 0.23063,0.38747 -0.0734,0.42673 -0.58901,-0.0614 -0.30041,-0.28336 -0.0591,-0.40624 z"
         id="path45" />
      <path
         style="fill:#ddecea;fill-opacity:1;stroke:none;stroke-width:1.42087"
         d="m 308.13129,672.25702 0.0308,1.81446 -0.13366,1.36384 -0.34299,0.046 -0.45654,-0.38917 -0.4045,-1.60451 0.17268,-0.68106 0.68245,-0.21506 0.032,-0.43528 z"
         id="path42" />
      <path
         style="fill:#ddecea;fill-opacity:1;stroke:none;stroke-width:1.42087"
         d="m 383.77513,784.38301 0.23537,0.29871 0.0852,0.83639 -0.30042,-0.1741 -0.24365,-0.55646 z"
         id="path37" />
      <path
         style="fill:#ddecea;fill-opacity:1;stroke:none;stroke-width:1.42087"
         d="m 303.60847,773.48944 -0.32053,-0.11096 -0.15376,-0.38576 0.0887,-0.40626 0.343,-0.18093 0.41396,0.13314 0.0686,0.43014 -0.16085,0.32262 z"
         id="path36" />
      <path
         style="fill:#ddecea;fill-opacity:1;stroke:none;stroke-width:1.42087"
         d="m 463.92406,770.40844 -0.1916,0.31578 -0.43407,0.0853 -0.42935,-0.1724 -0.29095,-0.41136 z"
         id="path35" />
      <path
         style="fill:#ddecea;fill-opacity:1;stroke:none;stroke-width:1.42087"
         d="m 513.83012,755.66234 0.14547,-0.49671 0.28032,-0.40283 -0.0544,0.62303 -0.23419,0.7664 -0.47309,0.82615 -0.27085,0.12119 0.21644,-0.75446 z"
         id="path34" />
      <path
         style="fill:#ddecea;fill-opacity:1;stroke:none;stroke-width:1.42087"
         d="m 566.99228,774.97276 -0.12182,0.0547 -0.11591,-0.0409 -0.0438,-0.11439 0.0532,-0.10919 0.10408,-0.0342 0.11354,0.0409 0.0308,0.10067 z"
         id="path33" />
      <path
         style="fill:#ddecea;fill-opacity:1;stroke:none;stroke-width:1.42087"
         d="m 387.43337,821.30031 0.14785,0.44722 -0.21644,0.46257 -0.50504,-0.0478 -0.0958,-0.47794 0.27794,-0.35162 z"
         id="path32" />
      <path
         style="fill:#ddecea;fill-opacity:1;stroke:none;stroke-width:1.42087"
         d="m 316.52171,688.89268 -0.52988,-0.0239 -0.20697,-0.53427 0.33708,-0.39942 0.63986,0.40284 z"
         id="path31" />
      <path
         style="fill:#ddecea;fill-opacity:1;stroke:none;stroke-width:1.42087"
         d="m 573.6133,756.71893 0.1987,0.10588 0.40451,-0.007 0.0981,-0.15021 -0.1029,-0.25263 0.21053,0.18776 -0.0225,0.17923 -0.12892,0.12802 -0.49794,0.0563 -0.32643,-0.1229 -0.0875,-0.40453 z"
         id="path30" />
      <path
         style="fill:#ddecea;fill-opacity:1;stroke:none;stroke-width:1.42087"
         d="m 289.14109,656.88108 0.28504,0.0853 -0.0261,0.18264 -0.44234,-0.0939 z"
         id="path26" />
      <path
         style="fill:#ddecea;fill-opacity:1;stroke:none;stroke-width:1.42087"
         d="m 307.60616,675.88082 0.39976,-0.0768 0.76287,1.79397 -0.44116,3.27046 -1.15791,0.62132 -0.79126,-0.83639 0.10172,-1.69668 -0.3288,-2.28557 z"
         id="path25" />
      <path
         style="fill:#ddecea;fill-opacity:1;stroke:none;stroke-width:1.42087"
         d="m 318.34314,682.56854 v 1.02244 l -0.87878,1.39286 0.32289,0.55815 -0.39859,1.2068 -4.34778,-2.72595 0.54762,-0.88078 2.14905,0.30213 z"
         id="path24" />
      <path
         style="fill:#ddecea;fill-opacity:1;stroke:none;stroke-width:1.42087"
         d="m 285.06179,645.4225 0.12183,-0.65204 0.35956,0.18776 -0.24602,0.67423 z"
         id="path23" />
      <path
         style="fill:#ddecea;fill-opacity:1;stroke:none;stroke-width:1.42087"
         d="m 288.50122,656.50897 -0.40213,-0.0256 0.16204,-0.14679 0.28267,-0.1229 z"
         id="path21" />
      <path
         style="fill:#ddecea;fill-opacity:1;stroke:none;stroke-width:1.42087"
         d="m 552.27771,757.10811 0.2259,-0.38065 0.46364,-0.0239 0.0757,0.40796 -0.15731,0.49331 -0.44235,0.11604 -0.25192,-0.27311 z"
         id="path20" />
      <path
         style="fill:#ddecea;fill-opacity:1;stroke:none;stroke-width:1.42087"
         d="m 280.44789,626.34424 1.34597,-1.02244 0.38912,0.67593 -0.69546,2.05001 z"
         id="path19" />
      <path
         style="fill:#ddecea;fill-opacity:1;stroke:none;stroke-width:1.42087"
         d="m 297.89106,679.11032 0.62213,0.49841 -0.75696,0.77325 -0.74631,-0.80226 z"
         id="path18" />
      <path
         style="fill:#ddecea;fill-opacity:1;stroke:none;stroke-width:1.42087"
         d="m 266.12244,705.85608 0.22355,0.5701 -0.1242,0.52573 -0.30396,0.35675 -0.57245,0.0409 -0.43762,-0.34308 -0.0698,-0.57012 0.15021,-0.57694 0.57245,-0.2236 z"
         id="path17" />
      <path
         style="fill:#ddecea;fill-opacity:1;stroke:none;stroke-width:1.42087"
         d="m 312.26264,640.92648 0.68717,1.42868 -0.22,1.11121 -0.90716,0.53257 -0.27439,-0.78519 -0.78063,-0.16557 -0.66352,-1.13682 0.87997,-0.91661 z"
         id="path16" />
      <path
         style="fill:#ddecea;fill-opacity:1;stroke:none;stroke-width:1.42087"
         d="m 364.6844,802.57538 -0.67772,-0.32943 -0.31225,-0.57011 -0.065,-1.10608 0.49085,-0.0648 0.57245,1.36895 z"
         id="path13" />
      <path
         style="fill:#ddecea;fill-opacity:1;stroke:none;stroke-width:1.42087"
         d="m 375.44504,710.59961 0.90243,-0.0648 -0.37256,1.68473 -0.59729,-0.28334 z"
         id="path9" />
      <path
         style="fill:#ddecea;fill-opacity:1;stroke:none;stroke-width:1.42087"
         d="m 413.15578,765.29962 0.37848,-0.0358 0.18923,0.22872 0.0769,0.3431 -0.14312,0.19971 -0.33471,0.0563 -0.24602,-0.17069 -0.0508,-0.25775 z"
         id="path7" />
      <path
         style="fill:#ddecea;fill-opacity:1;stroke:none;stroke-width:1.42087"
         d="m 413.21965,761.35664 0.29568,-0.1229 0.3229,0.18093 0.0213,0.35845 -0.24247,0.31578 -0.35955,-0.0563 -0.12774,-0.3448 z"
         id="path6" />
      <path
         style="fill:#ddecea;fill-opacity:1;stroke:none;stroke-width:1.42087"
         d="m 413.70575,763.6405 -0.0189,0.23897 -0.1715,0.18093 -0.30396,-0.007 -0.16204,-0.19458 0.0296,-0.26458 0.2129,-0.18947 0.2531,0.0106 z"
         id="path5" />
      <path
         style="fill:#ddecea;fill-opacity:1;stroke:none;stroke-width:1.42087"
         d="m 586.96298,792.61379 -0.30987,0.44721 -0.27677,-0.40453 0.33354,-0.52233 z"
         id="path4" />
      <path
         style="fill:#ddecea;fill-opacity:1;stroke:none;stroke-width:1.42087"
         d="m 586.80923,793.46896 0.13956,-0.22532 0.23181,0.42503 0.0332,0.49159 -0.1928,-0.004 z"
         id="path3" />
      <path
         style="fill:#ddecea;fill-opacity:1;stroke:none;stroke-width:1.42087"
         d="m 306.945,764.64759 0.55471,0.16556 -0.58783,1.45942 -0.75932,-0.46599 z"
         id="path2" />
      <path
         style="fill:#ddecea;fill-opacity:1;stroke:none;stroke-width:1.42087"
         d="m 311.22536,768.524 0.0237,2.76522 -2.51689,10e-4 -0.75105,-0.43356 0.74395,-2.75155 z m 3.24073,0.0106 -0.0734,2.22754 1.53402,-0.37723 0.46719,1.10779 -1.04673,2.65256 1.09641,1.00879 -0.0579,2.17632 -0.66234,1.75472 -0.8563,-0.28676 -0.94148,0.4711 -1.74927,0.20313 0.071,2.01759 -1.36371,1.50209 -1.99056,-2.93249 -1.43232,-3.32168 0.46955,-4.56431 0.80191,-0.88248 2.51689,-10e-4 -0.0237,-2.76522 z m 3.59082,-12.71144 -1.47133,3.79278 0.21763,3.0844 0.74513,2.04661 1.51391,2.1234 0.17032,1.48674 -0.0616,1.18801 -3.10826,-0.99001 -1.59671,-0.0205 -3.24073,-0.0107 -2.50033,-0.41819 0.19634,-2.10122 -0.49321,-1.73594 -1.06447,-0.33285 -0.61976,-1.69326 0.43052,-2.44773 2.07572,-2.71913 0.79362,-0.15021 1.17802,1.47136 2.4412,-5.67551 0.0922,-1.30749 1.84036,-4.48921 1.00415,-0.52061 0.12537,-1.59086 -0.80545,-0.51719 -0.18569,-1.63523 0.64223,-0.017 0.38794,1.29384 0.72621,2.38458 -0.11473,1.74789 1.01125,1.90151 -2.46366,0.0308 -0.38439,0.80737 2.02959,2.74643 z m 5.16743,9.5929 -0.90953,3.12196 -0.53105,6.3617 -1.49381,1.7513 -1.00061,2.05513 -0.006,2.75156 -2.29334,3.61526 -0.76051,-1.27166 -1.65821,1.22387 -0.46838,-0.37724 -0.36073,-0.55133 -1.38736,1.46283 -1.47134,-2.5672 1.36371,-1.50209 -0.071,-2.01759 1.74927,-0.20313 0.94148,-0.4711 0.8563,0.28676 0.66234,-1.75472 0.0579,-2.17632 -1.09641,-1.00879 1.04673,-2.65256 -0.46719,-1.10779 -1.53402,0.37723 0.0734,-2.22754 1.59671,0.0205 3.10826,0.99001 0.0616,-1.18802 0.61029,-2.91201 1.46306,-0.57864 z m 6.95575,-17.64445 1.25371,2.39822 -0.23301,2.66621 1.13071,0.2219 1.9539,3.21073 1.67241,1.61645 0.16914,1.30067 1.05618,0.79714 0.5216,1.654 -1.60735,0.0375 -1.75284,-0.65033 -3.2975,1.75983 -0.80545,-0.56157 -0.78061,1.63352 -2.98999,-0.65204 -1.45123,-1.72057 -1.94208,1.96636 0.14666,1.96638 -1.91842,-0.54963 -1.46306,0.57865 -0.61029,2.91201 -0.17032,-1.48673 -1.51391,-2.12341 -0.74513,-2.0466 -0.21763,-3.08441 1.47133,-3.79277 1.75402,-0.82274 0.36193,0.75786 1.49617,-1.03097 1.49381,-0.14851 0.84093,-2.29239 2.19164,-0.29188 3.32707,-4.41581 z m -14.44609,-5.11052 0.18569,1.63523 0.80545,0.51719 -0.12537,1.59086 -1.00415,0.52061 -1.84036,4.4892 -0.0922,1.3075 -2.4412,5.67551 -1.17802,-1.47136 -0.79362,0.15021 -2.07572,2.71913 -0.43052,2.44772 -0.51686,0.63669 -1.58843,-0.1451 -1.84628,0.77495 -0.97458,-0.84323 -1.165,-3.24827 -0.7889,-0.83468 -2.79601,-0.0222 0.032,-5.69941 1.8309,-4.33216 -0.39622,-2.59794 0.0804,-1.97491 0.78889,-2.23948 2.34658,-0.94905 1.33887,0.58548 0.88351,1.46966 1.39446,-0.75959 1.51747,0.95588 1.57897,0.24067 1.69843,-1.31091 2.95331,0.73739 1.85692,-1.52086 z m 16.28644,-15.22234 0.006,8.9494 -1.46187,0.0393 -0.92491,3.75011 -0.9805,2.52113 1.60972,3.94299 -0.0887,1.12998 -0.65761,-0.19288 -3.32707,4.41581 -2.19164,0.29188 -0.84093,2.29239 -1.49381,0.14851 -1.49617,1.03097 -0.36193,-0.75786 -1.75402,0.82274 -0.48847,-2.2668 -2.02959,-2.74644 0.38439,-0.80737 2.46366,-0.0308 -1.01125,-1.90151 0.11473,-1.74789 -0.72621,-2.38457 -0.38794,-1.29385 -0.64223,0.017 -0.76169,-1.49526 -0.25311,-1.59939 1.51156,-3.24657 1.78003,-2.66962 0.466,-7.17761 0.3572,-1.11632 -1.27028,-2.68499 -0.32999,-3.52992 1.65231,-1.06342 5.22183,3.7211 4.05801,2.89153 z m 5.68429,34.19818 1.58133,1.87933 1.73036,-0.92857 2.27088,2.79594 -0.21644,2.43748 0.92254,0.6913 -0.233,0.83469 -1.06684,1.37408 -0.90362,1.07706 -0.39385,2.0944 -0.0781,0.9149 -0.10408,2.15414 -0.58546,0.69471 -0.57008,1.87421 0.23182,0.57864 0.3146,1.4543 -0.18096,4.12051 0.66116,3.87641 1.12362,1.57891 0.63513,2.01075 -2.75343,0.61621 -0.15377,0.60254 -0.466,1.52428 0.19515,2.70376 -0.45654,2.19851 1.10587,2.20365 1.26318,-0.52573 -0.002,3.011 -1.03373,0.0222 -1.36134,-2.33165 -1.15319,-0.37211 -0.75222,-1.71546 -0.79362,1.0617 -2.20937,-0.88077 -0.12064,-1.05829 -1.63102,0.43015 -0.52278,-1.19485 -2.84095,0.89442 0.12418,-2.08927 -0.75459,-1.78031 0.14075,-2.64915 -0.25429,-2.8847 -2.07691,0.007 0.14903,-0.87735 -1.7895,0.20312 -0.27321,2.37092 -2.97579,0.19629 -2.01778,-5.28634 -5.14495,0.004 -1.59908,-0.23044 0.3844,-1.6796 1.03372,-0.99515 0.46837,0.37724 1.65821,-1.22387 0.76051,1.27166 2.29334,-3.61526 0.006,-2.75156 1.00061,-2.05513 1.49381,-1.7513 0.53105,-6.3617 0.90953,-3.12196 -0.14666,-1.96638 1.94208,-1.96637 1.45123,1.72057 2.98999,0.65205 0.78061,-1.63353 0.80545,0.56158 3.2975,-1.75983 1.75284,0.65033 z m 15.51055,-40.12461 0.37849,1.70181 0.36073,5.02176 0.35719,1.06682 1.72564,1.67109 -0.64342,1.14362 -1.98583,1.06683 -0.0934,1.94249 -0.85512,2.70717 0.16913,2.00904 -0.70137,3.71768 -0.79244,0.28506 -0.93437,1.90663 -0.15966,2.13877 -0.59729,-0.0239 -0.84922,3.37629 -0.27676,-1.74788 -1.18275,-1.54306 0.0449,-3.24144 -1.851,0.49842 0.54525,2.24972 -1.93735,2.9837 -0.79835,0.13484 -1.20877,-1.26824 -1.92078,2.2429 -1.55886,-0.64181 -2.19754,0.17753 -1.17329,-2.12682 -1.24662,0.29529 -0.8634,3.33362 -0.63751,0.46769 -1.13071,-0.2219 0.23301,-2.66621 -1.25371,-2.39822 0.0887,-1.12999 -1.60972,-3.94299 0.9805,-2.52112 0.9249,-3.75011 1.46188,-0.0393 -0.006,-8.9494 v -1.18461 l 1.64166,-0.0154 0.001,-4.72475 5.43591,10e-4 8.0344,-10e-4 z m -4.62099,29.73116 -0.16322,2.39311 -1.3093,0.0974 -0.20107,1.4304 1.09168,0.34138 1.67122,2.417 0.59965,2.40676 1.16738,0.74251 0.18332,1.63523 -0.8362,-0.97465 -2.35722,1.922 -0.72975,1.05657 -2.23066,0.60084 -0.64697,-0.69984 -1.54585,0.77154 -2.27088,-2.79594 -1.73036,0.92857 -1.58133,-1.87933 -0.5216,-1.654 -1.05618,-0.79714 -0.16914,-1.30067 -1.67241,-1.61645 -1.9539,-3.21073 0.63751,-0.46769 0.8634,-3.33362 1.24662,-0.29529 1.17329,2.12682 2.19754,-0.17753 1.55886,0.64181 1.92078,-2.2429 1.20877,1.26824 0.79835,-0.13484 1.93735,-2.9837 -0.54525,-2.24972 1.851,-0.49842 -0.0449,3.24144 1.18275,1.54306 z m -50.05981,-5.31193 0.39622,2.59794 -1.8309,4.33215 -0.032,5.69942 -1.78122,0.36528 -0.0296,-6.72185 -0.44353,-2.2446 -0.92373,-0.87907 0.21763,-1.48332 0.88351,-1.14022 0.9391,0.11096 0.62331,-1.11292 0.34892,-0.79372 0.8362,0.1946 z m 18.69924,-26.79015 0.32999,3.52992 1.27028,2.68499 -0.3572,1.11633 -0.466,7.17761 -1.78003,2.66962 -1.51156,3.24657 0.25311,1.59938 -1.85692,1.52087 -2.95331,-0.73739 -1.69843,1.31091 -1.57897,-0.24067 -1.51747,-0.95588 -1.39446,0.75959 -0.88351,-1.46967 -1.33887,-0.58547 -2.34658,0.94904 -0.78889,2.23949 -0.0804,1.97491 -0.79599,-1.07536 -0.8362,-0.1946 -0.34892,0.79372 -0.46246,-1.91857 -1.86755,-0.85688 -1.34596,-3.50773 0.10762,-0.8637 1.82853,-0.88248 3.57427,-0.16727 1.11178,-2.51771 0.0734,-6.46411 2.64344,-0.79714 2.70258,-3.3046 3.68071,-3.1305 3.68781,-3.13902 2.48613,0.80054 1.23124,1.3314 z m 16.70868,-20.53255 -0.7605,3.58624 0.48138,2.28215 v 9.42562 7.61117 l -10e-4,4.72476 -1.64166,0.0154 v 1.18461 l -3.85457,-2.74814 -4.05801,-2.89153 -5.22183,-3.72109 -1.65231,1.06341 -1.22887,0.89614 -1.23125,-1.3314 -2.48613,-0.80055 -0.65997,-1.7769 -2.52162,-1.39798 -1.03609,-2.98028 0.71438,-0.92686 -0.0165,-6.22002 -0.50266,-2.60989 1.23242,-1.6284 -0.26612,-1.17607 2.39152,-2.49723 -0.097,-1.69667 1.38499,0.82614 1.64875,-0.17069 3.0302,1.22045 1.39328,2.64232 2.17034,0.44721 2.77827,1.94419 1.13663,-0.57865 0.65287,-1.67449 -0.3702,-1.18802 1.05383,-1.99027 1.71854,-0.88418 2.42699,0.67423 0.0153,0.7647 3.0988,0.84321 z m -1.94444,100.8364 0.0544,5.03542 h -3.31878 l 0.006,7.50193 0.20461,0.89784 2.09228,2.59964 -4.23068,0.92515 -3.35901,-0.67253 -0.50621,-0.84834 -7.40992,0.0444 -1.275,-1.08388 -2.30045,0.71519 -0.0237,-3.44627 0.85514,-2.48529 0.39503,-3.10318 1.851,-2.82836 0.18569,-3.79961 -1.24307,-3.68013 0.61385,-1.8264 -0.88824,-3.36435 -0.90953,-1.87078 1.49262,-0.60254 5.14495,-0.004 2.01778,5.28634 2.97579,-0.19629 0.27321,-2.37092 1.7895,-0.20312 -0.14903,0.87735 2.07691,-0.007 0.25429,2.8847 -0.14075,2.64915 0.75459,1.78031 -0.12418,2.08927 z m -17.89498,-14.79731 -1.03371,0.99515 -0.3844,1.6796 -0.32998,-1.76325 1.38736,-1.46283 z m 28.71595,-5.29828 0.44471,1.37066 -1.3507,3.06564 -0.57245,0.42331 -0.73567,-2.64573 -0.3146,-1.4543 1.12124,0.20653 0.38439,-1.16411 z m -0.13602,-3.16121 0.59019,1.24946 -0.45417,1.91175 -1.02308,-0.198 -0.38439,1.16411 -1.12124,-0.20653 -0.23182,-0.57864 0.57008,-1.87421 0.58546,-0.69471 z m 5.78837,-3.11343 -1.19103,-0.33285 -2.21883,1.2341 -0.22472,2.05854 -2.15379,0.15364 -1.46897,0.77323 0.10408,-2.15414 0.0781,-0.9149 0.39385,-2.0944 0.90362,-1.07706 1.06684,-1.37408 0.233,-0.83469 -0.92254,-0.6913 0.21644,-2.43748 1.54585,-0.77154 0.64697,0.69984 2.23066,-0.60084 0.72975,-1.05657 1.55532,4.13075 0.0899,1.8998 z m -4.64702,20.94563 2.88119,1.94077 1.23832,2.77204 -0.58308,0.57182 -0.11001,3.1322 -0.73093,3.69719 0.64933,0.74763 -4.9084,2.29241 0.29804,1.55159 -1.62509,0.18606 -1.06093,1.93906 -1.39209,0.78688 -1.46424,2.59453 -2.89536,-0.38918 -1.70671,-0.74593 -1.37791,0.38236 -2.09228,-2.59964 -0.20461,-0.89784 -0.006,-7.50193 h 3.31878 l -0.0544,-5.03542 0.52278,1.19485 1.63102,-0.43015 0.12063,1.05829 2.20937,0.88078 0.79363,-1.06171 0.75222,1.71546 1.15319,0.37211 1.36134,2.33165 1.03372,-0.0222 0.002,-3.011 -1.26318,0.52573 -1.10587,-2.20364 0.45654,-2.19851 -0.19515,-2.70377 0.466,-1.52428 0.15376,-0.60254 2.75344,-0.6162 z m 4.98293,-94.59931 0.0793,0.2441 1.04909,4.07953 -1.32822,4.00615 -1.3779,-1.79227 -1.09877,-3.31655 -0.38322,0.84323 0.87287,2.4204 1.05738,1.46967 0.82437,3.19365 2.46367,6.24562 0.29805,2.47845 1.95153,2.219 -6.08169,10e-4 -8.0344,10e-4 -5.43591,-10e-4 v -7.61117 -9.42563 l -0.48138,-2.28214 0.7605,-3.58624 3.59911,0.68447 2.77,1.28189 2.19162,-1.61474 2.55593,-0.0358 0.92372,0.76811 1.07157,0.36528 z m 14.64952,44.11028 -1.21351,0.57352 -2.53936,-3.88837 -2.88827,-1.2597 -1.06447,0.52231 -0.87996,-1.09585 -0.53579,1.80764 -0.4459,-0.80737 -1.26081,0.45915 -0.16913,-2.00904 0.85512,-2.70717 0.0934,-1.94249 1.98583,-1.06683 0.64342,-1.14362 1.04199,4.49602 0.79244,2.00222 2.36196,1.47478 0.85512,1.66254 z m -1.21351,0.57352 -0.97577,2.80447 0.001,0.45746 1.86875,0.21678 -0.45417,0.86881 1.26791,2.88982 0.9935,1.01392 4.85518,2.3436 h 1.64284 l -2.55474,3.55722 -2.43528,3.75695 -1.59789,-0.10067 -3.42287,2.3163 -1.84272,-0.72886 -1.50327,0.99002 -0.51214,1.09583 -2.35722,-0.49329 -2.06626,-1.94248 -1.51628,-0.4438 -0.18332,-1.63523 -1.16738,-0.74251 -0.59965,-2.40676 -1.67122,-2.417 -1.09168,-0.34138 0.20107,-1.4304 1.3093,-0.0974 0.16322,-2.39311 0.84922,-3.37629 0.59728,0.0239 0.15967,-2.13877 0.93437,-1.90663 0.79244,-0.28506 0.70137,-3.71768 1.26081,-0.45915 0.4459,0.80737 0.53579,-1.80764 0.87996,1.09585 1.06447,-0.52231 2.88827,1.2597 z m -10.60925,18.60203 1.51628,0.4438 2.06626,1.94248 2.35722,0.4933 0.51214,-1.09584 1.50327,-0.99002 1.84272,0.72886 -1.51156,2.75668 0.0237,8.73602 0.91308,1.95784 -2.23421,2.52795 -1.04318,3.95323 -0.57482,0.58548 -2.61387,-2.75839 0.0757,-1.1095 -5.86643,-4.72475 0.29451,-1.86908 -0.42343,-1.21021 1.61446,-3.38995 -0.0899,-1.8998 -1.55532,-4.13075 2.35722,-1.922 z m -57.5265,-15.10967 -0.21763,1.48332 0.92373,0.87907 0.44353,2.2446 0.0296,6.72185 -0.7132,0.26969 -1.09404,-1.73423 0.20817,-1.16583 -0.68245,-5.33925 0.27321,-1.6762 -0.9249,-2.01929 z m -1.12243,-9.28907 -0.10762,0.8637 1.34596,3.50773 1.86755,0.85688 0.46246,1.91857 -0.62331,1.11292 -0.93909,-0.11096 -0.88352,1.14022 -1.75401,-0.33627 -0.87051,0.33285 -3.37438,0.0205 0.10054,3.54869 -0.84331,-0.99514 -2.42817,0.53768 -1.38263,-1.76325 0.39384,-3.34557 1.1863,-0.7408 0.96749,-3.13049 1.0692,-0.11439 0.78771,-1.24435 1.3436,-0.37039 2.08637,-2.06368 z m 13.7731,-52.22327 -0.41632,1.16411 -0.18451,4.26902 -1.24307,1.78714 0.44471,1.62671 2.12659,2.69352 0.77943,4.36801 0.50266,2.60988 0.0165,6.22003 -0.71438,0.92686 1.03609,2.98028 2.52162,1.39798 0.65997,1.7769 -3.68781,3.13902 -3.68071,3.1305 -2.70258,3.3046 -2.64344,0.79714 -1.51156,0.38064 -0.1502,-1.92541 -2.17744,-1.03781 -1.22415,-2.06197 -6.02728,-5.68745 -3.77652,-3.54357 -6.34307,-5.42802 0.001,-0.92685 v -2.34702 l 1.74573,-1.71546 3.06096,-0.53256 2.27324,-2.11999 1.19457,-0.48136 -0.0237,-2.219 1.8782,-1.14875 2.08164,0.11948 0.33117,-1.03269 -1.02899,-1.70862 -0.1573,-3.56406 -0.74395,-0.82444 5.36731,-3.31314 3.10234,-0.76299 3.04558,-0.20654 0.73685,0.58035 3.52814,-1.02415 z m 4.76766,8.91013 0.097,1.69668 -2.39152,2.49723 0.26612,1.17606 -1.23242,1.62841 -0.77943,-4.36801 -2.12659,-2.69352 -0.44471,-1.62671 1.24307,-1.78714 0.18451,-4.26902 0.41632,-1.16411 2.18336,-0.9866 2.25904,0.84493 -0.52869,2.22752 0.2886,1.94761 -1.69843,2.16266 0.33472,1.47649 z m 19.51061,120.48479 1.37791,-0.38236 1.70671,0.74593 -1.76822,0.55817 -0.97104,1.06341 -0.46126,-1.11121 -3.83802,0.73398 -0.005,8.72748 h -1.63219 l 0.005,6.52387 v 8.70017 l -1.47844,1.27336 -2.75581,-0.60424 -0.83974,-1.47479 -0.66589,1.16242 -1.95863,-2.96322 -1.34952,-7.50021 -0.14311,-4.46361 -1.64166,-3.46162 -0.38202,-1.56867 -2.14433,-4.76743 -0.13601,-2.11147 2.30045,-0.71519 1.275,1.08389 7.40992,-0.0444 0.50621,0.84833 3.35901,0.67253 z m 13.80031,-39.44527 -0.28268,2.45797 0.35365,1.56013 2.29216,-0.42502 1.40037,-3.47358 5.86643,4.72475 -0.0757,1.1095 2.61387,2.75839 -0.67771,3.20902 1.12834,1.95954 -0.30279,3.44115 0.79362,3.9686 1.10588,1.16583 -3.19461,2.22582 -1.01242,-0.22361 -0.73567,0.95588 -2.01777,-0.0494 -0.61266,-0.68277 -1.41575,0.37894 -0.0781,-0.36699 -0.0379,-0.0529 -0.25074,-0.30213 -0.0355,-0.082 -0.70965,-3.61696 -0.15967,-0.24239 -0.16677,-0.19971 -0.0177,-0.029 -0.27321,0.49329 -1.62864,-0.73568 -2.88119,-1.94077 -0.95802,-2.56209 -0.0308,-1.30921 -1.33769,-1.62328 0.32171,-0.83809 -0.47902,-3.47871 0.57245,-0.42331 1.3507,-3.06564 -0.44471,-1.37066 0.45417,-1.91175 -0.59019,-1.24946 z m 1.82379,61.26827 -1.27972,-0.0136 -0.27086,-2.09098 0.0615,-3.63915 -1.14607,-4.80327 1.83916,-2.62355 0.17151,-1.72057 0.81136,-1.26313 -0.39977,-1.34676 0.4459,-2.68157 -0.10881,-3.91398 -2.80667,-1.56012 -1.40865,-0.0529 -0.0106,-0.86711 -0.29804,-1.5516 4.9084,-2.2924 0.7262,1.39285 1.14845,-0.50866 0.37021,2.0961 -0.55235,1.46625 1.73982,2.93931 0.071,-1.20508 0.75578,-1.46112 0.0946,-3.17146 -1.63575,-2.7345 -0.2673,-3.14244 0.44354,-1.45771 1.41575,-0.37893 0.61266,0.68277 2.01777,0.0494 0.73567,-0.95588 1.01242,0.22362 3.19461,-2.22583 0.16913,7.49509 0.49794,1.96296 -0.41751,2.40335 -1.20285,2.25655 -4.55004,3.41213 -0.99706,1.6762 -2.8516,3.11514 1.31167,5.97423 -0.71556,5.18733 -3.66889,2.24119 -0.58546,0.96271 z m 1.6736,-40.60598 0.58901,1.71376 0.0745,2.96663 -0.46956,1.17606 0.48493,2.86251 0.43407,0.42332 0.43998,-0.14338 1.63575,2.73449 -0.0946,3.17146 -0.75578,1.46113 -0.071,1.20508 -1.73982,-2.93932 0.55235,-1.46624 -0.37021,-2.0961 -1.14845,0.50866 -0.7262,-1.39286 -0.64933,-0.74763 0.73093,-3.69719 0.11001,-3.1322 0.58308,-0.57182 -1.23832,-2.77204 z m -5.77537,14.0292 0.0106,0.86711 1.40865,0.0529 2.80667,1.56013 0.10881,3.91398 -0.4459,2.68157 0.39977,1.34675 -0.81136,1.26313 -0.17151,1.72057 -1.83916,2.62355 -3.18514,-0.49843 -0.51095,-0.92174 -1.65231,-0.52231 -0.54997,-2.53307 -2.57602,-2.38969 -1.42994,-4.04711 2.89536,0.38918 1.46424,-2.59453 1.39209,-0.78688 1.06093,-1.93907 z m 8.80675,-114.69491 -0.2058,0.87224 -0.86459,0.28335 -0.0426,1.19825 0.009,0.6384 0.59848,0.16727 -0.0804,0.42845 0.0497,0.32943 -0.7818,3.63403 -0.11237,0.16216 -1.04909,-4.07953 0.48729,-0.72716 -0.10409,-0.15533 1.02427,-3.56918 1.17684,-0.75275 z m -2.47904,3.63405 -0.0793,-0.2441 0.46244,-0.63839 0.1041,0.15533 z m 14.77252,46.7577 -0.52159,1.16071 -1.86875,-0.21678 -0.001,-0.45746 0.97577,-2.80447 1.21351,-0.57352 0.42578,1.66595 -1.02307,0.70496 z m -0.52159,1.16071 0.52159,-1.16071 1.69725,2.44602 1.12952,0.0956 1.30102,-1.08048 1.14017,0.42333 1.50919,-1.13682 2.58312,-0.18093 2.18335,-0.80567 0.87051,-0.94904 0.81255,0.37039 -0.19161,3.01102 -0.55116,2.62354 -1.64048,3.54185 -1.32349,4.30998 -1.78713,3.99932 -3.15675,4.78792 -2.42582,2.08244 -1.77767,2.22583 -2.27798,3.51626 -0.89652,1.97661 -0.91308,-1.95784 -0.0237,-8.73602 1.51156,-2.75668 3.42287,-2.3163 1.59789,0.10067 2.43528,-3.75694 2.55474,-3.55723 h -1.64284 l -4.85518,-2.3436 -0.9935,-1.01391 -1.26791,-2.88982 z m -70.78392,-0.32262 0.9249,2.01929 -0.27321,1.6762 0.68245,5.33925 -0.20817,1.16583 1.09404,1.73423 -5.3815,3.2312 -1.69015,-0.83809 0.007,-0.0393 0.4459,-0.099 -0.68717,-3.48041 1.24188,-3.774 -0.30041,-3.0332 -0.10054,-3.54869 3.37438,-0.0205 z m -8.79846,1.68132 1.38263,1.76325 2.42817,-0.53768 0.84331,0.99515 0.30041,3.03319 -1.24188,3.774 0.68717,3.48042 -1.8924,-0.19459 -3.04793,0.47794 -2.77473,1.6045 0.15494,-3.54015 -1.92551,-1.53281 0.2188,-2.52455 0.42106,0.0324 0.59729,-4.42434 -0.20462,-1.78203 1.69252,-0.0563 1.1721,-1.26824 0.37848,1.258 z m 16.01795,-20.66569 -0.0734,6.46411 -1.11178,2.51771 -3.57427,0.16727 -1.82853,0.88248 -1.59553,-0.37552 -2.08637,2.06367 -1.3436,0.3704 -0.78771,1.24435 -1.0692,0.11439 -0.96749,3.13049 -1.1863,0.7408 -0.39384,3.34557 -0.81019,0.55816 -0.37848,-1.25799 -1.1721,1.26824 -1.69252,0.0563 -0.63277,-2.85909 -0.77588,-0.68789 -0.72148,-1.59597 -1.99293,0.68105 -1.45951,-0.85346 -0.36902,-2.26849 -1.07038,-3.35239 0.88233,-1.81617 1.33414,1.03952 0.29332,-0.75788 2.27915,-0.17411 6.30524,0.004 -0.74396,-9.78237 -0.41987,-5.22147 -0.61384,-7.51729 2.90955,-0.004 3.77652,3.54357 6.02728,5.68745 1.22415,2.06197 2.17744,1.03781 0.1502,1.92541 z m -10.59742,-37.80491 0.74395,0.82444 0.1573,3.56406 1.02899,1.70862 -0.33117,1.03269 -2.08164,-0.11948 -1.8782,1.14875 0.0237,2.219 -1.19457,0.48136 -2.27324,2.11999 -3.06096,0.53256 -1.74573,1.71546 v 2.34702 l -7.05155,-0.59571 2.44711,-0.97978 1.49736,-1.57549 1.50918,-2.69523 -0.31579,-3.02466 0.96512,-2.784 1.20049,-1.64035 2.8043,-1.82811 1.50209,-4.16659 0.8847,-0.20995 1.63218,1.73934 2.3454,-0.42161 0.0579,0.12461 z m -16.49579,48.1591 -3.41459,-4.41411 -2.98408,0.35163 -0.62804,1.61133 0.81727,-4.4141 -0.27084,-3.10148 -0.51332,-0.99 0.53697,-1.94078 -1.33414,-2.32313 0.0793,-0.32601 6.47791,-10e-4 v -3.9942 l 1.61445,-1.0122 0.0284,-6.04421 5.47732,-0.0444 -0.004,-3.01442 6.34307,5.42801 -2.90956,0.004 0.61385,7.5173 0.41987,5.22147 0.74396,9.78237 -6.30524,-0.004 -2.27915,0.17411 -0.29333,0.75787 -1.33414,-1.03951 z m 5.88417,-30.58463 -0.001,0.92685 0.004,3.01442 -5.47732,0.0444 -0.0284,6.04421 -1.61445,1.01221 v 3.99419 l -6.47791,10e-4 0.29096,-1.01392 1.38145,-4.70086 2.35839,-5.597 1.49382,-1.39285 1.01953,-2.92907 z m 55.75712,107.79723 1.42994,4.04711 2.57602,2.38969 0.54997,2.53308 1.65231,0.52231 0.51095,0.92174 -1.66177,0.94223 -2.19163,2.51599 -0.25429,1.4287 -1.61209,1.1846 -0.46127,2.06537 -1.29511,0.49843 -2.94386,-1.22899 -0.47192,1.59598 -1.69605,2.06537 -1.63693,0.0871 0.2472,-1.80421 -1.4122,-3.26875 -0.005,-6.52387 h 1.63219 l 0.005,-8.72748 3.83802,-0.73398 0.46126,1.11121 0.97104,-1.06341 z m 9.90433,10.91236 1.14607,4.80327 -0.0615,3.63916 -0.85867,-0.50867 -1.029,1.01392 -0.10762,1.27507 0.69427,1.17606 1.33177,0.26287 0.24011,-1.12828 1.27972,0.0136 -0.84448,4.04711 -1.95863,2.38797 -1.30457,3.05028 -3.02901,4.06589 -2.37851,2.28386 -2.33593,0.6401 -1.34833,0.92856 -3.76824,-0.45063 -2.71204,0.862 -1.57661,1.0617 -2.4057,-2.24119 -1.05975,-2.48527 0.70492,-0.39601 -0.1644,-2.33337 -1.46306,-3.12025 -1.30575,-4.20756 0.66589,-1.16242 0.83974,1.47479 2.75581,0.60424 1.47844,-1.27336 v -8.70017 l 1.4122,3.26875 -0.2472,1.80421 1.63693,-0.0871 1.69605,-2.06537 0.47192,-1.59598 2.94386,1.22899 1.29511,-0.49843 0.46127,-2.06537 1.61209,-1.1846 0.25429,-1.4287 2.19163,-2.51599 1.66177,-0.94223 z m 1.08457,8.44243 0.27086,2.09097 -0.24011,1.12828 -1.33177,-0.26287 -0.69427,-1.17606 0.10762,-1.27507 1.029,-1.01392 z m 11.82275,-137.68373 -3.592,1.48673 1.67713,2.35043 -2.01185,1.5038 -1.21468,1.60109 -1.75283,-0.38236 0.009,-0.49159 0.7818,-3.63403 -0.0497,-0.32943 0.0804,-0.42845 0.17977,-0.83981 0.11946,-1.44746 0.2058,-0.87224 1.74455,1.01221 3.21116,-2.50065 z m -5.46192,-3.05369 -1.17684,0.75275 1.42048,-3.70059 1.26672,0.0581 -0.31579,1.29726 z m -0.31107,2.44261 -0.11946,1.44746 -0.17977,0.83981 -0.59847,-0.16727 -0.009,-0.6384 0.0426,-1.19825 z m 11.04805,-11.22301 -1.54821,1.3809 -0.36074,4.17 -0.82911,1.03611 -3.14848,2.27532 -3.21116,2.50065 -1.74455,-1.01221 0.10527,-1.57037 1.19457,-1.59255 0.31579,-1.29726 -1.26672,-0.0581 -0.0958,-3.00589 1.23715,-0.73739 -0.009,-1.42017 1.29275,0.45917 1.22296,-0.64351 2.58784,0.38747 1.54941,-0.85004 z m -88.2886,58.57131 1.45951,0.85346 1.99293,-0.68105 0.72148,1.59597 0.77588,0.68789 0.63277,2.85909 0.20462,1.78202 -0.59729,4.42435 -0.42106,-0.0324 -1.05146,0.87054 -0.61384,-2.73278 -1.28683,-0.33456 -1.62629,-3.58453 -2.03078,0.32261 -1.3022,1.94076 -0.48137,-1.73764 -2.34303,-2.82838 0.54879,-1.28701 1.57187,-0.47282 -0.0922,-0.75105 -0.35837,-0.45062 0.40331,-0.40624 0.0497,-0.67595 2.24604,0.87223 z m 4.76884,11.48929 -0.2188,2.52455 1.92551,1.53281 -0.15494,3.54015 -2.85516,-1.87931 -1.83444,-2.44432 -1.7753,-1.75983 1.41456,-2.01587 0.54644,-1.69499 1.28683,0.33457 0.61384,2.73278 z m -6.20824,-17.11017 1.07038,3.35239 0.36902,2.26849 -1.59789,0.23385 -2.24604,-0.87223 -2.40925,-0.0136 -2.51926,0.82103 -0.0414,-1.73594 1.07866,-0.15533 0.7262,-0.80567 0.84922,-0.28335 1.36726,0.67423 0.55707,-0.24579 -0.44826,-0.41137 -1.40984,-0.56329 -2.40453,0.55305 -1.01361,-2.52795 1.04555,-2.73961 0.62804,-1.61134 2.98408,-0.35162 z m 67.38943,103.06905 1.11179,1.52087 -0.46837,1.34847 -2.31109,1.63352 -1.19694,-2.31117 1.20286,-1.69839 z m 0,0 -1.66175,0.4933 -1.20286,1.69839 1.19694,2.31117 2.31109,-1.63352 0.46837,-1.34847 z m 26.29487,-156.09459 0.97457,2.76181 1.51511,0.35162 -1.42049,3.28071 -0.0603,1.11632 1.4678,2.40506 1.75756,1.1863 0.80072,1.65231 -0.2602,1.81957 1.40983,2.44944 -0.95802,-0.0785 -1.37554,0.0785 -0.94975,2.05171 -3.0231,-0.25091 -4.29811,-4.45336 -2.71204,-1.99197 -2.09938,-0.46941 -0.61148,-2.97176 3.14848,-2.27532 0.82911,-1.03611 0.36074,-4.17 1.54821,-1.3809 0.59847,-0.59059 z m 2.90127,19.07485 1.48198,0.24068 0.3844,1.09244 1.25608,-0.017 0.72384,2.20022 1.85337,1.88615 0.23418,2.56891 1.08932,2.33849 0.66943,0.28677 0.58191,0.87735 1.66531,3.14074 4.27682,0.53938 0.7404,1.71717 -1.08222,4.70256 -4.92732,2.37092 -4.6825,0.90979 -1.58726,1.09755 -1.2064,2.50576 -3.71619,-0.79713 -3.28686,0.24238 -0.61621,2.26338 -0.8019,-2.56551 -0.95685,-1.08048 -1.96573,-4.89203 -1.43822,-1.159 -0.92963,-2.0227 10e-4,-2.92055 -1.03373,-2.9342 -1.52692,-1.14534 -0.4802,-2.19511 -0.932,-1.57037 -2.37615,-5.21293 -0.93555,-0.10587 0.49676,-2.96835 1.75283,0.38236 1.21468,-1.60109 2.01185,-1.50381 -1.67713,-2.35042 3.592,-1.48674 2.09938,0.46941 2.71204,1.99198 4.29811,4.45335 z m -8.23192,-29.44098 2.13367,-0.13827 1.01954,1.10438 0.36901,2.36239 1.82262,0.96611 0.0981,0.33627 -1.27027,0.38064 0.26375,3.39336 0.89416,1.96125 -3.35782,-0.51548 -0.59847,0.59059 -2.70849,0.0222 -1.54941,0.85004 -2.58784,-0.38747 -1.22296,0.64351 -1.29275,-0.45917 0.009,1.42017 -1.23715,0.73739 0.17859,-2.3914 -1.10468,0.90638 -1.30221,-0.52915 -1.42877,1.4799 -1.44768,0.27481 -1.27737,-1.22385 -2.20109,-0.82445 -0.46955,1.52429 -1.19575,0.29529 -1.20522,-1.48844 -2.08282,0.2219 0.35009,-0.84834 -1.01953,0.1246 -0.2401,-1.93052 -1.10113,-0.81591 -0.45773,-1.06682 0.87878,-0.95758 -1.03372,-1.1829 1.08694,-2.20193 3.96812,-0.0734 0.13247,-1.91175 3.28449,0.35334 3.43826,-2.19852 4.32412,0.67082 0.81136,1.17436 3.08816,0.76471 2.97697,-0.0107 z m -92.88121,72.41786 -0.87169,-1.81445 -1.93379,-1.42187 2.51926,-0.82102 2.40925,0.0136 -0.0497,0.67594 -0.40331,0.40625 0.35837,0.45062 0.0922,0.75105 -1.57187,0.47282 z m 7.78367,5.88717 -0.54644,1.69499 -1.41456,2.01587 -1.69252,-1.11633 -1.07038,-1.85202 -0.23537,-2.06366 1.3022,-1.94077 2.03078,-0.3226 z m -10.63054,-10.85943 0.31578,-1.23752 2.40453,-0.55304 1.40984,0.56329 0.44826,0.41136 -0.55707,0.2458 -1.36726,-0.67423 -0.84922,0.28334 -0.7262,0.80567 z m 103.30949,-61.16242 0.62094,-0.0427 2.18927,-1.90493 0.80782,0.72715 -0.5346,1.32116 1.41456,0.91832 0.42461,1.92199 1.66886,0.52062 1.54348,1.58061 1.34833,0.36699 3.45837,-0.5667 -0.1656,-1.23582 1.42877,-0.41478 1.05146,-1.32286 2.9486,-0.44892 0.93909,0.90125 1.66059,0.45064 2.53225,2.50746 1.20404,-0.0255 0.31935,2.44089 -1.24544,4.69404 0.50977,5.0815 1.37908,0.26799 0.20343,1.30409 -1.54584,2.30776 1.72207,3.11855 1.39091,0.67423 0.10053,2.44944 0.55945,1.42186 -2.10884,0.90808 -0.44235,2.4665 -2.76645,-0.30383 -4.23423,-1.06 -0.49558,-2.54501 -1.10351,-0.83128 -2.54881,1.66766 -1.7824,-0.49842 -2.12422,-2.22411 -1.7138,-0.81762 -2.14669,-5.22659 -1.84745,-0.48649 -0.686,1.04294 -1.40983,-2.44944 0.2602,-1.81957 -0.80072,-1.6523 -1.75756,-1.18631 -1.4678,-2.40506 0.0603,-1.11632 1.42049,-3.28071 -1.51511,-0.35162 -0.97457,-2.7618 -0.89417,-1.96126 -0.26375,-3.39336 1.27027,-0.38064 0.68127,1.45942 z m 3.77297,24.47385 -1.25608,0.017 -0.3844,-1.09244 -1.48198,-0.24067 0.94975,-2.05172 1.37554,-0.0785 z m 12.8884,6.9062 0.17151,1.53964 -0.97696,0.29189 -0.0544,1.4816 -0.93437,3.61868 -4.27682,-0.53939 -1.66531,-3.14073 0.64342,0.55645 3.55061,-0.29359 2.89772,-4.12222 0.37731,0.62132 z m -8.31826,2.37433 -0.66943,-0.28676 -0.0532,-1.95443 1.04909,-1.88103 1.2005,0.55646 -0.28977,2.52624 z m 3.08105,18.92635 -1.31048,0.89783 -0.10645,1.53623 -4.35251,2.08245 -1.4737,1.64548 -1.09168,-0.0324 -2.16206,1.48673 -1.69961,0.20824 -1.2892,1.45089 -1.5352,0.31407 -1.14609,-1.45771 -0.90361,-5.93839 0.14902,-1.54988 0.61621,-2.26338 3.28686,-0.24238 3.71619,0.79713 1.2064,-2.50576 1.58726,-1.09755 4.6825,-0.90979 z m 0,0 -1.82615,-5.57823 4.92732,-2.37091 1.08222,-4.70257 -0.7404,-1.71716 0.93437,-3.61868 0.0544,-1.4816 0.97696,-0.29189 1.26198,2.42896 2.68484,1.04634 1.6523,3.11512 -2.09109,4.22293 -0.68245,-0.37552 -0.6647,1.94589 0.23181,1.753 -1.51864,0.48477 -0.93675,2.0688 -1.47843,0.23043 -0.68718,1.96637 -1.64756,0.0614 z m -13.28699,-58.43306 1.605,2.52966 -0.55826,0.4694 1.04082,1.17437 0.39621,1.53623 -0.62094,0.0427 -0.57127,-1.62328 -1.6653,-0.36529 -1.82262,-0.96611 -0.36901,-2.36238 z m 1.86283,5.75233 -1.45714,-0.19288 -0.68127,-1.45942 -0.0981,-0.33627 1.6653,0.36529 z m 0.48375,-7.1742 0.10881,2.00394 -2.45539,-0.58207 -2.56537,0.43526 -1.01954,-1.10438 -2.13367,0.13827 -0.0343,-2.66963 -2.48732,-1.77519 1.09404,-0.35505 2.90956,0.73569 2.49087,1.60451 1.51155,-0.4916 z m 46.75403,11.0455 -0.57482,0.49671 -3.24782,0.47623 -2.29808,1.83665 0.7676,1.9988 -0.93792,2.72254 -1.741,0.0257 0.47901,1.71887 -1.22651,0.57694 -0.40923,2.69694 -1.87229,0.26457 -2.94505,2.14047 -0.2803,2.57917 -3.46545,1.06341 -2.64226,-0.0494 -2.68247,-1.06853 1.54584,-2.30776 -0.20343,-1.3041 -1.37908,-0.26799 -0.50977,-5.0815 1.24544,-4.69404 1.69605,1.11634 1.70908,-1.68132 1.8096,-0.93198 1.01598,-2.33166 1.14727,-0.81761 1.24544,0.50696 2.07217,0.41648 0.37847,0.61108 2.49324,-1.5533 1.03254,0.10588 0.99114,-2.13877 1.37435,1.29214 0.0225,2.83007 2.73451,-1.78886 z m -46.75403,-11.0455 2.36668,1.61646 1.16263,-1.51062 2.15853,3.50089 -0.74041,0.68789 -0.93319,3.89861 -1.41456,-0.91833 0.5346,-1.32115 -0.80782,-0.72715 -2.18927,1.90493 -0.39621,-1.53623 -1.04082,-1.17437 0.55826,-0.4694 -1.605,-2.52966 2.45539,0.58207 z m 50.62989,15.32816 -2.42226,2.18316 -2.44947,-0.62816 -0.83975,0.94223 0.87286,3.70232 1.72918,1.29896 -1.42758,1.3058 0.27795,1.48672 -2.11711,2.74133 -0.76998,2.14559 -1.70907,2.54161 -1.69133,0.59059 -0.80427,-0.73568 -1.44058,2.85397 1.13899,0.65717 -0.15377,1.30409 1.64166,3.07587 -1.79423,1.22728 -2.04616,-0.2936 -0.89178,1.06 -0.906,0.0905 -0.77942,-2.03635 -1.4879,-1.92029 -4.51928,0.66228 -3.14138,-0.0205 0.44235,-2.4665 2.10884,-0.90809 -0.55945,-1.42186 -0.10053,-2.44944 -1.39091,-0.67423 -1.72207,-3.11854 2.68247,1.06853 2.64226,0.0494 3.46545,-1.06341 0.2803,-2.57917 2.94505,-2.14047 1.87229,-0.26457 0.40923,-2.69694 1.22651,-0.57694 -0.47901,-1.71887 1.741,-0.0257 0.93792,-2.72254 -0.7676,-1.9988 2.29808,-1.83665 3.24782,-0.47623 2.35604,1.32458 0.31106,1.5567 1.00416,0.37894 z m -17.63003,-4.59844 -1.24544,-0.50696 -1.14727,0.81762 -1.01598,2.33165 -1.8096,0.93198 -1.70908,1.68132 -1.69605,-1.11633 -0.31935,-2.44089 -1.20404,0.0255 -2.53225,-2.50746 -1.66059,-0.45064 -0.93909,-0.90125 -2.9486,0.44892 -1.05146,1.32286 -1.42877,0.41478 0.10528,-3.69548 -0.67417,-2.48528 -1.36134,-0.24579 0.1845,-2.40847 1.42994,1.05147 1.63456,-1.16071 -1.34715,-2.28386 -0.83502,0.0632 -0.86222,0.55645 -0.0899,1.61304 -0.60911,-1.45088 0.88942,-0.89443 1.99766,-0.45404 2.02723,2.43407 0.90244,-0.0717 1.69488,0.15875 0.0946,-1.59256 0.47783,0.50354 0.47192,0.31237 0.3974,-0.44039 -0.40095,-0.90979 1.59079,-1.49185 2.32647,1.37749 0.10763,1.92029 2.93085,0.62814 0.94384,2.64402 2.73924,2.48357 2.43764,1.71716 1.56005,0.50014 z m 105.43016,-11.68901 -0.27794,-0.55815 1.23242,-2.01417 -0.57127,-3.46506 1.73864,-0.92003 0.59374,1.66255 1.48554,-2.39993 1.05973,-1.70351 0.41278,-2.36751 1.01598,-1.07365 -0.63395,-1.58914 -3.05858,1.59597 -2.46604,0.0597 -0.33116,-1.54306 -2.16799,-2.55355 -2.31581,-0.31067 -1.90659,-3.60843 -0.65761,-2.58086 -0.95566,-2.40847 -2.33356,-1.33993 -3.19934,0.11605 -2.80429,0.95929 -1.38263,1.23069 1.22651,1.52428 -2.69076,4.12733 0.28741,0.67424 -2.55829,1.37407 -1.76465,-0.73568 -2.16207,-0.17069 -1.77767,-0.90467 -2.04142,1.63181 -3.79781,1.06853 -3.60383,-0.44892 -0.97104,-1.43723 -4.30046,-1.28701 -2.72861,0.81761 -2.20109,-0.98147 -0.23655,-1.84519 -3.57782,-0.96783 -1.83916,-0.94051 -1.77413,2.67304 0.80072,1.14364 -1.62982,1.88103 -4.39747,-0.68789 -0.63513,-1.30409 -3.18041,-0.65887 -7.36852,3.97713 -0.809,0.19118 -1.20286,-1.18973 -2.18217,0.0136 -3.00418,-3.34557 -3.24309,0.62133 -1.27737,-1.35529 -1.1378,1.21873 -3.48792,-5.89058 -1.48909,-1.35189 -0.17741,-1.46624 -5.63106,2.43919 0.10053,-1.04805 -3.78361,-0.53768 -0.59374,-2.82837 -3.0846,-0.33285 -1.27619,1.1351 -4.85046,1.45259 -5.93503,0.93199 -0.97339,0.74591 0.0828,1.69157 -0.0296,1.39114 -1.48198,1.0583 2.50624,1.49526 -0.47901,1.12827 -4.0178,0.2475 -1.0148,-1.11974 -2.95805,0.198 -2.30518,0.71862 -2.88827,-1.75301 -4.54175,-0.31408 -3.13429,2.50236 -0.60437,1.11974 -1.23006,-0.81762 -1.07867,1.49867 -0.23537,1.46625 -0.45536,1.87592 1.05147,1.39966 1.51865,0.11949 1.94325,3.41896 -2.64107,1.34847 -1.50919,3.11172 0.89534,0.55475 0.35482,2.82496 1.83562,2.7857 -1.16263,1.51062 -2.36668,-1.61646 -2.58076,-2.06025 -1.51155,0.4916 -2.49087,-1.60451 -2.90956,-0.73569 -1.09404,0.35504 -1.65466,-1.79909 -4.05092,-2.2429 0.21763,-0.60083 1.7954,0.0871 -10e-4,-3.23632 2.50388,-0.7886 -1.71616,-0.22361 1.00888,-1.76666 1.52456,0.0358 -0.12774,-2.81471 0.75578,-0.53427 -1.57542,-1.45258 -2.87052,-1.34335 -2.85517,0.18946 -0.98167,-1.98685 -1.50091,-0.15534 -0.62685,-2.62183 -3.35073,0.60255 -0.14667,-2.0705 1.06921,-0.15533 0.64696,-0.94905 -1.60143,-0.84151 -1.60027,-2.35044 -0.49557,-2.38798 -3.81081,-0.82785 -1.30812,-3.28412 0.47428,-1.12486 0.12065,-2.35556 0.20934,-0.39259 0.55471,-0.46257 -0.26494,-0.29701 2.0438,-1.21362 -0.85159,-0.94222 -1.53875,-0.38406 2.29216,-1.64205 3.88769,-3.93617 -2.61032,-1.98002 0.94857,-1.1334 -1.59317,-1.82982 0.51213,-2.64744 -1.33177,-1.72911 1.51155,-2.01075 -2.21056,-1.22899 0.47665,-1.95101 3.09998,-1.84689 4.56541,1.1334 3.85458,0.35846 8.2958,3.50601 -0.12183,2.25826 -1.62036,1.50721 -3.33299,0.0494 -7.29992,-1.52086 1.66412,1.456 0.45418,3.69719 4.13607,1.7496 1.3093,-0.51378 -2.70731,-2.09098 0.9332,-0.60596 5.7647,1.49696 -1.32231,-2.03976 4.08758,-2.67987 3.23008,1.53282 -0.57718,-3.06223 0.48611,-1.7786 -1.29038,-1.6267 4.30048,0.39771 1.27855,1.42528 -1.96809,0.8398 0.54052,1.43041 3.07632,-0.2697 0.16203,-1.32627 9.21953,-3.21925 2.34421,1.73764 6.595,-1.93907 3.10708,-2.00563 5.51516,0.70837 6.7866,2.8847 1.39683,-1.29213 -3.2975,-1.93054 -0.28741,-3.80644 2.55,-1.27506 0.83739,-2.06196 4.29574,-1.922 2.02486,1.91346 -0.74631,2.18998 0.47428,1.60451 0.44944,4.70428 0.46956,2.26849 -2.79484,3.32338 -3.9693,0.34992 1.95627,1.44064 2.76999,-0.52061 3.78362,-3.24144 1.40865,-3.10831 2.39743,0.6401 1.76229,-0.58547 -2.27324,-1.44407 -3.43706,0.0205 0.17977,-2.45115 -0.11827,-4.07613 1.96573,0.65035 0.46836,1.56695 1.71972,0.19458 0.53579,-1.59084 1.92078,-0.39601 1.84508,-0.77153 3.85221,1.62669 3.10708,0.20995 -4.80313,-2.21558 0.21052,-2.43235 9.77542,-0.78349 -1.25372,-0.85516 5.2727,-2.93932 10.91321,-1.50721 1.58016,0.59059 8.52879,-3.1561 3.80963,0.20142 5.91374,0.94392 5.24194,-0.0221 3.81555,1.41844 -0.9533,2.73962 -10.70978,4.26389 7.45604,-1.16583 4.26263,0.41648 8.14203,-0.18605 0.0202,0.89956 4.23069,0.54791 5.49505,-1.96296 5.92202,0.79542 2.39151,1.04806 -1.72917,2.47504 1.64402,1.51233 1.93497,0.9115 3.23482,-2.18486 1.82498,1.05999 3.83565,-0.4694 3.4205,0.97124 2.62452,-0.47623 -0.20224,-2.5399 3.29986,-0.65717 8.86115,0.99685 3.38503,1.54305 5.26559,1.95101 9.49156,-0.39601 2.79365,0.89273 -10e-4,1.8486 1.40155,1.25799 3.06569,-0.74933 8.85996,-0.23385 2.34421,1.86396 1.65821,-0.0887 0.61267,-2.58429 8.07935,0.61621 7.26089,2.10804 -0.0106,4.47213 -0.0177,4.74355 -2.70967,1.72057 1.50918,1.45771 0.66944,2.45114 -1.10232,0.80396 -4.0521,0.23556 -3.71028,1.00196 -4.21413,2.30775 -1.24306,1.75643 -0.80428,0.38918 -1.89476,-1.42528 -6.76414,1.14534 -2.85279,1.10609 -0.51804,1.44576 -1.78121,2.18144 2.19517,0.89785 -0.8977,2.24119 0.95684,1.38089 -2.01067,0.1229 0.0189,3.03149 -3.45007,1.59939 -0.69073,2.17803 -1.61918,0.84664 -1.45833,3.21414 -1.70788,1.55841 -0.99943,-4.85789 -0.92017,-5.56799 0.81609,-3.51113 2.33592,-2.46139 2.55237,-1.44918 1.38145,-1.72057 6.84103,-5.23001 0.93436,-3.14415 -2.18571,0.35845 -1.39565,2.00564 -3.71738,2.60647 0.31344,-3.24486 -3.60621,0.2953 -4.48498,3.69207 -0.37138,2.57745 -2.86461,0.78348 -1.86993,-0.90296 -2.82914,-1.44577 -2.71795,1.4287 -4.27563,-1.14022 -5.21119,0.85516 -3.70555,2.30263 -3.68308,3.33022 -1.79068,2.04147 -3.86404,2.89836 2.73334,0.7169 -0.32645,1.85713 3.3732,-1.20338 3.15912,0.1724 1.42403,2.53136 -0.16203,2.92397 -1.62037,3.31313 0.35719,1.15388 -0.81373,3.81326 -1.48436,1.56866 -1.90776,3.69719 -3.63341,4.33047 -1.23006,2.11829 -3.2561,1.94247 -2.3442,-1.15047 z m -98.13734,4.87498 -2.70258,0.59571 -0.0224,1.11803 3.99652,0.54622 3.12126,-0.38747 0.26967,2.00563 1.60854,0.21848 0.19042,3.03321 -2.65527,-0.5411 -2.73451,1.78885 -0.0225,-2.83007 -1.37435,-1.29213 -0.99114,2.13877 -1.03254,-0.10588 -2.49324,1.5533 -0.37847,-0.61108 0.95211,-2.33678 -0.45182,-1.94248 -1.20757,-0.53597 1.91723,-0.78006 1.50919,-2.97346 1.6582,-0.52915 -0.1502,1.35189 z m 70.10621,42.82666 -0.097,0.41478 -0.9805,0.49843 -1.91959,0.68788 -2.06864,0.77324 -0.0296,1.64548 -1.01834,0.5445 -0.28387,-2.90518 -1.94088,-0.53256 -0.93438,0.50525 -2.20582,-1.2085 0.16085,-1.77691 -1.4666,-0.37893 -0.88943,-1.09414 -2.19991,1.27336 -2.51335,0.15192 -0.53341,0.87053 -0.7617,-0.1144 0.10409,3.10831 -0.91782,-0.99002 -1.5967,0.2953 -0.40214,-1.46454 -1.31048,-0.25604 0.57245,-2.14218 -1.042,-0.29018 -0.44945,-2.12512 -1.55767,0.50354 -0.16559,-2.08928 1.89949,-2.68839 -0.0213,-4.02663 -1.86165,-2.27875 -0.36546,0.7613 -1.94089,-2.72938 -1.41457,0.74935 -1.0692,-0.63328 -1.94562,1.53623 -1.34242,1.79227 -1.63574,0.37041 -2.31228,-1.42016 -1.09049,0.53085 -1.09877,1.94248 -0.46364,-1.8742 -0.809,0.58035 -3.51158,-0.058 -1.47844,-1.02757 -1.61208,-2.20022 -0.95566,0.13142 -2.34657,-2.69864 -1.79542,0.31578 -2.32882,-1.75813 -1.2963,-3.10659 1.12953,-0.94052 -1.14135,-2.15072 0.23063,-1.94248 -1.06565,-0.67935 -0.77706,-1.98345 -0.90127,0.16729 -0.77942,-0.52574 -1.00416,-0.37893 -0.31106,-1.55671 -2.35604,-1.32457 0.57482,-0.49672 -0.19042,-3.0332 -1.60854,-0.21849 -0.26967,-2.00562 1.97519,-2.51943 1.39091,0.52061 1.78241,-1.54817 2.14787,-0.22361 0.46837,-0.80225 3.03965,-1.92541 0.94857,-2.22412 -1.19221,-4.48409 3.66298,-1.21874 1.41101,-3.97883 2.65527,0.93369 1.20168,-0.55475 0.46836,-3.21413 2.5299,-1.60622 0.809,-0.19118 0.20817,1.34335 1.81078,1.43723 2.13487,0.79202 1.15435,2.58939 -0.28622,3.27217 4.35606,0.55816 3.04558,1.57378 1.59552,3.66477 5.13195,0.4199 3.55297,0.11605 0.65169,0.78348 4.89659,1.39455 2.87998,-1.63694 4.4637,-0.38577 1.51391,-0.75616 2.50743,-2.20022 -0.88233,-1.54135 1.01125,-1.75643 2.66591,0.80909 1.47725,-1.51575 1.81316,-0.13826 1.58606,-2.05173 2.68602,-0.96269 2.36787,0.29359 0.0331,-1.34677 -1.90186,-1.91175 -1.31521,-0.0273 -0.38084,0.47623 -2.7215,0.16899 -0.5559,-0.9866 1.92197,-4.03346 1.76465,0.73568 2.55829,-1.37407 -0.28741,-0.67424 2.69076,-4.12733 -1.22652,-1.52428 1.38264,-1.23069 2.80429,-0.95929 3.19934,-0.11605 2.33356,1.33993 0.95566,2.40848 0.65761,2.58085 1.90659,3.60843 2.31581,0.31067 2.16799,2.55356 0.33116,1.54305 2.46604,-0.0597 3.05858,-1.59597 0.63395,1.58915 -1.01598,1.07364 -0.41278,2.36751 -1.05973,1.70351 -2.07928,0.73739 -1.73864,0.92002 0.57127,3.46506 -1.23242,2.01417 -1.11534,-1.02245 -0.24364,1.23069 -2.74161,1.06341 -0.31343,1.32799 -2.01422,-0.55134 -0.98996,1.79568 -2.70258,1.922 -2.47549,1.24264 -1.65585,1.66937 -1.15318,0.33626 1.03017,-1.52599 -0.91426,-0.37211 1.77176,-2.30776 -1.84982,-0.99684 -1.21587,1.7257 -1.47843,0.72032 -0.85395,1.66254 -2.06744,0.17752 -0.35127,1.16924 0.88942,1.14364 1.2407,-0.0324 0.21644,2.06709 0.77115,0.38064 2.13014,-1.69156 1.1307,0.78347 1.26318,-0.0871 0.80899,0.30896 -2.71913,1.94418 -2.27442,2.38457 -0.74868,2.05173 1.74928,0.9627 2.05562,3.61014 0.70492,3.32167 -2.58667,0.45063 2.65172,0.67082 -2.12303,1.52599 1.1378,-0.12632 0.99469,1.18973 -0.75104,1.29213 0.16558,1.73936 -0.73803,0.9883 -1.54468,2.84545 -0.6446,0.96782 -0.356,2.50747 -0.66352,0.57353 -0.94857,1.54305 -2.50978,2.37262 -1.02545,1.49015 -2.80903,0.29187 -0.91071,0.61621 -0.24247,0.0632 -1.20286,-0.85346 0.39032,1.54476 z m -53.61871,-19.02023 -0.85394,0.92516 -0.72147,2.29751 4.46132,3.1817 2.99708,0.3943 0.10408,0.71178 1.94089,1.0839 2.47077,0.51721 1.22887,-0.23897 0.0722,-3.33534 0.809,-0.58035 0.46364,1.8742 0.33471,1.17096 1.18393,0.29699 3.64524,-0.37722 -0.66234,-2.14389 1.63574,-0.37041 1.34242,-1.79227 1.94562,-1.53623 1.0692,0.63327 1.41457,-0.74934 1.94089,2.72937 -0.92846,2.07562 -1.01243,0.1997 -1.80961,1.85373 0.18096,1.00879 -1.72681,5.23342 -1.3093,-0.47111 0.11827,2.16096 -0.65051,2.69011 -0.66115,0.0409 -0.69901,-4.15806 -0.92727,1.86737 -0.73213,-1.58403 1.58844,-1.88102 -0.17386,-1.84348 -2.68957,0.0785 -0.93556,-0.53086 0.065,-1.32115 -2.2555,-1.23922 -0.63513,1.29384 1.39564,1.75472 -1.48317,1.23922 1.19695,1.00025 -0.34537,1.36042 0.68126,1.10438 0.2744,3.76377 -1.43349,0.0905 -0.33472,-0.73056 -1.98465,1.64036 0.25902,1.19313 -1.19339,1.80422 -1.53048,0.79372 -2.06862,3.09123 -2.9202,2.94273 0.013,1.06683 -1.73983,0.6162 -0.41042,1.12144 -1.20757,0.40967 -0.34301,1.56525 0.48139,3.9464 -0.79836,3.14756 -0.0165,4.12393 -0.96749,0.65887 -0.50267,1.72911 -1.17801,0.73398 -0.31698,1.33994 -0.87996,0.76811 -1.5979,-2.0466 -1.65466,-6.52898 -1.17211,-2.77034 -0.91071,-4.36118 -1.34005,-3.24145 -1.3093,-8.94426 0.3761,-1.59085 -0.55351,-3.89691 -0.68009,0.40966 -0.039,1.84518 -1.84272,1.17436 -1.51984,-1.04122 -1.82852,-2.71741 2.02723,-0.63156 -2.55592,-1.49356 -0.72147,-1.54135 0.89179,-1.06001 2.04615,0.2936 1.79423,-1.22727 -1.64166,-3.07588 0.15377,-1.30408 -1.13899,-0.65717 1.44058,-2.85398 0.80427,0.73568 1.69133,-0.59059 1.70907,-2.5416 0.76998,-2.1456 2.11711,-2.74132 -0.27795,-1.48673 1.42758,-1.3058 -1.72917,-1.29896 -0.87287,-3.70231 0.83975,-0.94223 2.44947,0.62815 2.42226,-2.18315 0.90127,-0.16729 0.77706,1.98345 1.06565,0.67935 -0.23063,1.94248 1.14135,2.15072 -1.12953,0.94052 1.2963,3.10659 z m 10.39518,-44.77938 -2.5299,1.60621 -0.46836,3.21413 -1.20168,0.55475 -2.65527,-0.93369 -1.41101,3.97884 -3.66298,1.21874 1.19221,4.48409 -0.94857,2.22412 -1.74454,-1.42528 -6.5205,-0.13997 -1.64283,-0.97636 -1.10587,1.99368 -2.72269,-0.97977 -1.47843,1.38943 -3.14848,2.08928 -0.72029,1.81957 -1.0763,-1.42528 -2.05207,0.004 -0.30278,-1.88273 -0.79955,-0.0107 -0.36546,-2.08585 -1.3779,-1.94419 -1.7895,-0.13484 -3.02428,0.64863 -1.62511,-2.13877 -1.60853,-1.10268 -0.19516,-1.22899 0.82438,-1.11803 -0.013,-0.60254 -0.41396,-0.17923 -0.72148,1.07195 -0.95685,0.07 -0.93318,0.33456 -4.29101,1.30068 v 8.71211 l -0.90244,0.0717 -2.02723,-2.43407 -1.99766,0.45404 -0.88942,0.89443 0.4518,-2.32654 -1.28091,-0.2475 -2.68365,-4.3151 1.80368,-1.60621 1.92079,-0.16217 1.02071,-3.12195 -3.24428,-0.95588 -3.26202,1.88103 -1.94325,-3.41896 -1.51865,-0.11949 -1.05147,-1.39967 0.45536,-1.87592 0.23537,-1.46624 1.07867,-1.49867 1.23006,0.81761 0.60437,-1.11974 3.13429,-2.50235 4.54175,0.31407 2.88827,1.75301 2.30518,-0.71861 2.95805,-0.19801 1.0148,1.11975 4.0178,-0.2475 0.47901,-1.12828 -2.50624,-1.49526 1.48198,-1.0583 0.0296,-1.39114 -0.0828,-1.69156 0.97339,-0.74592 5.93503,-0.93198 4.85046,-1.4526 1.27619,-1.1351 3.0846,0.33285 0.59374,2.82837 3.78361,0.53768 -0.10053,1.04806 5.63106,-2.4392 0.17741,1.46625 1.48909,1.35188 3.48792,5.89058 1.1378,-1.21873 1.27737,1.35529 3.24309,-0.62132 3.00418,3.34557 2.18217,-0.0136 z m -44.79067,10.04523 1.60853,1.10268 1.62511,2.13877 3.02428,-0.64863 1.7895,0.13484 1.3779,1.94419 0.36546,2.08586 0.79955,0.0106 0.30278,1.88273 2.05207,-0.004 1.0763,1.42528 0.72029,-1.81957 3.14848,-2.08927 -1.27973,1.58743 1.66057,1.11463 0.94147,-0.80397 0.67653,1.06171 1.60736,0.39259 -2.41518,1.6267 -1.17328,-0.21507 -0.99351,-0.51549 0.1502,-1.35189 -1.6582,0.52915 -1.50919,2.97346 -1.91723,0.78005 1.20757,0.53598 0.45182,1.94248 -0.95211,2.33678 -2.07217,-0.41649 0.0567,-1.57037 -1.56005,-0.50013 -2.43764,-1.71716 -2.73924,-2.48357 -0.94384,-2.64403 -2.93085,-0.62814 -0.10763,-1.92029 -2.32647,-1.37748 -1.59079,1.49184 -0.43644,-0.07 -0.50976,0.60426 -0.0946,1.59256 -1.69488,-0.15876 v -8.71212 l 4.29101,-1.30067 0.24956,0.17239 0.6647,0.45404 0.4873,0.33456 -0.41159,0.94905 0.28149,1.1095 0.90125,0.10931 z m -52.41585,-26.77648 3.81081,0.82785 0.49557,2.38798 1.60027,2.35044 1.60143,0.84151 -0.64696,0.94905 -1.06921,0.15533 0.14667,2.0705 -1.32231,0.0614 -1.33178,1.39968 -4.75464,-0.26287 -2.4412,-0.79031 -2.2626,0.11439 -1.28919,0.86029 -0.72266,-1.82982 1.15436,-0.90297 -0.62922,-3.0093 2.14077,-0.0717 1.6322,-2.13366 1.31876,-0.89784 0.0153,-0.99172 z m -0.21408,-7.91671 0.26494,0.29701 -0.55471,0.46257 -0.20934,0.39259 -0.72976,0.47453 0.11118,1.54818 0.49793,0.33285 -0.47428,1.12486 -3.43233,-1.29726 -1.57188,0.48988 -1.23834,-1.22727 -0.13483,-1.95784 3.70437,-1.07536 z m 1.53639,-22.62866 -0.47665,1.95101 2.21056,1.22899 -1.51155,2.01075 1.33177,1.72911 -0.51213,2.64744 1.59317,1.82982 -0.94857,1.13339 2.61032,1.98003 -3.88769,3.93617 -2.29216,1.64205 -7.49153,1.49526 -3.06805,-1.71716 -0.25074,-5.24366 3.52459,-2.46992 3.25137,-3.75351 -1.95271,-0.80397 -1.09168,-4.88179 -4.7239,-2.73619 1.56951,-0.21337 5.39215,1.33481 1.92433,-2.68669 3.06332,-0.8876 2.37732,1.43893 z m -2.63043,27.26125 1.30812,3.28412 -2.55355,1.12827 -2.79602,-1.82981 -0.73212,0.4216 -3.86522,-0.37211 -1.70908,0.81762 1.06093,-3.51456 1.45596,-0.48476 0.99233,1.05318 1.15318,0.0853 0.68126,-1.39626 1.57188,-0.48989 z m 146.74593,18.26577 -1.92197,4.03346 0.5559,0.9866 2.7215,-0.16898 0.38084,-0.47624 1.31521,0.0273 1.90186,1.91174 -0.0331,1.34677 -2.36787,-0.29359 -2.68602,0.9627 -1.58606,2.05172 -1.81316,0.13826 -1.47725,1.51575 -2.66591,-0.80909 -1.01125,1.75643 0.88233,1.54135 -2.50743,2.20022 -1.51391,0.75617 -4.4637,0.38576 -2.87998,1.63695 -4.89659,-1.39456 -0.65169,-0.78348 -3.55297,-0.11605 -5.13195,-0.4199 -1.59552,-3.66477 -3.04558,-1.57377 -4.35606,-0.55817 0.28622,-3.27217 -1.15435,-2.58939 -2.13487,-0.79202 -1.81078,-1.43723 -0.20817,-1.34334 7.36852,-3.97713 3.18041,0.65887 0.63513,1.30409 4.39747,0.68789 1.62982,-1.88103 -0.80072,-1.14364 1.77413,-2.67304 1.83916,0.94051 3.57782,0.96783 0.23655,1.84518 2.20109,0.98148 2.72861,-0.81761 4.30046,1.28701 0.97104,1.43723 3.60383,0.44892 3.79781,-1.06853 2.04142,-1.63181 1.77767,0.90467 z m 22.74543,17.28942 0.27794,0.55815 -1.72681,1.76667 0.11118,1.69497 -3.60739,2.57917 -0.11236,1.37747 1.49973,1.28361 -1.98347,0.75105 -0.80546,1.1368 -3.26911,-0.68105 1.26081,-2.83349 -1.76584,-1.86738 2.70258,-1.92199 0.98996,-1.79569 2.01422,0.55135 0.31343,-1.328 2.74161,-1.06341 0.24364,-1.23068 z m -151.64487,-10.84067 -3.80372,1.06683 -1.79068,1.15388 0.85631,1.88444 1.52574,-0.0205 -0.3359,0.68789 -3.44771,1.6762 -1.79068,-2.9564 1.49381,-0.71007 -4.25553,-1.65913 -2.62333,2.53648 0.11354,0.8142 -2.39743,-0.58377 0.71793,-0.63156 0.50858,-1.72228 1.4808,0.2697 0.13247,-1.11121 -1.13663,-2.51429 -2.43882,-1.37919 -1.86283,0.45745 -2.82676,1.30238 -3.31761,-0.56158 -1.22296,-1.0856 0.66825,-1.58232 0.16676,-1.08218 2.40927,-2.39993 -0.82438,-2.3146 1.28919,-0.86028 2.2626,-0.1144 2.4412,0.79032 4.75464,0.26286 1.33178,-1.39968 1.32231,-0.0614 3.35073,-0.60256 0.62685,2.62184 1.50091,0.15533 0.98167,1.98686 2.85516,-0.18947 2.87053,1.34335 1.57542,1.45258 -0.75578,0.53427 0.12774,2.81472 -1.52456,-0.0358 z m 68.98259,11.64804 -3.03965,1.92541 -0.46837,0.80225 -2.14787,0.2236 -1.78241,1.54818 -1.39091,-0.52061 -1.97519,2.51942 -3.12126,0.38747 -3.99652,-0.54622 0.0224,-1.11803 2.70258,-0.59571 1.17328,0.21507 2.41518,-1.6267 -1.60736,-0.39259 -0.67653,-1.06171 -0.94147,0.80396 -1.66057,-1.11462 1.27973,-1.58744 1.47843,-1.38943 2.72269,0.97977 1.10587,-1.99368 1.64283,0.97636 6.5205,0.13997 z m 34.41325,48.92549 -1.741,2.92738 -0.25903,-0.30042 -2.31464,1.82128 -0.83501,-0.30041 -1.05975,3.04002 1.73628,3.57771 0.40449,1.74959 -0.24482,2.24632 -0.60557,0.47452 1.62273,3.34386 -0.0828,1.28873 0.86696,3.21413 -1.45005,3.47359 0.0343,-3.34557 -0.31106,-3.378 -0.68718,-1.19314 -0.60083,-2.82154 -0.233,-3.93446 -1.22888,-1.98173 -0.17032,1.51233 -2.24958,2.38116 -1.99885,-0.66741 0.65761,-3.62891 -0.75932,-3.02297 -1.07631,-1.16924 0.40687,-1.42868 -1.6665,-0.81251 -0.76523,-1.9015 0.51095,-2.17291 0.66115,-0.0409 0.65051,-2.69011 -0.11827,-2.16097 1.3093,0.47112 1.72681,-5.23342 -0.18096,-1.0088 1.80961,-1.85372 1.01243,-0.19971 0.92846,-2.07561 0.36546,-0.7613 1.86165,2.27875 0.0213,4.02663 -1.89949,2.68839 0.16559,2.08928 1.55767,-0.50354 0.44945,2.12512 1.042,0.29018 -0.57245,2.14218 1.31048,0.25604 0.40214,1.46454 z m -21.42312,-14.95605 -0.0722,3.33534 -1.22887,0.23897 -2.47077,-0.51721 -1.94089,-1.0839 -0.10408,-0.71178 -2.99708,-0.3943 -4.46132,-3.1817 0.72147,-2.29751 0.85394,-0.92516 1.79542,-0.31578 2.34657,2.69864 0.95566,-0.13143 1.61208,2.20023 1.47844,1.02757 z m 32.64621,15.1148 -1.9811,1.11974 -0.35482,1.85201 -0.89416,0.55134 -0.67535,2.37262 1.34833,2.0739 0.32881,1.54818 3.51276,4.93983 1.08931,3.04516 0.0473,2.81984 -0.28268,1.4321 -0.4518,2.25997 -1.30221,1.52768 -1.56596,0.7886 -0.62923,0.0666 -0.66352,1.90493 -2.84687,2.26679 0.23063,-2.98711 -0.72502,-1.34847 0.94975,-1.17266 1.18866,-0.24067 0.4317,-1.78886 0.68836,0.22019 1.77294,-1.5789 0.0106,-5.597 0.22472,-1.37065 -0.58901,-1.85372 -2.56774,-3.79278 -0.46719,-1.25289 -2.6328,-2.62524 1.82025,-1.87591 -1.47844,-2.05684 -1.54585,0.21507 -0.23181,-1.67619 -1.40629,-1.94931 0.53341,-0.87053 2.51335,-0.15192 2.19991,-1.27336 0.88943,1.09415 1.4666,0.37892 -0.16085,1.77692 z m 10.00605,-2.47503 0.24247,-0.0632 0.35009,0.33455 -0.12537,0.50696 -0.4187,0.19288 -0.35836,-0.19801 0.0402,-0.39259 z m -0.83029,1.25799 0.097,-0.41478 0.15021,0.28848 z m -34.49839,0.0494 -0.51095,2.17291 -1.06447,-3.50431 -1.08813,-0.0854 -0.50031,-0.6657 -0.0603,1.28361 -2.45065,1.70351 -0.2744,-3.76377 -0.68126,-1.10438 0.34537,-1.36041 -1.19695,-1.00026 1.48317,-1.23922 -1.39564,-1.75472 0.63513,-1.29384 2.2555,1.23922 -0.065,1.32116 0.93556,0.53085 2.68957,-0.0785 0.17386,1.84348 -1.58844,1.88103 0.73213,1.58402 0.92727,-1.86736 z m -1.5494,-13.70658 0.66234,2.14389 -3.64524,0.37722 -1.18393,-0.29699 -0.33471,-1.17096 1.09877,-1.94248 1.09049,-0.53084 z m -118.80587,-63.60332 0.73685,0.36527 4.9427,0.18435 1.18039,0.98831 0.62922,3.0093 -1.15436,0.90296 0.72266,1.82982 0.82438,2.31459 -2.40927,2.39994 -0.16676,1.08218 -1.18275,-0.72373 -3.40395,0.40625 -1.50209,-0.72033 -0.83502,-1.59427 -2.86816,-0.24237 -2.90483,-1.36042 -0.27204,-4.07443 -0.85512,-0.64863 0.2259,-3.09123 3.41342,-1.11462 3.24782,-0.50696 z m 18.94289,-36.07751 -3.09998,1.84689 0.64105,-1.0361 -2.37732,-1.43893 -3.06332,0.8876 -1.92433,2.68669 -5.39215,-1.33481 -1.56951,0.21337 -1.13662,1.62669 -2.88945,-0.44038 -3.35901,2.6389 0.47311,0.87735 -3.07988,2.19851 -0.0426,1.91347 -1.43231,1.74106 0.4873,1.36212 -2.06508,0.12631 -1.13308,1.58232 0.85158,7.51728 -1.76348,2.66963 -1.58961,-0.60767 -3.23364,2.34873 -3.23718,0.32432 -1.72917,-1.50381 1.27264,-1.23922 -1.75757,-0.55475 0.85867,-1.53793 -1.27855,-1.51746 0.82793,-3.28583 3.27148,-0.97635 0.12892,-0.74081 3.44298,-2.35043 2.59022,-2.89494 1.95863,-0.81591 1.27737,-3.21071 1.89595,-1.47649 1.86636,-2.34872 3.29751,-1.59939 1.91132,-2.35385 7.16391,-0.92515 3.04321,-1.37237 4.84335,-0.26969 5.43709,2.13707 z m -6.97584,33.52053 -0.0153,0.99173 -1.31876,0.89783 -1.6322,2.13366 -2.14077,0.0717 -1.18039,-0.98831 0.0687,-1.27506 -2.91193,-0.96442 0.0284,-1.82982 1.70908,-0.81762 3.86522,0.37212 0.73212,-0.42161 z m 164.39015,42.29069 0.80546,-1.1368 1.98347,-0.75105 1.58606,3.18171 0.36783,2.84373 -0.91071,2.45797 -1.93734,0.97123 -2.00003,0.79543 -0.54998,-1.98344 0.81256,-1.93224 -0.66825,-1.98345 0.822,-0.80224 z m -171.71964,-25.07467 1.22296,1.0856 -1.45951,1.07536 -1.40275,2.87958 -1.46542,0.40454 -2.20346,0.4182 -2.55592,-0.0581 -1.3637,-1.29385 -0.69191,-0.85516 1.73155,-2.70889 1.11295,0.60426 3.38148,-0.89955 0.98169,-0.94053 z m 9.96583,6.97618 0.0567,-2.84543 -2.65527,-3.78595 1.86283,-0.45745 2.43882,1.37919 1.13663,2.51429 -0.13247,1.11121 -1.4808,-0.2697 -0.50858,1.72228 z m 0,0 2.39743,0.58377 -1.6724,2.10293 -0.1029,1.39285 -2.54764,-1.03269 -2.73925,1.23922 -3.34244,-0.55133 -1.04082,-0.81079 -2.17271,-1.50721 -1.84982,-2.94785 1.46542,-0.40454 1.40275,-2.87958 1.45951,-1.07536 3.31761,0.56158 2.82676,-1.30238 2.65527,3.78595 z m -9.29758,-8.5585 -0.66825,1.58232 -2.71204,-0.28848 -0.98169,0.94053 -3.38148,0.89954 -1.11295,-0.60425 -0.33354,-1.42016 3.10116,-2.14731 1.50209,0.72033 3.40395,-0.40625 z m 127.408,68.16934 0.73803,0.37894 -0.14193,1.47137 1.28801,-0.0786 -0.35482,2.70888 0.16794,2.29069 1.55414,-1.78373 0.96749,0.86199 1.18156,-1.40138 1.0077,0.29188 1.34005,2.24119 -0.10171,2.00052 1.4737,2.12 -0.7676,3.05539 -3.44771,0.11947 -1.23716,1.73253 0.95567,4.54895 -1.78004,-2.43407 -1.63102,-0.0836 0.20699,-1.80934 -1.51865,0.16216 -0.0308,2.86934 -1.41339,4.89374 0.15613,2.12342 0.98286,-0.1468 0.68718,2.31629 0.21644,1.84689 0.97577,1.61645 0.93437,0.0581 0.83266,1.36212 -0.44708,1.22728 -1.14254,0.24238 -0.039,-1.44405 -1.56714,-0.46429 -2.41872,-4.59332 -0.74868,-0.36529 0.90007,-4.30656 1.45005,-3.47358 -0.86696,-3.21413 0.0828,-1.28873 -1.62273,-3.34387 0.60557,-0.47452 0.24482,-2.24631 -0.40449,-1.74959 -1.73628,-3.57771 1.05975,-3.04003 0.83501,0.30042 2.31464,-1.82129 z m 7.14852,23.46506 -1.35898,-0.19289 0.0828,-1.33311 -0.95092,0.30725 -0.29805,-1.68814 -0.95567,-4.54895 1.23716,-1.73253 3.44771,-0.11948 1.21586,1.01732 0.9663,-1.59767 0.71203,0.63326 0.94383,-0.90296 -0.0106,5.597 -1.77294,1.5789 -0.68836,-0.2202 -0.4317,1.78886 -1.18866,0.24068 z m -3.8321,-28.39636 1.40629,1.9493 0.23181,1.6762 1.54585,-0.21507 1.47844,2.05684 -1.82025,1.87591 2.6328,2.62524 0.46719,1.25289 2.56774,3.79277 0.58901,1.85373 -0.22472,1.37065 -0.94383,0.90296 -0.71203,-0.63326 -0.9663,1.59767 -1.21586,-1.01732 0.7676,-3.05539 -1.4737,-2.12 0.10171,-2.00051 -1.34005,-2.24119 -1.0077,-0.29189 -1.18156,1.40138 -0.96749,-0.86198 -1.55414,1.78372 -0.16794,-2.29068 0.35482,-2.70889 -1.28801,0.0785 0.14193,-1.47137 -0.73803,-0.37893 1.741,-2.92738 0.91781,0.99002 -0.10409,-3.10831 z m -152.24689,-76.84221 2.6813,1.73253 2.35248,-0.93369 2.89063,0.75617 -0.2259,3.09123 0.85512,0.64863 0.27204,4.07443 -3.77888,1.11291 0.4731,2.516 1.6724,1.3314 -1.44295,1.58061 0.26376,1.01903 -0.22118,0.42503 -1.29275,-0.51037 -1.508,0.72202 -2.537,-0.33967 -0.26256,0.0802 -0.60793,-0.37894 -2.62571,0.20313 1.00888,-3.25681 -3.04675,-1.17778 0.1301,-0.72202 -0.50385,-0.85518 -0.20225,-1.49184 -0.10999,-2.50576 1.80487,-1.00538 0.27558,-2.40505 0.052,-0.99855 2.20109,0.28334 0.72621,-0.81932 -0.57008,-2.37944 z m 21.89621,1.07707 -4.9427,-0.18435 -0.73685,-0.36527 1.01243,-1.22045 1.8238,-0.46941 2.91193,0.96442 z m -13.07054,8.29223 2.90483,1.36042 2.86816,0.24237 0.83502,1.59427 -3.10116,2.14731 -3.22536,-0.95758 -0.46955,0.99172 -1.44532,-0.4182 -1.6724,-1.3314 -0.4731,-2.516 z m 15.3639,-35.47667 -3.79426,0.68277 -1.75283,3.92762 -2.47313,0.99344 -2.91075,2.94102 -0.56061,2.90689 3.07869,2.86251 -1.03135,1.5294 -2.66947,1.26312 -0.16441,2.69182 -1.37553,3.28412 -1.91487,-0.14509 -0.52987,1.4799 -1.77885,0.42161 -3.36492,-7.09738 0.33708,-1.54647 1.76348,-2.66963 -0.85158,-7.51728 1.13308,-1.58232 2.06508,-0.12631 -0.4873,-1.36212 1.43231,-1.74106 0.0426,-1.91347 3.07988,-2.19851 -0.47311,-0.87735 3.35901,-2.6389 2.88945,0.44038 1.13662,-1.62669 4.7239,2.73619 z m -11.85705,40.82104 0.33354,1.42016 -1.73155,2.70888 -2.55237,1.14705 -1.38973,-0.33455 -2.60087,-1.12145 -2.72268,0.30383 -0.67653,-0.46769 -0.56418,0.008 -0.31224,-0.58205 0.0508,-0.32603 0.0249,-0.16386 0.26256,-0.0802 2.537,0.33968 1.508,-0.72202 1.29275,0.51036 0.22118,-0.42502 -0.26376,-1.01903 1.44295,-1.58061 1.44532,0.4182 0.46955,-0.99173 z m -0.7061,4.98421 1.3637,1.29385 2.55592,0.0581 0.18806,2.52624 -3.43588,-0.99171 -1.495,0.51036 -0.0508,1.12828 1.78239,2.50918 0.84213,1.40479 -2.70968,-1.74106 -1.34833,-1.39285 -0.93201,-2.20534 -0.49203,-0.19629 -0.2673,1.08048 -0.30396,-0.099 -0.50385,-1.48332 1.41693,-0.26116 1.49381,0.28846 0.0781,-0.77665 0.37139,-0.33285 0.11117,-0.6657 z m 6.12308,0.93369 1.84982,2.94785 2.17271,1.50721 -0.56181,0.99685 1.03846,1.44405 -1.04556,2.09952 -1.28328,0.15874 0.32881,-1.00367 -1.55176,-1.39285 -0.77944,1.01904 -1.88884,-1.67108 0.32052,-1.12145 -0.24601,-1.04293 0.21053,-1.04634 -0.57955,0.0494 -0.18806,-2.52624 z m 13.69268,5.61065 -1.55887,3.04003 0.63632,1.15388 -1.22059,-0.28335 -1.54467,0.89784 -1.7209,1.12316 -1.27382,-0.7647 -2.61742,0.53596 -0.0993,-1.35529 -0.83976,-0.9627 1.04556,-2.09952 -1.03846,-1.44405 0.56181,-0.99685 1.04082,0.81079 3.34244,0.55133 2.73925,-1.23922 z m 120.7302,88.86405 1.72089,2.07733 0.53934,1.38944 -0.0237,4.34582 1.41339,3.59306 -1.52338,-0.21848 -3.41814,-3.1083 -0.92965,-2.41359 -0.6103,-5.08492 -0.36428,-1.01903 1.56714,0.46428 0.039,1.44406 1.14254,-0.24238 z m -157.82828,-105.47923 0.20225,1.49185 -0.53697,1.3809 -2.71323,-1.03439 -2.65645,-2.6389 1.40275,-0.90125 0.68008,0.0358 0.18569,0.007 1.82143,-0.0581 z m 5.84751,7.67945 -0.0249,0.16386 -0.0508,0.32602 -0.10526,0.61962 0.4175,-0.0375 0.56418,-0.008 0.67653,0.4677 -1.66886,0.88418 -0.88351,1.57721 -1.3578,-1.01222 -1.7268,0.77836 -0.38558,-1.15558 -0.92491,0.27994 -0.15258,-0.7135 2.38915,-2.34531 2.62571,-0.20312 z m -0.19161,-17.30649 -1.27618,-0.20312 -0.8847,-3.92421 1.17329,-1.24776 1.35069,-0.43186 1.53994,-1.16411 -0.17623,2.05854 0.78061,1.02928 -2.40806,2.27362 z m -5.45365,11.11889 0.50385,0.85517 -0.1301,0.72202 -0.91072,-0.19629 z m -0.53697,1.3809 0.91072,0.19629 3.04675,1.17778 -1.00888,3.25681 -2.38915,2.34531 0.15258,0.7135 0.92491,-0.27994 0.38558,1.15558 -0.68956,1.9476 1.47845,3.10831 -0.10645,0.11604 -0.0331,-0.15533 -0.19516,0.008 -0.18214,0.14679 0.0426,0.20996 -2.22947,1.44576 -3.14967,-1.15558 -1.35542,1.01049 0.10999,1.59939 -2.3998,-0.0905 -0.26138,-0.44379 -0.44827,0.26628 -2.1798,-0.33285 -2.88354,-1.66255 1.03254,-3.30118 0.0899,-3.50943 -1.44768,-1.88103 -2.84569,-2.21217 -1.72445,-1.19826 -0.0626,-0.92686 2.82677,0.0256 0.6718,0.85858 2.1526,-0.35845 -0.82082,-2.23777 1.16855,-0.15533 1.54585,0.92344 2.91547,-2.22241 0.0414,-1.54305 1.54703,-0.51891 2.65645,2.63891 z m 2.30518,-8.78894 -0.27558,2.40506 -1.80487,1.00537 0.10999,2.50576 -1.61445,-1.71716 -1.82143,0.0581 -0.73212,-0.24921 1.72562,-1.85371 0.39031,-1.49527 3.26084,-1.16925 z m 10.67785,15.94436 -0.26493,0.70666 0.28977,0.76129 -0.007,0.72885 -2.12658,0.37212 -0.0686,2.81129 2.0497,1.70522 0.75341,2.21047 1.72209,1.57549 1.48434,-0.0239 -0.009,1.22387 1.96691,0.87565 1.97756,1.29897 -0.31817,0.88419 -1.56832,-0.76641 -0.82673,1.93907 1.07984,0.69812 -1.44295,3.34386 -0.75578,-0.0257 0.14666,-1.89467 -0.93437,-3.14074 -3.10235,-2.79594 -1.11178,0.0581 -3.20406,-2.7857 -1.62392,-3.82691 -2.26851,-0.96441 -2.0083,1.49697 -1.47844,-3.10831 0.68955,-1.9476 1.7268,-0.77835 1.3578,1.01221 0.88351,-1.57721 1.66886,-0.88418 2.72269,-0.30383 z m -6.56426,-1.27678 -0.4175,0.0375 0.10526,-0.61962 z m 11.19827,1.31945 -1.33533,0.65375 -0.11117,0.6657 -0.37139,0.33285 -0.0781,0.77665 -1.49381,-0.28847 -1.41693,0.26117 0.19042,-0.24752 0.007,-0.72885 -0.28976,-0.76129 0.26493,-0.70666 1.38973,0.33455 2.55237,-1.14705 z m 4.10768,3.87812 0.57955,-0.0494 -0.21053,1.04634 0.24601,1.04293 -0.32052,1.12145 -1.24544,2.30775 -1.28683,-0.78689 -0.11945,-0.12119 -0.84213,-1.40479 -1.78239,-2.50918 0.0508,-1.12828 1.495,-0.51036 z m 4.18574,6.20979 -1.6381,0.88589 -0.82437,-1.59767 0.46008,-0.6657 0.77944,-1.01904 1.55176,1.39285 z m 1.28328,-0.15874 0.83976,0.9627 0.0993,1.35529 -3.20761,1.17095 -0.0379,-0.15191 -0.35601,-0.007 -0.14903,-0.41137 -0.10999,-1.8742 1.6381,-0.88589 z m -5.17451,-2.88982 1.88884,1.67108 -0.46008,0.6657 -1.09168,0.52231 -0.0485,0.56499 -0.009,0.55987 -1.42757,-1.33822 -0.097,-0.33797 z m 2.90601,6.37876 3.20761,-1.17095 2.61742,-0.53596 1.27382,0.7647 1.7209,-1.12316 0.49794,0.79371 -0.9734,1.51746 -1.65112,-0.63498 -2.26023,0.74081 0.0698,0.79714 -0.61858,0.31406 -0.83265,-0.65716 -0.4116,1.06171 1.26909,2.07391 -0.94384,0.93539 2.01186,1.36042 -1.42876,2.04489 0.40332,1.74277 -0.28504,0.42843 -1.71381,-1.39455 -0.45772,0.69813 -1.23598,-2.63378 1.42168,-1.35871 -1.36609,0.25262 -1.8983,-3.29436 1.67713,-2.35555 z m 11.58501,-2.67986 0.90126,1.38261 0.9391,0.39088 -0.013,0.51379 -2.63635,0.0427 -1.14254,0.91832 -1.00651,0.46259 -0.28267,-0.78519 0.9734,-1.51746 -0.49794,-0.79372 1.54467,-0.89783 z m -43.19751,-1.17949 -0.44589,0.24409 -0.26376,-0.4216 0.44827,-0.26629 z m -5.77299,-2.17291 2.88354,1.66255 2.1798,0.33285 0.26376,0.4216 0.44589,-0.24409 2.3998,0.0905 0.0899,1.10438 -1.93025,1.63863 -1.75756,0.55647 -2.15852,3.61184 0.90481,1.85371 -3.86759,4.73672 -3.78834,0.0614 -1.48553,1.36894 -0.90362,0.22874 -1.00534,-2.18828 -1.50327,-0.55304 0.64105,-1.96637 -0.54998,-1.00539 0.68481,-6.092 1.20995,-1.31433 -0.59492,-0.84321 -3.58609,-0.10067 -0.88943,-2.26168 2.31819,-1.99198 1.0692,0.46087 4.67304,0.43868 z m 15.1652,-0.84663 -0.36784,0.20995 -0.0426,-0.20995 0.18214,-0.1468 0.19516,-0.008 z m -3.89716,-21.76154 0.12774,0.5189 0.39976,-0.21507 0.032,-0.54622 z m 12.03801,21.36212 0.065,0.0648 0.10172,-0.0239 0.0414,-0.10244 -0.0224,-0.099 -0.0816,-0.007 -0.0828,0.0683 z m 10e-4,4.84083 0.18332,0.0136 0.0272,-0.18264 -0.1845,-0.012 z m -10e-4,-4.84083 0.0212,-0.099 0.0828,-0.0683 0.0816,0.007 0.0224,0.099 -0.0414,0.10245 -0.10172,0.0239 z m 10e-4,4.84083 0.0261,-0.18093 0.1845,0.012 -0.0272,0.18264 z m 8.63997,-2.42042 1.28683,0.7869 0.097,0.33797 z m 3.96103,0.81592 0.82437,1.59767 0.10999,1.8742 0.14903,0.41137 0.35601,0.007 0.0379,0.15192 0.0934,0.36699 -1.67713,2.35554 -1.13426,-2.25484 0.0911,-2.8625 0.009,-0.55988 0.0485,-0.56499 z m -45.14077,12.69266 -2.60086,0.40625 0.33353,-3.17146 -1.1449,-0.82615 1.37436,-5.41948 -0.15731,-2.31116 3.58609,0.10067 0.59492,0.84321 -1.20995,1.31433 -0.68481,6.092 0.54998,1.00539 z"
         id="path1" />
    </g>
  </g>
</svg>
