<?xml version="1.0" encoding="UTF-8" standalone="no"?>
<!-- Created with Inkscape (http://www.inkscape.org/) -->

<svg
   width="169.33333mm"
   height="105.83333mm"
   viewBox="0 0 169.33333 105.83333"
   version="1.1"
   id="svg1"
   inkscape:version="1.3.2 (1:1.3.2+202311252150+091e20ef0f)"
   sodipodi:docname="symbols.svg"
   xmlns:inkscape="http://www.inkscape.org/namespaces/inkscape"
   xmlns:sodipodi="http://sodipodi.sourceforge.net/DTD/sodipodi-0.dtd"
   xmlns="http://www.w3.org/2000/svg"
   xmlns:svg="http://www.w3.org/2000/svg">
  <defs
     id="defs1" />
  <sodipodi:namedview
     id="namedview1"
     pagecolor="#ffffff"
     bordercolor="#999999"
     borderopacity="1"
     inkscape:showpageshadow="0"
     inkscape:pageopacity="0"
     inkscape:pagecheckerboard="0"
     inkscape:deskcolor="#d1d1d1"
     inkscape:document-units="mm"
     inkscape:zoom="0.5485984"
     inkscape:cx="318.08332"
     inkscape:cy="201.42239"
     inkscape:window-width="1920"
     inkscape:window-height="1043"
     inkscape:window-x="0"
     inkscape:window-y="0"
     inkscape:window-maximized="1"
     inkscape:current-layer="layer1"
     showgrid="false" />
  <g
     inkscape:label="Layer 1"
     inkscape:groupmode="layer"
     id="layer1"
     transform="translate(-20.108334,-95.51458)">
    <text
       xml:space="preserve"
       style="font-style:normal;font-weight:normal;font-size:11.4724px;line-height:1.25;font-family:sans-serif;fill:#000000;fill-opacity:1;stroke:none;stroke-width:0.286808"
       x="113.377"
       y="189.58366"
       id="text2"><tspan
         sodipodi:role="line"
         id="tspan2"
         style="stroke-width:0.286808"
         x="113.377"
         y="189.58366" /></text>
    <rect
       style="fill:#02886f;fill-opacity:1;stroke-width:0.4"
       id="rect1"
       width="169.33333"
       height="105.83333"
       x="20.108334"
       y="95.51458" />
    <g
       id="g3"
       transform="matrix(0.21107919,0,0,0.21107919,53.730953,117.05971)">
      <g
         id="g2">
        <text
           xml:space="preserve"
           style="font-style:normal;font-weight:normal;font-size:70.9094px;line-height:1.25;font-family:sans-serif;fill:#9bece1;fill-opacity:1;stroke:none;stroke-width:1.77275"
           x="323.3851"
           y="356.51309"
           id="text3149-3-0"><tspan
             sodipodi:role="line"
             id="tspan3147-0-4"
             style="font-style:normal;font-variant:normal;font-weight:normal;font-stretch:normal;font-family:Manjari;-inkscape-font-specification:Manjari;fill:#9bece1;fill-opacity:1;stroke-width:1.77275"
             x="323.3851"
             y="356.51309">GE </tspan></text>
        <text
           xml:space="preserve"
           style="font-style:normal;font-weight:normal;font-size:70.9094px;line-height:1.25;font-family:sans-serif;fill:#9bece1;fill-opacity:1;stroke:none;stroke-width:1.77275"
           x="501.70108"
           y="356.23615"
           id="text3149-3-0-9"><tspan
             sodipodi:role="line"
             id="tspan3147-0-4-7"
             style="font-style:normal;font-variant:normal;font-weight:normal;font-stretch:normal;font-family:Manjari;-inkscape-font-specification:Manjari;fill:#9bece1;fill-opacity:1;stroke-width:1.77275"
             x="501.70108"
             y="356.23615">VIZ</tspan></text>
        <text
           xml:space="preserve"
           style="font-style:normal;font-weight:normal;font-size:29.9417px;line-height:1.25;font-family:sans-serif;fill:#9bece1;fill-opacity:1;stroke:none;stroke-width:0.748542"
           x="445.66852"
           y="342.48007"
           id="text13773"><tspan
             sodipodi:role="line"
             id="tspan13771"
             style="font-style:normal;font-variant:normal;font-weight:normal;font-stretch:normal;font-family:Manjari;-inkscape-font-specification:Manjari;fill:#9bece1;fill-opacity:1;stroke-width:0.748542"
             x="445.66852"
             y="342.48007">JS</tspan></text>
      </g>
      <circle
         style="display:inline;fill:none;fill-opacity:1;stroke:#9bece1;stroke-width:4.05837;stroke-dasharray:none;stroke-opacity:1;stop-color:#000000"
         id="path19588-6"
         cx="460.9472"
         cy="332.74384"
         r="34.976864" />
    </g>
    <path
       d="m -110.73556,11.062615 0.85046,0.256685 0.258,0.528211 -0.61364,0.423985 -0.84132,-0.226328 -0.16161,-0.524163 z"
       fill="#96cd8a"
       id="path14"
       style="opacity:0.770095;fill:#ffffff;fill-opacity:0.2;stroke:#ffffff;stroke-width:0.112304"
       clip-path="url(#clipPath423)" />
    <path
       fill="#38896f"
       d="M 67.681603,191.16619 H 43.11963 l 12.280982,-21.3367 z"
       id="path3"
       style="fill:#9bece1;fill-opacity:1;stroke-width:1.2405" />
    <path
       fill="#38896f"
       d="m 121.84749,155.94242 -1.11646,4.58989 -3.34935,-3.47339 -3.34938,3.47339 -1.11644,-4.58989 -4.58987,1.24054 1.2405,-4.58986 -4.58987,-1.1165 3.47342,-3.34932 -3.47342,-3.34935 4.58987,-1.11647 -1.2405,-4.58989 4.58987,1.24054 1.11644,-4.58987 3.34938,3.4734 3.34935,-3.4734 1.11646,4.58987 4.58986,-1.24054 -1.2405,4.58989 4.58986,1.11647 -3.47342,3.34935 3.47342,3.34932 -4.58986,1.1165 1.2405,4.58986 z"
       id="path10"
       style="fill:#9bece1;fill-opacity:1;stroke-width:1.2405" />
    <path
       fill="#38896f"
       d="m 61.281714,127.09444 -7.69112,-3.96964 -7.69113,3.96964 1.488604,-8.43546 -6.202502,-6.07844 8.559478,-1.24053 3.84555,-7.81514 3.845566,7.81514 8.559496,1.24053 -6.202533,6.07844 z"
       id="path12"
       style="fill:#9bece1;fill-opacity:1;stroke-width:1.2405" />
    <path
       fill="#38896f"
       d="m 43.432647,134.19457 c -7.56709,0.12431 -6.20251,4.96205 -3.22531,8.93164 -5.21011,-0.24808 -10.42023,1.24053 -6.57465,7.19495 3.59745,5.70631 7.31896,2.85316 9.67592,-1.24053 l -1.61267,4.46581 -2.35696,4.96205 4.34178,-0.37226 4.46582,0.24809 -2.48102,-4.96205 -1.73672,-4.34174 c 2.35699,4.09368 6.20253,6.94684 9.67595,1.11646 3.72152,-6.07848 -1.48859,-7.44304 -6.69873,-7.1949 2.85316,-3.96964 4.09367,-8.93164 -3.47341,-8.80764 z"
       id="path23"
       style="fill:#9bece1;fill-opacity:1;stroke-width:1.2405" />
    <path
       fill="#38896f"
       d="m 148.5011,169.95096 c -2.10886,0 -5.45822,-0.12431 -5.45822,-0.12431 0,0 0,-0.37225 0.12404,-0.74428 0.12403,-1.11644 0.4962,-3.4734 0.74431,-5.21013 0.12403,-0.86831 0.12403,-1.11642 0,-1.48861 -0.12404,-0.24808 -0.12404,-0.37228 -1.24051,-1.86072 -1.9848,-2.97722 -3.72152,-5.45824 -3.84555,-5.70631 -0.12404,-0.24808 -0.12404,-0.37228 0,-0.62023 0,-0.12431 0.62024,-0.99243 1.36455,-1.98486 2.481,-3.47339 2.35695,-3.34935 2.481,-3.47339 0.12404,-0.1243 0,-0.1243 2.72911,0.99242 1.11646,0.49617 2.2329,1.11642 2.60506,1.2405 0.24809,0.24808 0.37214,0.24808 0.37214,0.49617 0,0.37228 -0.62025,1.98484 -0.86836,2.35697 -0.37214,0.62025 -0.86836,0.74428 -1.48861,0.37226 -0.24808,-0.12431 -0.62026,-0.49623 -0.86834,-0.86836 -0.2481,-0.24809 -0.99241,-1.11646 -1.24052,-1.11646 -0.12404,0 -0.12404,0 -0.12404,0 -0.12403,0 0,0.24809 0.12404,0.62024 0.12404,0.37225 0.24809,0.6203 0.12404,0.74429 0,0.12431 -0.24809,0.24809 -0.4962,0.24809 -0.37213,0 -0.49621,0.1243 -0.37213,0.24808 0,0.12431 0.49619,0.24809 1.11644,0.4962 0.99242,0.37225 1.2405,0.49617 1.48862,0.99242 0.12403,0.1243 0.12403,0.24808 0.12403,0.24808 0,0 0.12404,-0.1243 0.24809,-0.24808 0.12403,-0.12431 0.24808,-0.24809 0.24808,-0.24809 0.12404,0 0.37211,0 0.4962,0 0.24808,0.12431 1.4886,0.4962 1.86075,0.62025 1.11644,0.49625 1.73672,0.99242 2.60505,1.86078 0.24809,0.24808 0.49623,0.4962 0.49623,0.4962 0.24808,0.1243 0.3721,0.1243 0.74428,-0.12431 0.24808,-0.12431 0.49619,-0.37228 1.4886,-1.24049 0.37212,-0.24809 0.62026,-0.4962 0.74431,-0.4962 0,0 0,0 0,0.12431 0,0 0,0.24809 0,0.37228 0,0.37226 -0.12404,0.86836 -0.37213,1.86074 -0.12404,0.99242 -0.37214,1.86078 -0.4962,2.2329 -0.12404,0.62024 -0.62025,1.36452 -1.36456,2.10885 -0.12403,0.24808 -0.24808,0.37228 -0.24808,0.62028 0,0.12431 0,0.99238 0,3.10122 0,2.2329 0,2.8532 0,2.97722 0,0 -0.12404,0.12431 -0.12404,0.12431 -0.12403,0 -0.12403,0 -1.61264,0 -0.86836,0 -1.7367,0 -1.98481,0 z m 3.47343,-12.0329 c 0,-0.1243 -0.12404,-0.1243 -0.24809,-0.24808 -0.24808,-0.12431 -0.86836,-0.99244 -0.86836,-1.11647 0,-0.12431 0,-0.24809 0.12404,-0.37228 0.62026,-0.62025 2.60506,-2.97723 2.97722,-3.34939 0.4962,-0.4962 0.62023,-0.62023 0.74431,-0.4962 0.12404,0 0.12404,0.12431 0.74428,0.86836 0.74431,0.99242 0.9924,1.11645 0.9924,1.24051 0,0 0,0.12431 -0.24809,0.2481 -0.86834,0.74431 -1.36455,1.11643 -2.35695,1.98478 -0.4962,0.37226 -0.99239,0.7443 -1.11644,0.99243 -0.12404,0.1243 -0.24809,0.24809 -0.37214,0.24809 0,0 -0.24808,0 -0.37212,0 z m -1.98482,-1.73666 c 0,0 -0.2481,-0.12431 -0.49621,-0.24808 -0.24809,-0.12431 -0.62024,-0.24809 -0.86835,-0.37226 -0.62024,-0.24808 -0.74429,-0.37228 -0.74429,-0.49625 0,-0.12431 0.12403,-0.37226 1.24049,-1.86073 0.4962,-0.74429 1.11647,-1.4886 1.24051,-1.73671 0.37213,-0.4962 0.62025,-0.86836 0.99239,-1.24048 0.2481,-0.37228 0.2481,-0.37228 0.37214,-0.37228 0.12403,0 0.24808,0 0.49619,0.1243 0.37219,0.24809 1.48864,1.61267 1.61267,1.73673 0.12404,0.12431 0,0.2481 -0.12403,0.49619 -0.24809,0.37228 -1.36456,1.61266 -2.23292,2.60508 -0.37213,0.49617 -0.86833,0.99237 -0.86833,1.11642 -0.12404,0.12431 -0.24809,0.24808 -0.24809,0.24808 -0.12403,0.12431 -0.24808,0.12431 -0.49619,0 z m -1.24052,-3.47339 c -0.12404,-0.12431 -0.12404,-0.37228 0,-0.74431 0,-0.24808 0,-0.37226 0,-0.49622 -0.12404,-0.37229 -0.24809,-0.49621 -0.74428,-0.74433 -0.37214,-0.24808 -0.74431,-0.37225 -0.86836,-0.49617 -0.12404,-0.1243 -0.12404,-0.1243 0.37213,-0.86837 0.86836,-1.36454 1.24051,-1.86074 1.36456,-1.9848 0.12403,-0.12431 0.24808,0 0.37212,0 0.12403,0.12431 2.10885,1.9848 2.10885,2.10886 0,0.12431 0,0.24809 -0.12403,0.37226 -0.24809,0.24809 -1.61267,2.10892 -1.73671,2.35698 -0.37213,0.49622 -0.49621,0.74431 -0.62027,0.74431 0,0 -0.12404,0 -0.12404,-0.12431 z m -2.72911,-3.10129 c -0.37211,-0.1243 -2.10884,-0.86835 -2.23289,-0.9924 -0.12403,-0.12431 -0.12403,-0.12431 -0.12403,-0.24809 0,-0.1243 0,-0.1243 0.12403,-0.24808 0.12404,-0.24809 1.9848,-2.72917 2.10885,-2.85316 0.12404,-0.12431 0.37212,-0.24809 0.4962,-0.12431 0.12403,0.12431 1.7367,1.36453 1.7367,1.48861 0.12404,0.1243 0.12404,0.24808 0.12404,0.37225 0,0.12431 -0.12404,0.24809 -0.74431,0.99242 -0.24809,0.24809 -0.4962,0.62025 -0.4962,0.74431 -0.24808,0.37226 -0.49621,0.74431 -0.62027,0.74431 -0.12404,0 -0.24809,0 -0.4962,0 z"
       id="path24"
       style="fill:#9bece1;fill-opacity:1;stroke-width:1.2405" />
    <path
       fill="#38896f"
       d="m 180.55936,128.2444 c -0.17921,0 -1.60959,-0.17922 -3.39799,-0.53669 -7.51132,-1.60954 -11.26702,-2.32494 -11.44583,-2.32494 0,0 -0.17921,4.6499 -0.35766,7.69019 l -0.1792,0.17921 2.86145,1.2519 c 2.68265,1.07306 2.86146,1.25192 2.86146,1.43076 0.17922,0.35764 0,0.71534 -0.1792,1.07305 -0.17922,0.53667 -0.71532,1.07301 -1.07304,1.25182 -0.5367,0.17921 -0.89417,0.17921 -2.32493,0 -0.71537,0 -1.60957,0 -1.96725,-0.17843 h -0.53669 l -0.17842,0.71533 c -0.71539,1.60953 -1.43076,1.96723 -2.14609,1.78838 -0.35766,-0.17922 -0.7154,-0.89421 -1.2519,-1.96721 l -0.17921,-0.71537 h -0.71537 c -0.17919,0 -1.073,0 -1.78844,0 -0.89419,0 -1.6095,0 -1.78839,0 -0.35766,-0.1792 -0.71532,-0.35765 -1.07306,-0.71539 -0.53668,-0.71536 -0.8942,-1.43069 -0.53668,-1.96726 0,-0.1792 0.17844,-0.1792 2.86147,-1.07305 l 2.86142,-0.8942 v -0.17921 c 0,-0.1792 0,-1.96722 0,-3.93446 0,-1.96726 0,-3.75573 -0.17921,-3.75573 0,0 -3.39793,0.35769 -7.33247,0.89428 -4.11334,0.53671 -7.51135,0.89419 -7.51135,0.89419 -0.35766,0 -0.35766,0 -0.35766,-1.96725 0,-1.60959 0,-1.60959 0.1792,-1.78843 0,0 3.57686,-1.78842 7.51131,-3.75562 l 7.51137,-3.57686 v -0.17921 c 0,-0.1792 0,-1.60955 0,-3.0403 0,-2.86145 0,-3.39797 0.17919,-4.11335 0.35767,-1.78838 1.2519,-3.21912 2.32496,-3.57682 1.4307,-0.53668 2.8614,0.71539 3.39797,2.8615 0.17921,0.53669 0.17921,1.07302 0.35764,1.78839 0,0.35767 -0.17919,2.86144 -0.35764,5.90179 0,0.53667 0,0.71534 0,0.71534 1.43069,0.71535 14.48612,8.40551 14.66496,8.40551 0,0 0,0.35768 0,1.78838 0,1.78848 0,1.78848 -0.53669,1.78848 z"
       id="path26"
       style="fill:#9bece1;fill-opacity:1;stroke-width:1.7884" />
    <path
       fill="#38896f"
       d="m 111.9348,104.64351 c -2.481,1.86073 -4.21771,4.83795 -4.83797,8.3114 v 0 c -0.24809,1.11641 -0.37214,2.23291 -0.37214,3.34933 0,0.99242 0.12404,2.10886 0.24809,3.10128 0,0 0,0 0,0 0.12403,0 0.12403,0.12431 0.12403,0.12431 v 0.37227 0 c -1.73669,2.2329 -2.85316,5.45823 -3.10124,8.93162 0.99239,0.37226 2.10884,0.62025 3.10124,0.62025 0.62026,-1.48859 1.73671,-2.60503 3.10126,-3.22528 0,0 0,0 0,0 -0.12403,-0.12431 -0.24808,-0.24809 -0.37213,-0.37226 0.12403,0.12431 0.2481,0.24809 0.37213,0.37226 0,0 0,0 0,0 0.49623,-0.12431 1.11647,-0.12431 1.61266,-0.12431 0.62025,0 1.24051,0 1.86076,0.24809 0,0 0,0 0,0 0.12403,-0.12431 0.24808,-0.37229 0.37213,-0.4962 -0.12404,0.12431 -0.24808,0.37228 -0.37213,0.4962 0,0 0,0 0,0 1.24052,0.62026 2.23291,1.7367 2.72911,3.10126 1.2405,0 2.35695,-0.12431 3.47342,-0.62025 -0.24809,-3.47339 -1.24051,-6.69873 -3.10126,-8.93163 0.12403,-0.1243 0.12403,-0.24808 0.12403,-0.49619 0.24809,-0.99241 0.37214,-2.10885 0.37214,-3.10128 0,-4.83794 -1.9848,-9.30376 -5.33417,-11.66072 z m 0,4.71389 a 2.8531605,2.8531605 0 0 1 2.85314,2.8532 2.8531605,2.8531605 0 0 1 -2.85314,2.85314 2.8531605,2.8531605 0 0 1 -2.85316,-2.85314 2.8531605,2.8531605 0 0 1 2.85316,-2.8532 z"
       id="path27"
       style="fill:#9bece1;fill-opacity:1;stroke-width:1.2405" />
    <path
       fill="#38896f"
       d="m 91.953219,149.43707 a 5.3548266,5.5779446 0 0 0 -5.354823,5.57792 5.3548266,5.5779446 0 0 0 5.354823,5.578 5.3548266,5.5779446 0 0 0 5.354822,-5.578 5.3548266,5.5779446 0 0 0 -5.354822,-5.57792 z M 85.70591,161.2623 c -2.008065,0 -3.346758,1.33867 -3.346758,3.34681 v 10.04025 c 0,1.78499 1.338693,3.34672 3.346758,3.34672 v 0 12.04837 c 0,1.11563 0.892486,2.00812 2.00804,2.00812 h 8.478513 c 1.115578,0 2.00804,-0.89249 2.00804,-2.00812 v -12.04837 0 c 2.008067,0 3.346747,-1.56173 3.346747,-3.34672 v -10.04025 c 0,-2.00814 -1.33868,-3.34681 -3.346747,-3.34681 z"
       id="path33-5"
       style="fill:#9bece1;fill-opacity:1;stroke-width:2.23117" />
    <path
       fill="#38896f"
       d="m 75.153331,123.12805 c -2.481026,0 -2.605075,0 -2.729111,0.12431 -0.124035,0.12431 -0.248085,0.12431 -0.372134,0.24808 -0.124035,0.2481 -0.124035,0.37226 -0.496197,9.67594 -0.248085,5.21012 -0.496197,9.79998 -0.496197,10.17217 -0.124035,0.74431 0,0.99237 0.248085,1.48859 0.248085,0.4962 0.744282,0.99238 1.240506,1.11645 0.372134,0.1243 2.480998,0.37225 5.210109,0.62024 0.496196,0 2.108864,0 3.101257,-0.1243 1.860752,-0.12431 3.349384,-0.37226 3.721518,-0.37226 0.992421,-0.37228 1.612654,-1.48862 1.364542,-2.60509 0,-0.1243 0,-0.62024 0,-1.11644 l -0.124036,-0.86836 1.984801,-0.86834 1.860779,-0.99238 0.496197,-0.49626 c 0.744282,-0.74428 0.868331,-1.11641 1.116443,-2.48097 0.372121,-2.72912 0.248085,-5.45823 -0.49621,-7.81519 -0.496197,-1.24048 -0.868345,-1.98479 -1.736703,-2.48097 -0.620246,-0.37227 -1.240506,-0.49624 -2.480998,-0.49624 -0.496224,0 -0.992421,0 -1.11647,0 l -0.248085,-0.12431 v -0.8683 c -0.124036,-1.11647 -0.124036,-1.3646 -0.372134,-1.61267 l -0.124036,-0.12431 H 78.75084 c -1.488605,0 -2.605061,0 -3.47342,0 z m 10.172118,4.96203 h 0.868358 c 0.496197,0 0.992394,0 1.240506,0 0.620246,0.1243 0.868358,0.49622 1.240506,1.24053 0.620246,1.98477 0.868358,4.34175 0.496197,6.82272 -0.248085,1.36456 -0.248085,1.36456 -1.984815,2.2329 -0.744282,0.37228 -1.364555,0.74432 -1.364555,0.74432 -0.124036,0 -0.124036,-0.1243 -0.124036,-1.73669 -0.124036,-2.48102 -0.372175,-8.43544 -0.372175,-8.93164 z"
       id="path35"
       style="fill:#9bece1;fill-opacity:1;stroke-width:1.2405" />
  </g>
</svg>
