<?xml version="1.0" encoding="UTF-8" standalone="no"?>
<!-- Created with Inkscape (http://www.inkscape.org/) -->

<svg
   width="169.33333mm"
   height="105.83333mm"
   viewBox="0 0 169.33333 105.83333"
   version="1.1"
   id="svg1"
   inkscape:version="1.3.1 (9b9bdc1480, 2023-11-25, custom)"
   sodipodi:docname="choropleth.svg"
   xmlns:inkscape="http://www.inkscape.org/namespaces/inkscape"
   xmlns:sodipodi="http://sodipodi.sourceforge.net/DTD/sodipodi-0.dtd"
   xmlns="http://www.w3.org/2000/svg"
   xmlns:svg="http://www.w3.org/2000/svg">
  <defs
     id="defs1" />
  <sodipodi:namedview
     id="namedview1"
     pagecolor="#ffffff"
     bordercolor="#999999"
     borderopacity="1"
     inkscape:showpageshadow="0"
     inkscape:pageopacity="0"
     inkscape:pagecheckerboard="0"
     inkscape:deskcolor="#d1d1d1"
     inkscape:document-units="mm"
     inkscape:zoom="0.5485984"
     inkscape:cx="318.99473"
     inkscape:cy="200.51097"
     inkscape:window-width="1864"
     inkscape:window-height="1016"
     inkscape:window-x="994"
     inkscape:window-y="1107"
     inkscape:window-maximized="1"
     inkscape:current-layer="layer1"
     showgrid="false" />
  <g
     inkscape:label="Layer 1"
     inkscape:groupmode="layer"
     id="layer1"
     transform="translate(-20.108334,-95.51458)">
    <text
       xml:space="preserve"
       style="font-style:normal;font-weight:normal;font-size:11.4724px;line-height:1.25;font-family:sans-serif;fill:#000000;fill-opacity:1;stroke:none;stroke-width:0.286808"
       x="113.377"
       y="189.58366"
       id="text2"><tspan
         sodipodi:role="line"
         id="tspan2"
         style="stroke-width:0.286808"
         x="113.377"
         y="189.58366" /></text>
    <rect
       style="fill:#02886f;fill-opacity:1;stroke-width:0.4"
       id="rect1"
       width="169.33333"
       height="105.83333"
       x="20.108334"
       y="95.51458" />
    <g
       id="g3"
       transform="matrix(0.21107919,0,0,0.21107919,53.730953,117.05971)">
      <g
         id="g2">
        <text
           xml:space="preserve"
           style="font-style:normal;font-weight:normal;font-size:70.9094px;line-height:1.25;font-family:sans-serif;fill:#9bece1;fill-opacity:1;stroke:none;stroke-width:1.77275"
           x="323.3851"
           y="356.51309"
           id="text3149-3-0"><tspan
             sodipodi:role="line"
             id="tspan3147-0-4"
             style="font-style:normal;font-variant:normal;font-weight:normal;font-stretch:normal;font-family:Manjari;-inkscape-font-specification:Manjari;fill:#9bece1;fill-opacity:1;stroke-width:1.77275"
             x="323.3851"
             y="356.51309">GE </tspan></text>
        <text
           xml:space="preserve"
           style="font-style:normal;font-weight:normal;font-size:70.9094px;line-height:1.25;font-family:sans-serif;fill:#9bece1;fill-opacity:1;stroke:none;stroke-width:1.77275"
           x="501.70108"
           y="356.23615"
           id="text3149-3-0-9"><tspan
             sodipodi:role="line"
             id="tspan3147-0-4-7"
             style="font-style:normal;font-variant:normal;font-weight:normal;font-stretch:normal;font-family:Manjari;-inkscape-font-specification:Manjari;fill:#9bece1;fill-opacity:1;stroke-width:1.77275"
             x="501.70108"
             y="356.23615">VIZ</tspan></text>
        <text
           xml:space="preserve"
           style="font-style:normal;font-weight:normal;font-size:29.9417px;line-height:1.25;font-family:sans-serif;fill:#9bece1;fill-opacity:1;stroke:none;stroke-width:0.748542"
           x="445.66852"
           y="342.48007"
           id="text13773"><tspan
             sodipodi:role="line"
             id="tspan13771"
             style="font-style:normal;font-variant:normal;font-weight:normal;font-stretch:normal;font-family:Manjari;-inkscape-font-specification:Manjari;fill:#9bece1;fill-opacity:1;stroke-width:0.748542"
             x="445.66852"
             y="342.48007">JS</tspan></text>
      </g>
      <circle
         style="display:inline;fill:none;fill-opacity:1;stroke:#9bece1;stroke-width:4.05837;stroke-dasharray:none;stroke-opacity:1;stop-color:#000000"
         id="path19588-6"
         cx="460.9472"
         cy="332.74384"
         r="34.976864" />
    </g>
    <rect
       style="opacity:0.2;fill:#ffffff;fill-opacity:1;stroke-width:1.05833;stroke-linecap:round"
       id="rect2"
       width="13.402106"
       height="8.2829571"
       x="140.27664"
       y="112.24077" />
    <rect
       style="opacity:0.4;fill:#ffffff;fill-opacity:1;stroke-width:1.05833;stroke-linecap:round"
       id="rect2-9"
       width="13.402106"
       height="8.2829571"
       x="140.27664"
       y="123.57381" />
    <rect
       style="opacity:0.6;fill:#ffffff;fill-opacity:1;stroke-width:1.05833;stroke-linecap:round"
       id="rect2-9-9"
       width="13.402106"
       height="8.2829571"
       x="140.27664"
       y="134.90686" />
    <rect
       style="opacity:0.8;fill:#ffffff;fill-opacity:1;stroke-width:1.05833;stroke-linecap:round"
       id="rect2-9-9-2"
       width="13.402106"
       height="8.2829571"
       x="140.27664"
       y="146.2399" />
    <rect
       style="fill:#ffffff;fill-opacity:1;stroke-width:1.05833;stroke-linecap:round"
       id="rect2-9-9-2-9"
       width="13.402106"
       height="8.2829571"
       x="140.27664"
       y="157.57295" />
    <path
       d="m 533.669,349.781 0.206,4.407 -4.573,0.267 -1.387,-0.62 1.209,-4.459 z m -7.927,-5.785 1.006,0.217 -0.987,2.394 -1.389,-0.684 z"
       fill="#097d4b"
       id="path2"
       style="opacity:0.77009476;fill:#ffffff;fill-opacity:1;stroke:#ffffff;stroke-width:0.3"
       clip-path="url(#clipPath435)"
       transform="matrix(0.41546446,0,0,0.33729927,-153.60475,33.323046)" />
    <path
       d="m 635.323,388.052 -1.291,-0.206 -0.644,-0.729 -0.256,-1.642 0.896,-0.308 1.226,1.822 z"
       fill="#96cd8a"
       id="path13-6"
       style="opacity:0.77009476;fill:#ffffff;fill-opacity:0.2;stroke:#ffffff;stroke-width:0.3"
       clip-path="url(#clipPath424)"
       transform="matrix(0.41546446,0,0,0.33729927,-153.60475,33.323046)" />
    <path
       d="m 434.109,293.664 2.047,0.761 0.621,1.566 -1.477,1.257 -2.025,-0.671 -0.389,-1.554 z"
       fill="#96cd8a"
       id="path14"
       style="opacity:0.77009476;fill:#ffffff;fill-opacity:0.2;stroke:#ffffff;stroke-width:0.3"
       clip-path="url(#clipPath423)"
       transform="matrix(0.41546446,0,0,0.33729927,-153.60475,33.323046)" />
    <path
       d="m 533.917,217.973 -0.755,0.023 -0.372,-0.859 0.416,-0.695 0.964,0.59 z"
       fill="#1a5034"
       id="path33"
       style="opacity:0.77009476;stroke:#ffffff;stroke-width:0.3"
       clip-path="url(#clipPath404)"
       transform="matrix(0.41546446,0,0,0.33729927,-153.60475,33.323046)" />
    <path
       d="m 520.059,358.366 -0.59,-0.154 -0.292,-0.604 0.15,-0.65 0.618,-0.31 0.759,0.184 0.14,0.679 -0.281,0.521 z"
       fill="#96cd8a"
       id="path39"
       style="opacity:0.77009476;fill:#ffffff;fill-opacity:0.2;stroke:#ffffff;stroke-width:0.3"
       clip-path="url(#clipPath398)"
       transform="matrix(0.41546446,0,0,0.33729927,-153.60475,33.323046)" />
    <path
       d="m 574.184,394.24 0.431,7.544 -6.253,0.751 0.378,11.082 0.425,1.266 4.071,3.321 -8.004,2.249 -6.408,-0.327 -0.99,-1.137 -14.108,1.233 -2.456,-1.404 -4.369,1.318 -0.119,-5.017 1.565,-3.751 0.66,-4.636 3.409,-4.455 0.205,-5.733 -2.49,-5.411 1.069,-2.864 -1.816,-5.041 -1.783,-2.772 2.749,-1.118 9.563,-0.761 4.087,7.791 5.543,-0.845 0.345,-3.69 3.314,-0.671 -0.212,1.381 3.864,-0.447 0.694,4.362 -0.074,4.066 1.535,2.533 -0.097,3.179 z m -34.322,-19.383 -1.866,1.676 -0.632,2.649 -0.698,-2.692 2.499,-2.443 z"
       fill="#96cd8a"
       id="path48"
       style="opacity:0.77009476;fill:#ffffff;fill-opacity:0.2;stroke:#ffffff;stroke-width:0.3"
       clip-path="url(#clipPath389)"
       transform="matrix(0.41546446,0,0,0.33729927,-153.60475,33.323046)" />
    <path
       d="m 592.124,360.359 0.998,2.012 -2.069,5.194 -0.997,0.829 -1.675,-3.912 -0.76,-2.186 2.07,-0.002 0.545,-1.939 z"
       fill="#d7f9d0"
       id="path56-9"
       style="opacity:0.77009476;fill:#ffffff;fill-opacity:0.8;stroke:#ffffff;stroke-width:0.3"
       clip-path="url(#clipPath381-75)"
       transform="matrix(0.41546446,0,0,0.33729927,-153.60475,33.323046)" />
    <path
       d="m 510.202,314.072 0.752,4.248 -3.103,7.143 0.041,9.266 -3.161,0.631 -0.121,-10.931 -0.798,-3.663 -1.615,-1.429 0.371,-2.433 1.521,-1.881 1.624,0.167 1.059,-1.842 0.587,-1.313 1.444,0.297 z"
       fill="#96cd8a"
       id="path57-3"
       style="opacity:0.77009476;fill:#ffffff;fill-opacity:0.2;stroke:#ffffff;stroke-width:0.3"
       clip-path="url(#clipPath380)"
       transform="matrix(0.41546446,0,0,0.33729927,-153.60475,33.323046)" />
    <path
       d="m 500.608,301.611 -0.182,1.428 2.308,5.779 3.213,1.384 0.825,3.146 -1.059,1.842 -1.624,-0.167 -1.521,1.881 -3.041,-0.546 -1.509,0.544 -5.853,-0.024 0.111,5.813 -1.453,-1.65 -4.252,0.783 -2.349,-2.952 0.807,-5.466 2.07,-1.164 1.754,-5.114 1.829,-0.149 1.372,-2.032 2.292,-0.577 3.562,-3.385 z"
       fill="#d7f9d0"
       id="path58"
       style="opacity:0.77009476;fill:#ffffff;fill-opacity:0.8;stroke:#ffffff;stroke-width:0.3"
       clip-path="url(#clipPath379)"
       transform="matrix(0.41546446,0,0,0.33729927,-153.60475,33.323046)" />
    <path
       d="m 579.102,418.001 2.863,5.479 4.965,2.748 1.113,3.452 3.15,0.286 0.992,1.158 -3.136,1.786 -4.128,4.097 -0.468,2.049 -3.06,2.043 -0.872,2.953 -2.469,0.988 -5.616,-1.021 -0.899,2.286 -3.243,3.16 -3.127,0.442 0.478,-2.495 -2.706,-4.202 -0.075,-9.073 3.116,-0.32 -0.199,-12.435 7.269,-1.885 0.915,1.499 1.804,-1.762 z"
       fill="#097d4b"
       id="path68-7"
       style="opacity:0.77009476;fill:#ffffff;fill-opacity:1;stroke:#ffffff;stroke-width:0.3"
       clip-path="url(#clipPath369)"
       transform="matrix(0.41546446,0,0,0.33729927,-153.60475,33.323046)" />
    <path
       d="m 564.965,313.043 2.538,3.629 0.008,4.392 2.001,0.1 3.915,4.733 3.189,2.192 0.506,2.055 1.987,1.007 1.186,2.525 -2.837,0.486 -3.199,-0.601 -5.596,3.621 -1.505,-0.717 -1.178,2.799 -5.407,-0.414 -2.783,-2.482 -3.243,3.532 0.468,3.129 -3.49,-0.538 -2.57,1.173 -0.837,4.758 -0.438,-2.348 -2.9,-3.171 -1.508,-3.179 -0.653,-4.946 2.254,-6.362 3.001,-1.609 0.714,1.172 2.517,-1.927 2.603,-0.506 1.19,-3.884 3.781,-0.897 5.124,-7.895 z"
       fill="#d7f9d0"
       id="path69"
       style="opacity:0.77009476;fill:#ffffff;fill-opacity:0.8;stroke:#ffffff;stroke-width:0.3"
       clip-path="url(#clipPath368)"
       transform="matrix(0.41546446,0,0,0.33729927,-153.60475,33.323046)" />
    <path
       d="m 484.222,318.872 2.349,2.952 4.252,-0.783 1.453,1.65 0.476,4.956 -2.263,6.099 1.162,5.652 -3.378,-0.38 -5.46,0.624 -5.03,2.404 0.431,-5.701 -3.347,-2.634 0.52,-4.08 0.742,0.087 1.277,-7.159 -0.262,-2.93 2.948,0.031 2.094,-2.002 0.605,2.083 z"
       fill="#96cd8a"
       id="path71-4"
       style="opacity:0.77009476;fill:#ffffff;fill-opacity:0.2;stroke:#ffffff;stroke-width:0.3"
       clip-path="url(#clipPath366)"
       transform="matrix(0.41546446,0,0,0.33729927,-153.60475,33.323046)" />
    <path
       d="m 544.873,328.416 -2.254,6.362 0.653,4.946 1.508,3.179 2.9,3.171 0.438,2.348 -0.01,1.908 -5.695,-1.111 -2.887,0.185 -5.857,0.377 -4.545,-0.405 0.244,-3.383 -0.983,-2.74 -1.926,-0.437 -1.195,-2.674 0.642,-3.988 3.526,-4.598 1.393,-0.326 2.184,2.259 3.871,-9.51 0.052,-2.144 2.789,-7.58 1.68,-0.994 0.053,-2.628 -1.434,-0.737 -0.482,-2.661 1.095,-0.118 0.797,2.073 1.496,3.809 -0.016,2.881 1.949,2.958 -4.277,0.408 -0.594,1.371 3.807,4.189 z"
       fill="#96cd8a"
       id="path72-5"
       style="opacity:0.77009476;fill:#ffffff;fill-opacity:0.2;stroke:#ffffff;stroke-width:0.3"
       clip-path="url(#clipPath365)"
       transform="matrix(0.41546446,0,0,0.33729927,-153.60475,33.323046)" />
    <path
       d="m 580.295,333.676 3.103,2.585 2.91,-1.983 4.498,3.808 0.025,3.958 1.761,0.82 -0.279,1.4 -1.688,2.51 -1.457,1.978 -0.396,3.435 -0.009,1.471 0.117,3.425 -0.968,1.265 -0.788,3.109 0.497,0.839 0.76,2.186 0.17,6.471 1.657,5.802 2.25,2.098 1.39,2.892 -5.044,1.752 -0.227,0.965 -0.724,2.457 0.605,4.047 -0.67,3.448 2.244,2.997 2.323,-1.156 0.227,4.505 -1.937,0.333 -2.726,-3.098 -2.188,-0.239 -1.539,-2.375 -1.409,1.806 -4.207,-0.755 -0.301,-1.562 -3.029,1.047 -1.062,-1.677 -5.272,1.996 0.097,-3.179 -1.535,-2.533 0.074,-4.066 -0.694,-4.362 -3.864,0.447 0.212,-1.381 -3.314,0.671 -0.345,3.69 -5.543,0.845 -4.087,-7.791 -9.563,0.761 -2.986,-0.156 0.632,-2.649 1.866,-1.676 0.888,0.526 3.002,-2.133 1.484,1.868 4.002,-5.99 -0.187,-4.315 1.674,-3.398 2.583,-3.023 0.383,-10.203 1.324,-5.16 -0.468,-3.129 3.243,-3.532 2.783,2.482 5.407,0.414 1.178,-2.799 1.505,0.717 5.596,-3.621 3.199,0.601 z"
       fill="#d7f9d0"
       id="path73-2"
       style="opacity:0.77009476;fill:#ffffff;fill-opacity:0.8;stroke:#ffffff;stroke-width:0.3"
       clip-path="url(#clipPath364-9)"
       transform="matrix(0.41546446,0,0,0.33729927,-153.60475,33.323046)" />
    <path
       d="m 555.015,343.029 -1.324,5.16 -0.383,10.203 -2.583,3.023 -1.674,3.398 0.187,4.315 -4.002,5.99 -1.484,-1.868 -3.002,2.133 -0.888,-0.526 -0.697,-0.81 -2.499,2.443 -2.848,-3.824 2.447,-2.502 -0.238,-3.151 3.208,-0.537 1.7,-0.863 1.593,0.332 1.1,-2.853 -0.042,-3.442 -2.071,-1.442 1.716,-4.355 -0.928,-1.698 -2.754,0.81 -0.023,-3.561 2.887,-0.185 5.695,1.111 0.01,-1.908 0.837,-4.758 2.57,-1.173 z"
       fill="#96cd8a"
       id="path74"
       style="opacity:0.77009476;fill:#ffffff;fill-opacity:0.2;stroke:#ffffff;stroke-width:0.3"
       clip-path="url(#clipPath363-0)"
       transform="matrix(0.41546446,0,0,0.33729927,-153.60475,33.323046)" />
    <path
       d="m 621.619,300.206 -0.533,2.09 -3.212,0.409 -0.133,-0.74 0.816,-4.934 1.85,-1.424 1.219,2.523 -1.504,1.561 z"
       fill="#44a855"
       id="path80"
       style="opacity:0.77009476;fill:#ffffff;fill-opacity:0.4;stroke:#ffffff;stroke-width:0.3"
       clip-path="url(#clipPath357)"
       transform="matrix(0.41546446,0,0,0.33729927,-153.60475,33.323046)" />
    <path
       d="m 519.817,214.248 -0.48,1.947 0.107,7.07 -1.647,3.04 0.773,2.671 3.344,4.323 1.561,7.204 1.003,4.301 0.602,10.365 -1.027,1.605 1.884,4.879 4.109,2.085 1.231,2.889 -5.596,5.591 -5.714,5.504 -4.227,5.665 -4.31,1.45 -2.477,0.686 -0.298,-3.199 -3.582,-1.676 -2.018,-3.417 -9.654,-9.523 -5.858,-6.035 -9.536,-9.435 0.076,-1.546 0.194,-3.911 2.783,-2.735 4.66,-0.712 3.522,-3.435 1.806,-0.76 0.046,-3.697 2.811,-1.862 3.067,0.232 0.5,-1.713 -1.483,-2.853 -0.164,-5.916 -1.05,-1.379 7.645,-5.456 4.349,-1.309 4.267,-0.433 1.067,0.927 4.881,-1.866 z"
       fill="#44a855"
       id="path82"
       style="opacity:0.77009476;fill:#ffffff;fill-opacity:0.4;stroke:#ffffff;stroke-width:0.3"
       clip-path="url(#clipPath355)"
       transform="matrix(0.41546446,0,0,0.33729927,-153.60475,33.323046)" />
    <path
       d="m 582.985,228.762 0.197,0.375 2.915,6.354 -0.673,6.946 -2.64,-2.535 -2.682,-5.122 -0.303,1.487 2.056,3.722 2.049,2.105 2.252,4.994 5.75,9.482 1.238,3.966 3.761,2.997 -9.605,1.935 -12.747,2.248 -8.659,1.316 -1.674,-12.588 -2.195,-15.578 -1.267,-3.664 0.244,-6.067 5.459,0.33 4.428,1.449 2.743,-3.198 3.721,-0.726 1.595,1.006 1.687,0.302 z"
       fill="#44a855"
       id="path84-5"
       style="opacity:0.77009476;fill:#ffffff;fill-opacity:0.4;stroke:#ffffff;stroke-width:0.3"
       clip-path="url(#clipPath353)"
       transform="matrix(0.41546446,0,0,0.33729927,-153.60475,33.323046)" />
    <path
       d="m 620.407,295.607 -1.85,1.424 -5.391,-5.306 -5.153,-0.957 -1.617,1.241 -1.767,-1.468 -0.386,3.139 -0.963,-1.158 -1.972,1.19 -0.824,-3.221 0.657,-4.715 -0.404,-3.207 2.923,-2.44 0.698,-2.099 3.06,6.957 1.902,2.969 4.34,1.499 1.921,2.367 z"
       fill="#d7f9d0"
       id="path85"
       style="opacity:0.77009476;fill:#ffffff;fill-opacity:0.8;stroke:#ffffff;stroke-width:0.3"
       clip-path="url(#clipPath352-6)"
       transform="matrix(0.41546446,0,0,0.33729927,-153.60475,33.323046)" />
    <path
       d="m 618.557,297.031 -0.816,4.934 0.133,0.74 3.212,-0.409 -0.513,1.592 2.975,4.141 1.978,1.215 8.946,1.635 2.795,-0.755 -3.326,6.87 -3.184,7.097 -2.799,0.533 -5.398,5.137 -3.394,-0.42 -2.409,2.176 -0.658,1.949 -4.253,0.112 -4.046,-2.347 -2.757,-0.169 -0.662,-2.558 -2.199,-0.788 -1.552,-3.667 -3.417,-3.341 -1.966,-0.196 0.049,-2.378 2.24,-0.584 -0.245,-3.929 0.674,-5.763 1.023,-0.161 -0.243,-3.531 1.104,-3.417 1.262,-0.737 0.197,-6.3 1.972,-1.19 0.963,1.158 0.386,-3.139 1.767,1.468 1.617,-1.241 5.153,0.957 z"
       fill="#d7f9d0"
       id="path87"
       style="opacity:0.77009476;fill:#ffffff;fill-opacity:0.8;stroke:#ffffff;stroke-width:0.3"
       clip-path="url(#clipPath350)"
       transform="matrix(0.41546446,0,0,0.33729927,-153.60475,33.323046)" />
    <path
       d="m 539.526,349.404 0.023,3.561 2.754,-0.81 0.928,1.698 -1.716,4.355 2.071,1.442 0.042,3.442 -1.1,2.853 -1.593,-0.332 -1.7,0.863 -3.208,0.537 0.238,3.151 -2.447,2.502 -3.808,-4.375 -2.779,-5.089 0.654,-7.268 1.417,-1.479 4.573,-0.267 -0.206,-4.407 z"
       fill="#097d4b"
       id="path91"
       style="opacity:0.77009476;fill:#ffffff;fill-opacity:1;stroke:#ffffff;stroke-width:0.3"
       clip-path="url(#clipPath346-2)"
       transform="matrix(0.41546446,0,0,0.33729927,-153.60475,33.323046)" />
    <path
       d="m 499.527,316.358 1.607,3.308 -0.473,2.745 1.215,8.699 -0.364,1.893 1.953,2.803 -9.615,5.198 -3.012,-1.398 0.014,-0.063 0.799,-0.145 -1.162,-5.652 2.263,-6.099 -0.476,-4.956 -0.111,-5.813 5.853,0.024 z"
       fill="#96cd8a"
       id="path94-4"
       style="opacity:0.77009476;fill:#ffffff;fill-opacity:0.2;stroke:#ffffff;stroke-width:0.3"
       clip-path="url(#clipPath343)"
       transform="matrix(0.41546446,0,0,0.33729927,-153.60475,33.323046)" />
    <path
       d="m 467.849,310.389 2.444,1.556 3.474,-0.93 1.14,2.686 1.297,1.194 0.94,4.734 0.262,2.93 -1.277,7.159 -0.742,-0.087 -1.904,1.326 -0.921,-4.502 -2.238,-0.669 -2.591,-6.018 -3.558,0.291 -2.436,3.005 -0.687,-2.898 -3.792,-4.951 1.079,-2.032 2.754,-0.558 -0.087,-1.246 -0.571,-0.786 0.733,-0.613 0.15,-1.106 3.77,1.715 z"
       fill="#d7f9d0"
       id="path95-7"
       style="opacity:0.77009476;fill:#ffffff;fill-opacity:0.8;stroke:#ffffff;stroke-width:0.3"
       clip-path="url(#clipPath342)"
       transform="matrix(0.41546446,0,0,0.33729927,-153.60475,33.323046)" />
    <path
       d="m 452.927,306.621 0.687,-1.984 4.15,-0.545 2.337,1.123 0.723,0.739 -0.977,0.329 -2.255,-1.303 -1.478,0.342 -1.33,1.214 z"
       fill="#d7f9d0"
       id="path96-4"
       style="opacity:0.77009476;fill:#ffffff;fill-opacity:0.8;stroke:#ffffff;stroke-width:0.3"
       clip-path="url(#clipPath341)"
       transform="matrix(0.41546446,0,0,0.33729927,-153.60475,33.323046)" />
    <path
       d="m 457.26,315.215 -1.311,-3.103 -3.158,-2.632 4.405,-0.964 4.122,0.358 -0.15,1.106 -0.733,0.613 0.571,0.786 0.087,1.246 -2.754,0.558 z"
       fill="#d7f9d0"
       id="path97"
       style="opacity:0.77009476;fill:#ffffff;fill-opacity:0.8;stroke:#ffffff;stroke-width:0.3"
       clip-path="url(#clipPath340-7)"
       transform="matrix(0.41546446,0,0,0.33729927,-153.60475,33.323046)" />
    <path
       d="m 605.043,331.062 2.757,0.169 4.046,2.347 4.253,-0.112 0.658,-1.949 2.409,-2.176 3.394,0.42 -2.019,5.01 1.875,13.828 2.015,2.708 -3.547,4.866 -1.208,6.583 -0.947,1.134 -5.192,-3.307 -0.046,-1.76 -11.374,-5.339 0.222,-3.047 -0.964,-1.771 2.29,-5.927 -0.514,-2.992 -3.539,-6.072 3.762,-3.883 z"
       fill="#96cd8a"
       id="path117"
       style="opacity:0.77009476;fill:#ffffff;fill-opacity:0.2;stroke:#ffffff;stroke-width:0.3"
       clip-path="url(#clipPath320)"
       transform="matrix(0.41546446,0,0,0.33729927,-153.60475,33.323046)" />
    <path
       d="m 475.387,329.631 -0.52,4.08 3.347,2.634 -0.431,5.701 -5.016,-3.267 -3.124,-4.129 -3.028,-3.042 2.635,-3.117 1.074,-2.705 2.238,0.669 0.921,4.502 z"
       fill="#d7f9d0"
       id="path125-3"
       style="opacity:0.77009476;fill:#ffffff;fill-opacity:0.8;stroke:#ffffff;stroke-width:0.3"
       clip-path="url(#clipPath312)"
       transform="matrix(0.41546446,0,0,0.33729927,-153.60475,33.323046)" />
    <path
       d="m 561.002,231.135 -0.244,6.067 1.267,3.664 2.195,15.578 1.674,12.588 0.992,7.812 -2.655,0.397 0.234,1.956 -6.768,-3.733 -7.03,-4.035 -8.896,-5.348 -2.481,2.001 -1.847,1.653 -2.124,-2.061 -4.042,-1.047 -1.231,-2.889 -4.109,-2.085 -1.884,-4.879 1.027,-1.605 -0.602,-10.365 -1.003,-4.301 1.684,-2.812 -0.514,-1.933 3.256,-4.365 -0.339,-2.804 2.12,1.232 2.385,-0.457 4.605,1.66 2.466,4.195 3.29,0.436 4.479,2.792 1.585,-1.148 0.64,-2.879 -0.783,-1.9 1.141,-3.467 2.313,-1.759 3.68,0.66 0.199,1.258 4.729,0.766 z"
       fill="#44a855"
       id="path126"
       style="opacity:0.77009476;fill:#ffffff;fill-opacity:0.4;stroke:#ffffff;stroke-width:0.3"
       clip-path="url(#clipPath311)"
       transform="matrix(0.41546446,0,0,0.33729927,-153.60475,33.323046)" />
    <path
       d="m 590.39,452.627 2.087,1.733 -0.918,1.918 -4.432,2.761 -2.223,-2.752 2.319,-2.566 z"
       fill="#d7f9d0"
       id="path128"
       style="opacity:0.77009476;fill:#ffffff;fill-opacity:0.8;stroke:#ffffff;stroke-width:0.3"
       clip-path="url(#clipPath309)"
       transform="matrix(0.41546446,0,0,0.33729927,-153.60475,33.323046)" />
    <path
       d="m 494.775,221.951 1.05,1.379 0.164,5.916 1.483,2.853 -0.5,1.713 -3.067,-0.232 -2.811,1.862 -0.046,3.697 -1.806,0.76 -3.522,3.435 -4.66,0.712 -2.783,2.735 -0.194,3.911 -10.745,-1.658 3.85,-1.371 2.444,-2.481 2.54,-4.354 -0.181,-5.056 1.689,-4.549 1.902,-2.633 4.212,-2.854 2.427,-6.823 1.267,-0.305 2.235,2.942 3.367,-0.629 0.078,0.209 z"
       fill="#96cd8a"
       id="path131"
       style="opacity:0.77009476;fill:#ffffff;fill-opacity:0.2;stroke:#ffffff;stroke-width:0.3"
       clip-path="url(#clipPath306)"
       transform="matrix(0.41546446,0,0,0.33729927,-153.60475,33.323046)" />
    <path
       d="m 651.859,383.556 2.075,2.902 2.312,8.113 -0.635,2.061 -1.897,-1.03 0.879,3.375 -0.803,4.625 -4.21,17.305 -2.229,8.799 -6.102,3.567 -3.422,-1.175 -1.012,-1.749 0.112,-3.212 -1.726,-3.741 0.784,-3.319 2.822,-5.437 -2.027,-8.107 2.545,-4.936 4.045,-2.811 2.169,-2.348 4.904,-7.689 0.388,-4.033 z"
       fill="#d7f9d0"
       id="path133"
       style="opacity:0.77009476;fill:#ffffff;fill-opacity:0.8;stroke:#ffffff;stroke-width:0.3"
       clip-path="url(#clipPath304)"
       transform="matrix(0.41546446,0,0,0.33729927,-153.60475,33.323046)" />
    <path
       d="m 511.43,284.837 0.094,10.732 -1.797,4.21 -6.032,0.358 -3.087,1.474 -2.7,-0.626 -3.562,3.385 -2.292,0.577 -1.372,2.032 -1.829,0.149 -1.754,5.114 -2.07,1.164 -0.807,5.466 -1.431,0.869 -0.605,-2.083 -2.094,2.002 -2.948,-0.031 -0.94,-4.734 -1.297,-1.194 -1.14,-2.686 -3.474,0.93 -2.444,-1.556 -0.445,-3.773 -1.522,-5.649 1.652,-2.899 2.159,1.86 0.557,-1.222 3.853,-0.069 10.627,0.451 -0.792,-16.272 -0.417,-8.716 -0.553,-12.572 4.575,0.145 5.858,6.035 9.654,9.523 2.018,3.417 3.582,1.676 0.298,3.199 z"
       fill="#d7f9d0"
       id="path136"
       style="opacity:0.77009476;fill:#ffffff;fill-opacity:0.8;stroke:#ffffff;stroke-width:0.3"
       clip-path="url(#clipPath301)"
       transform="matrix(0.41546446,0,0,0.33729927,-153.60475,33.323046)" />
    <path
       d="m 603.331,444.737 -2.428,0.369 -0.508,-2.779 0.096,-5.045 -2.252,-6.376 3.414,-4.275 0.268,-2.505 1.487,-2.062 -0.812,-1.808 0.718,-4.015 -0.423,-5.669 -5.378,-1.411 -2.656,0.347 -0.072,-1.271 -0.661,-2.2 9.05,-4.924 1.468,1.831 2.112,-1.136 0.852,2.979 -0.932,2.348 3.459,3.723 0.057,-1.787 1.319,-2.41 -0.063,-4.718 -3.285,-3.503 -0.78,-4.615 0.685,-2.344 2.594,-1.066 1.209,0.813 3.753,-0.655 1.262,-1.716 1.903,-0.042 5.647,-4.609 1.145,11.222 1.115,2.729 -0.563,3.73 -2.064,3.802 -8.289,6.694 -1.778,2.792 -5.221,5.476 2.683,8.071 -1.259,7.512 -6.933,4.28 -1.107,1.504 z"
       fill="#d7f9d0"
       id="path140-7"
       style="opacity:0.77009476;fill:#ffffff;fill-opacity:0.8;stroke:#ffffff;stroke-width:0.3"
       clip-path="url(#clipPath297)"
       transform="matrix(0.41546446,0,0,0.33729927,-153.60475,33.323046)" />
    <path
       d="m 465.882,300.967 -5.291,-7.724 -5.021,0.153 -1.254,2.564 1.922,-7.173 -0.046,-5.18 -0.708,-1.718 1.138,-3.139 -1.838,-4.061 0.175,-0.529 10.452,0.888 0.448,-6.644 2.68,-1.503 0.698,-10.066 8.533,0.43 0.237,-5.027 9.536,9.435 -4.575,-0.145 0.553,12.572 0.417,8.716 0.792,16.272 -10.627,-0.451 -3.853,0.069 -0.557,1.222 -2.159,-1.86 z"
       fill="#96cd8a"
       id="path141-8"
       style="opacity:0.77009476;fill:#ffffff;fill-opacity:0.2;stroke:#ffffff;stroke-width:0.3"
       clip-path="url(#clipPath296)"
       transform="matrix(0.41546446,0,0,0.33729927,-153.60475,33.323046)" />
    <path
       d="m 604.401,385.407 1.275,2.403 0.433,4.458 -0.763,1.926 1.158,4.125 0.848,0.483 0.809,-0.362 3.285,3.503 0.063,4.718 -1.319,2.41 -0.057,1.787 -3.459,-3.723 0.932,-2.348 -0.852,-2.979 -2.112,1.136 -1.468,-1.831 -1.274,-0.901 1.053,-5.768 -0.092,-4.758 1.027,-1.058 -2.585,-3.802 z"
       fill="#d7f9d0"
       id="path142"
       style="opacity:0.77009476;fill:#ffffff;fill-opacity:0.8;stroke:#ffffff;stroke-width:0.3"
       clip-path="url(#clipPath295-2)"
       transform="matrix(0.41546446,0,0,0.33729927,-153.60475,33.323046)" />
    <path
       d="m 573.236,418.204 2.599,-0.875 3.267,0.672 -3.333,1.233 -1.804,1.762 -0.915,-1.499 -7.269,1.885 0.199,12.435 -3.116,0.32 0.075,9.073 -0.024,11.793 -2.839,1.962 -5.264,-0.337 -1.592,-1.831 -1.285,1.654 -3.728,-3.675 -2.587,-10.026 -0.308,-6.184 -3.182,-4.654 -0.753,-2.176 -4.176,-6.564 -0.3,-3.036 4.369,-1.318 2.456,1.404 14.108,-1.233 0.99,1.137 6.408,0.327 z"
       fill="#44a855"
       id="path144-8"
       style="opacity:0.77009476;fill:#ffffff;fill-opacity:0.4;stroke:#ffffff;stroke-width:0.3"
       clip-path="url(#clipPath293)"
       transform="matrix(0.41546446,0,0,0.33729927,-153.60475,33.323046)" />
    <path
       d="m 539.29,268.082 0.987,5.822 2.408,4.278 -0.436,1.906 0.132,11.96 -2.67,4.666 -2.209,5.559 0.589,2.602 -3.023,2.736 -5.105,-0.886 -2.809,2.322 -2.721,-0.255 -2.652,-1.456 -2.345,1.349 -1.58,-2.363 -2.307,-0.89 -3.97,1.674 -1.288,3.718 -0.089,3.248 -1.399,-1.74 -1.444,-0.297 -0.587,1.313 -0.825,-3.146 -3.213,-1.384 -2.308,-5.779 0.182,-1.428 3.087,-1.474 6.032,-0.358 1.797,-4.21 -0.094,-10.732 4.31,-1.45 4.227,-5.665 5.714,-5.504 5.596,-5.591 4.042,1.047 2.124,2.061 z"
       fill="#d7f9d0"
       id="path145-8"
       style="opacity:0.77009476;fill:#ffffff;fill-opacity:0.8;stroke:#ffffff;stroke-width:0.3"
       clip-path="url(#clipPath292-29)"
       transform="matrix(0.41546446,0,0,0.33729927,-153.60475,33.323046)" />
    <path
       d="m 539.538,307.235 0.482,2.661 1.434,0.737 -0.053,2.628 -1.68,0.994 -2.789,7.58 -0.052,2.144 -3.871,9.51 -2.184,-2.259 -1.393,0.326 -3.526,4.598 -0.642,3.988 -0.895,1.068 -2.851,-0.111 -3.277,1.371 -1.776,-1.3 -2.179,-5.185 -1.427,-1.317 -4.967,0.061 -0.041,-9.266 3.103,-7.143 -0.752,-4.248 0.089,-3.248 1.288,-3.718 3.97,-1.674 2.307,0.89 1.58,2.363 2.345,-1.349 2.652,1.456 2.721,0.255 2.809,-2.322 5.105,0.886 3.023,-2.736 z"
       fill="#96cd8a"
       id="path146"
       style="opacity:0.77009476;fill:#ffffff;fill-opacity:0.2;stroke:#ffffff;stroke-width:0.3"
       clip-path="url(#clipPath291)"
       transform="matrix(0.41546446,0,0,0.33729927,-153.60475,33.323046)" />
    <path
       d="m 591.431,355.428 1.249,1.79 -0.556,3.141 -1.888,-0.004 -0.545,1.939 -2.07,0.002 -0.497,-0.839 0.788,-3.109 0.968,-1.265 z"
       fill="#d7f9d0"
       id="path165-4"
       style="opacity:0.77009476;fill:#ffffff;fill-opacity:0.8;stroke:#ffffff;stroke-width:0.3"
       clip-path="url(#clipPath272)"
       transform="matrix(0.41546446,0,0,0.33729927,-153.60475,33.323046)" />
    <path
       d="m 478.083,250.692 -0.076,1.546 -0.237,5.027 -8.533,-0.43 -0.698,10.066 -2.68,1.503 -0.448,6.644 -10.452,-0.888 0.613,-1.638 2.872,-7.609 4.467,-8.99 2.494,-2.132 1.933,-4.757 z"
       fill="#ffffff"
       id="path166"
       style="opacity:0.77009476;stroke:#ffffff;stroke-width:0.3"
       clip-path="url(#clipPath271)"
       transform="matrix(0.41546446,0,0,0.33729927,-153.60475,33.323046)" />
    <path
       d="m 596.905,263.533 1.132,2.658 2.124,8.097 0.898,1.62 3.299,2.122 -0.698,2.099 -2.923,2.44 0.404,3.207 -0.657,4.715 0.824,3.221 -0.197,6.3 -1.262,0.737 -1.104,3.417 0.243,3.531 -1.023,0.161 -0.674,5.763 -0.869,-2.745 -2.37,-2.125 -0.669,-5.29 -3.022,1.393 1.429,3.495 -2.677,5.446 -1.344,0.457 -2.335,-1.705 -2.87,4.192 -2.811,-0.614 -3.767,0.869 -2.394,-3.166 -2.097,0.789 -0.948,5.635 -1.035,0.912 -2.001,-0.1 -0.008,-4.392 -2.538,-3.629 -0.026,-1.868 -3.371,-6.11 1.253,-4.348 0.914,-6.368 2.434,-0.392 -1.704,-14.76 -0.234,-1.956 2.655,-0.397 -0.992,-7.812 8.659,-1.316 12.747,-2.248 z"
       fill="#d7f9d0"
       id="path168-1"
       style="opacity:0.77009476;fill:#ffffff;fill-opacity:0.8;stroke:#ffffff;stroke-width:0.3"
       clip-path="url(#clipPath269)"
       transform="matrix(0.41546446,0,0,0.33729927,-153.60475,33.323046)" />
    <path
       d="m 597.291,313.621 0.245,3.929 -2.24,0.584 -0.049,2.378 1.966,0.196 3.417,3.341 1.552,3.667 2.199,0.788 0.662,2.558 -1.669,-1.27 -3.762,3.883 -1.088,1.932 -3.84,1.682 -1.271,-0.915 -2.607,1.712 -4.498,-3.808 -2.91,1.983 -3.103,-2.585 -1.186,-2.525 -1.987,-1.007 -0.506,-2.055 -3.189,-2.192 -3.915,-4.733 1.035,-0.912 0.948,-5.635 2.097,-0.789 2.394,3.166 3.767,-0.869 2.811,0.614 2.87,-4.192 2.335,1.705 1.344,-0.457 2.677,-5.446 -1.429,-3.495 3.022,-1.393 0.669,5.29 2.37,2.125 z"
       fill="#d7f9d0"
       id="path169-4"
       style="opacity:0.77009476;fill:#ffffff;fill-opacity:0.8;stroke:#ffffff;stroke-width:0.3"
       clip-path="url(#clipPath268)"
       transform="matrix(0.41546446,0,0,0.33729927,-153.60475,33.323046)" />
    <path
       d="m 465.882,300.967 1.522,5.649 0.445,3.773 -2.761,0.2 -3.77,-1.715 -4.122,-0.358 -4.405,0.964 0.136,-2.859 1.857,-0.085 1.33,-1.214 1.478,-0.342 2.255,1.303 0.977,-0.329 -0.723,-0.739 -2.337,-1.123 -4.15,0.545 -1.403,-4.325 2.105,-4.352 1.254,-2.564 5.021,-0.153 z"
       fill="#96cd8a"
       id="path170"
       style="opacity:0.77009476;fill:#ffffff;fill-opacity:0.2;stroke:#ffffff;stroke-width:0.3"
       clip-path="url(#clipPath267)"
       transform="matrix(0.41546446,0,0,0.33729927,-153.60475,33.323046)" />
    <path
       d="m 470.324,325.786 -1.074,2.705 -2.635,3.117 -2.907,-2.008 -1.732,-3.146 -0.237,-3.39 2.436,-3.005 3.558,-0.291 z"
       fill="#d7f9d0"
       id="path172"
       style="opacity:0.77009476;fill:#ffffff;fill-opacity:0.8;stroke:#ffffff;stroke-width:0.3"
       clip-path="url(#clipPath265)"
       transform="matrix(0.41546446,0,0,0.33729927,-153.60475,33.323046)" />
    <path
       d="m 600.395,442.327 0.508,2.779 -0.461,1.608 -2.527,0.036 -1.311,-1.401 0.208,-1.773 1.954,-1.692 z"
       fill="#44a855"
       id="path179"
       style="opacity:0.77009476;fill:#ffffff;fill-opacity:0.4;stroke:#ffffff;stroke-width:0.3"
       clip-path="url(#clipPath258)"
       transform="matrix(0.41546446,0,0,0.33729927,-153.60475,33.323046)" />
    <path
       d="m 564.465,279.197 1.704,14.76 -2.434,0.392 -0.914,6.368 -1.253,4.348 3.371,6.11 0.026,1.868 -1.162,-0.173 -5.124,7.895 -3.781,0.897 -1.19,3.884 -2.603,0.506 -2.517,1.927 -0.714,-1.172 -3.001,1.609 -1.078,-3.61 -3.807,-4.189 0.594,-1.371 4.277,-0.408 -1.949,-2.958 0.016,-2.881 -1.496,-3.809 -0.797,-2.073 -1.095,0.118 -1.447,-2.36 -0.589,-2.602 2.209,-5.559 2.67,-4.666 -0.132,-11.96 0.436,-1.906 -2.408,-4.278 -0.987,-5.822 2.481,-2.001 8.896,5.348 7.03,4.035 z"
       fill="#d7f9d0"
       id="path181-2"
       style="opacity:0.77009476;fill:#ffffff;fill-opacity:0.8;stroke:#ffffff;stroke-width:0.3"
       clip-path="url(#clipPath256)"
       transform="matrix(0.41546446,0,0,0.33729927,-153.60475,33.323046)" />
    <path
       d="m 502.568,316.904 -0.371,2.433 1.615,1.429 0.798,3.663 0.121,10.931 -1.266,0.446 -1.953,-2.803 0.364,-1.893 -1.215,-8.699 0.473,-2.745 -1.607,-3.308 z"
       fill="#d7f9d0"
       id="path182"
       style="opacity:0.77009476;fill:#ffffff;fill-opacity:0.8;stroke:#ffffff;stroke-width:0.3"
       clip-path="url(#clipPath255-0)"
       transform="matrix(0.41546446,0,0,0.33729927,-153.60475,33.323046)" />
    <path
       d="m 527.562,228.589 0.339,2.804 -3.256,4.365 0.514,1.933 -1.684,2.812 -1.561,-7.204 -3.344,-4.323 -0.773,-2.671 1.647,-3.04 -0.107,-7.07 0.48,-1.947 2.955,-1.785 3.25,1.2 -0.48,3.719 0.636,3.189 -2.196,3.725 0.638,2.417 z"
       fill="#44a855"
       id="path187"
       style="opacity:0.77009476;fill:#ffffff;fill-opacity:0.4;stroke:#ffffff;stroke-width:0.3"
       clip-path="url(#clipPath250-3)"
       transform="matrix(0.41546446,0,0,0.33729927,-153.60475,33.323046)" />
    <path
       d="m 595.303,354.524 -0.147,3.955 0.866,2.336 4.102,-1.403 1.993,-5.928 11.374,5.339 0.046,1.76 5.192,3.307 -0.737,5.236 2.352,2.592 -0.071,5.406 1.976,5.747 2.185,1.335 -5.647,4.609 -1.903,0.042 -1.262,1.716 -3.753,0.655 -1.209,-0.813 -2.594,1.066 -0.181,-0.526 -0.076,-0.069 -0.496,-0.37 -0.075,-0.11 -1.694,-5.241 -0.324,-0.313 -0.329,-0.249 -0.036,-0.037 -0.454,0.841 -3.098,-0.581 -5.547,-2.049 -2.048,-3.633 -0.203,-2.002 -2.65,-2.104 0.497,-1.39 -1.296,-5.254 0.997,-0.829 2.069,-5.194 -0.998,-2.012 0.556,-3.141 -1.249,-1.79 z"
       fill="#d7f9d0"
       id="path190-0"
       style="opacity:0.77009476;fill:#ffffff;fill-opacity:0.8;stroke:#ffffff;stroke-width:0.3"
       clip-path="url(#clipPath247)"
       transform="matrix(0.41546446,0,0,0.33729927,-153.60475,33.323046)" />
    <path
       d="m 601.375,348.666 -2.193,-0.131 -3.79,2.668 -0.089,3.321 -3.872,0.904 -2.551,1.655 -0.117,-3.425 0.009,-1.471 0.396,-3.435 1.457,-1.978 1.688,-2.51 0.279,-1.4 -1.761,-0.82 -0.025,-3.958 2.607,-1.712 1.271,0.915 3.84,-1.682 1.088,-1.932 3.539,6.072 0.514,2.992 z"
       fill="#d7f9d0"
       id="path191"
       style="opacity:0.77009476;fill:#ffffff;fill-opacity:0.8;stroke:#ffffff;stroke-width:0.3"
       clip-path="url(#clipPath246)"
       transform="matrix(0.41546446,0,0,0.33729927,-153.60475,33.323046)" />
    <path
       d="m 598.239,430.906 2.252,6.376 -0.096,5.045 -1.629,-0.443 -1.954,1.692 -0.208,1.773 1.311,1.401 2.527,-0.036 0.461,-1.608 2.428,-0.369 -1.643,5.737 -3.761,3.771 -2.554,4.407 -5.882,6.114 -4.6,3.532 -4.457,1.37 -2.598,1.485 -7.138,0.23 -5.184,1.617 -3.036,1.625 -4.503,-2.412 -1.95,-2.99 1.354,-0.622 -0.26,-2.978 -2.738,-3.822 -2.446,-5.35 1.285,-1.654 1.592,1.831 5.264,0.337 2.839,-1.962 0.024,-11.793 2.706,4.202 -0.478,2.495 3.127,-0.442 3.243,-3.16 0.899,-2.286 5.616,1.021 2.469,-0.988 0.872,-2.953 3.06,-2.043 0.468,-2.049 4.128,-4.097 3.136,-1.786 z m -7.849,21.721 -3.167,1.094 -2.319,2.566 2.223,2.752 4.432,-2.761 0.918,-1.918 z"
       fill="#44a855"
       id="path200-8"
       style="opacity:0.77009476;fill:#ffffff;fill-opacity:0.4;stroke:#ffffff;stroke-width:0.3"
       clip-path="url(#clipPath237)"
       transform="matrix(0.41546446,0,0,0.33729927,-153.60475,33.323046)" />
    <path
       d="m 595.756,382.777 5.547,2.049 2.585,3.802 -1.027,1.058 0.092,4.758 -1.053,5.768 1.274,0.901 -9.05,4.924 0.661,2.2 -3.05,0.748 -1.891,3.145 -2.59,1.534 -2.65,4.165 -5.502,0.172 -3.267,-0.672 -2.599,0.875 -4.071,-3.321 -0.425,-1.266 -0.378,-11.082 6.253,-0.751 -0.431,-7.544 1.062,1.677 3.029,-1.047 0.301,1.562 4.207,0.755 1.409,-1.806 1.539,2.375 2.188,0.239 2.726,3.098 1.937,-0.333 -0.227,-4.505 -2.323,1.156 -2.244,-2.997 0.67,-3.448 -0.605,-4.047 0.724,-2.457 0.227,-0.965 5.044,-1.752 z"
       fill="#d7f9d0"
       id="path201-9"
       style="opacity:0.77009476;fill:#ffffff;fill-opacity:0.8;stroke:#ffffff;stroke-width:0.3"
       clip-path="url(#clipPath236)"
       transform="matrix(0.41546446,0,0,0.33729927,-153.60475,33.323046)" />
    <path
       d="m 594.785,408.237 0.072,1.271 2.656,-0.347 5.378,1.411 0.423,5.669 -0.718,4.015 0.812,1.808 -1.487,2.062 -0.268,2.505 -3.414,4.275 -6.054,0.218 -0.992,-1.158 -3.15,-0.286 -1.113,-3.452 -4.965,-2.748 -2.863,-5.479 5.502,-0.172 2.65,-4.165 2.59,-1.534 1.891,-3.145 z"
       fill="#d7f9d0"
       id="path202"
       style="opacity:0.77009476;fill:#ffffff;fill-opacity:0.8;stroke:#ffffff;stroke-width:0.3"
       clip-path="url(#clipPath235)"
       transform="matrix(0.41546446,0,0,0.33729927,-153.60475,33.323046)" />
    <path
       d="m 621.086,302.296 0.533,-2.09 3.586,3.238 1.933,-0.328 1.856,-2.31 2.047,0.179 2.166,-2.512 4.252,-1.481 3.357,-2.333 1.109,-1.944 1.477,0.2 0.738,4.934 -0.033,4.483 -1.62,6.474 -0.942,7.535 -1.939,7.23 -4.248,9.068 -3.763,4.385 -2.639,4.293 -3.311,6.512 -1.214,3.478 -2.015,-2.708 -1.875,-13.828 2.019,-5.01 5.398,-5.137 2.799,-0.533 3.184,-7.097 3.326,-6.87 -2.795,0.755 -8.946,-1.635 -1.978,-1.215 -2.975,-4.141 z"
       fill="#d7f9d0"
       id="path205"
       style="opacity:0.77009476;fill:#ffffff;fill-opacity:0.8;stroke:#ffffff;stroke-width:0.3"
       clip-path="url(#clipPath232)"
       transform="matrix(0.41546446,0,0,0.33729927,-153.60475,33.323046)" />
  </g>
</svg>
