<?xml version="1.0" encoding="UTF-8" standalone="no"?>
<!-- Created with Inkscape (http://www.inkscape.org/) -->

<svg
   version="1.1"
   id="svg1"
   width="640"
   height="400"
   viewBox="0 0 640 400"
   sodipodi:docname="handle.svg"
   inkscape:version="1.3.1 (9b9bdc1480, 2023-11-25, custom)"
   xml:space="preserve"
   xmlns:inkscape="http://www.inkscape.org/namespaces/inkscape"
   xmlns:sodipodi="http://sodipodi.sourceforge.net/DTD/sodipodi-0.dtd"
   xmlns="http://www.w3.org/2000/svg"
   xmlns:svg="http://www.w3.org/2000/svg"><defs
     id="defs1"><defs
       id="defs2" /></defs><sodipodi:namedview
     id="namedview1"
     pagecolor="#ffffff"
     bordercolor="#999999"
     borderopacity="1"
     inkscape:showpageshadow="0"
     inkscape:pageopacity="0"
     inkscape:pagecheckerboard="0"
     inkscape:deskcolor="#d1d1d1"
     showgrid="false"
     inkscape:zoom="0.88224674"
     inkscape:cx="316.23806"
     inkscape:cy="316.23806"
     inkscape:window-width="1864"
     inkscape:window-height="1016"
     inkscape:window-x="56"
     inkscape:window-y="1107"
     inkscape:window-maximized="1"
     inkscape:current-layer="g1" /><g
     inkscape:groupmode="layer"
     inkscape:label="Image"
     id="g1"><rect
       style="fill:#02886f;fill-opacity:1;stroke-width:1.51181"
       id="rect1"
       width="640"
       height="400"
       x="0"
       y="0" /><text
       xml:space="preserve"
       style="font-style:normal;font-weight:normal;font-size:43.3601px;line-height:1.25;font-family:sans-serif;fill:#000000;fill-opacity:1;stroke:none;stroke-width:1.084"
       x="352.51151"
       y="355.53671"
       id="text2"><tspan
         sodipodi:role="line"
         id="tspan2"
         style="stroke-width:1.084"
         x="352.51151"
         y="355.53671" /></text><g
       id="g3"
       transform="matrix(0.79777961,0,0,0.79777961,127.07762,81.430393)"><g
         id="g2"><text
           xml:space="preserve"
           style="font-style:normal;font-weight:normal;font-size:70.9094px;line-height:1.25;font-family:sans-serif;fill:#9bece1;fill-opacity:1;stroke:none;stroke-width:1.77275"
           x="323.3851"
           y="356.51309"
           id="text3149-3-0"><tspan
             sodipodi:role="line"
             id="tspan3147-0-4"
             style="font-style:normal;font-variant:normal;font-weight:normal;font-stretch:normal;font-family:Manjari;-inkscape-font-specification:Manjari;fill:#9bece1;fill-opacity:1;stroke-width:1.77275"
             x="323.3851"
             y="356.51309">GE </tspan></text><text
           xml:space="preserve"
           style="font-style:normal;font-weight:normal;font-size:70.9094px;line-height:1.25;font-family:sans-serif;fill:#9bece1;fill-opacity:1;stroke:none;stroke-width:1.77275"
           x="501.70108"
           y="356.23615"
           id="text3149-3-0-9"><tspan
             sodipodi:role="line"
             id="tspan3147-0-4-7"
             style="font-style:normal;font-variant:normal;font-weight:normal;font-stretch:normal;font-family:Manjari;-inkscape-font-specification:Manjari;fill:#9bece1;fill-opacity:1;stroke-width:1.77275"
             x="501.70108"
             y="356.23615">VIZ</tspan></text><text
           xml:space="preserve"
           style="font-style:normal;font-weight:normal;font-size:29.9417px;line-height:1.25;font-family:sans-serif;fill:#9bece1;fill-opacity:1;stroke:none;stroke-width:0.748542"
           x="445.66852"
           y="342.48007"
           id="text13773"><tspan
             sodipodi:role="line"
             id="tspan13771"
             style="font-style:normal;font-variant:normal;font-weight:normal;font-stretch:normal;font-family:Manjari;-inkscape-font-specification:Manjari;fill:#9bece1;fill-opacity:1;stroke-width:0.748542"
             x="445.66852"
             y="342.48007">JS</tspan></text></g><circle
         style="display:inline;fill:none;fill-opacity:1;stroke:#9bece1;stroke-width:4.05837;stroke-dasharray:none;stroke-opacity:1;stop-color:#000000"
         id="path19588-6"
         cx="460.9472"
         cy="332.74384"
         r="34.976864" /></g><path
       style="fill:#9bece1;fill-opacity:0.858824;stroke-width:0.66871"
       d="m 142.28254,364.89586 c -5.98343,-3.12578 -6.88969,-5.26709 -9.25613,-21.87067 -1.10082,-7.7236 -2.16244,-14.96817 -2.35914,-16.09902 -0.31645,-1.81926 -0.94791,-2.31551 -5.48152,-4.3079 -2.81812,-1.23847 -8.3805,-4.42759 -12.36082,-7.08693 l -7.23694,-4.83517 -14.832071,6.03705 c -14.199346,5.7795 -15.01187,6.02558 -19.046483,5.76867 -7.180347,-0.45721 -8.328991,-1.66914 -18.892422,-19.93366 L 43.72831,286.85355 v -4.34662 c 0,-7.01815 0.990671,-8.27809 15.384483,-19.56574 l 12.585331,-9.86945 V 238.29337 223.515 L 59.115205,213.72236 C 44.715215,202.51555 43.72831,201.26579 43.72831,194.23721 v -4.34661 l 9.088704,-15.71469 c 10.548946,-18.23946 11.719982,-19.47796 18.843687,-19.92915 3.960043,-0.25082 4.908462,0.034 19.211664,5.76877 13.715975,5.49935 15.164195,5.94681 16.383405,5.06212 5.91891,-4.29498 12.28498,-8.17914 17.24823,-10.52375 4.0061,-1.89244 5.97554,-3.20432 6.1794,-4.11618 0.16456,-0.73614 1.20893,-7.95867 2.32081,-16.05006 2.38388,-17.34795 3.21757,-19.37321 9.27833,-22.53939 l 3.57677,-1.86851 17.47728,0.004 c 10.13185,0.003 18.53889,0.29854 20.00321,0.70518 2.96601,0.82367 6.77991,3.98196 8.34847,6.91334 0.64887,1.21264 2.0928,8.70694 3.47657,18.04419 l 2.36677,15.97015 8.08723,4.11504 c 4.44798,2.26329 9.97282,5.51625 12.27741,7.22883 l 4.19017,3.11375 3.10293,-1.22906 c 1.70662,-0.676 8.44784,-3.36686 14.98052,-5.97969 13.03574,-5.21382 16.06097,-5.71821 20.88918,-3.48282 1.47117,0.68113 3.47021,2.10389 4.44233,3.16169 2.88797,3.14255 18.48765,30.87615 18.96861,33.72306 0.27217,1.61091 0.0489,3.92553 -0.59076,6.12486 -1.26551,4.3511 -3.08247,6.16048 -17.52181,17.44863 l -10.75069,8.4045 0.6163,4.89016 c 0.52099,4.13392 0.29676,19.93986 -0.321,22.62761 -0.10598,0.46104 4.87624,4.82736 11.07157,9.70295 6.19531,4.87558 12.30111,9.8697 13.56844,11.09805 2.79724,2.71118 4.57281,8.09631 3.92795,11.9131 -0.48096,2.84691 -16.08064,30.58052 -18.96861,33.72305 -0.97212,1.05781 -2.97116,2.48057 -4.44233,3.1617 -5.03598,2.33159 -7.64698,1.81453 -24.15618,-4.78363 -15.00683,-5.99771 -15.15376,-6.04014 -16.55687,-4.78129 -2.88102,2.58482 -8.26613,5.91777 -15.4413,9.55689 l -7.37309,3.73952 -2.36677,15.98742 c -1.385,9.35565 -2.82713,16.84779 -3.47657,18.06147 -1.56856,2.93138 -5.38246,6.08968 -8.34847,6.91335 -1.46432,0.40664 -9.87136,0.70301 -20.00321,0.70519 l -17.47728,0.003 z m 34.91015,-78.43734 c 17.87211,-4.95261 31.8937,-19.97231 35.65795,-38.19617 3.52182,-17.05018 -1.94631,-33.94774 -14.94177,-46.17295 -10.94631,-10.29751 -25.7616,-15.18337 -40.07656,-13.21667 -17.42475,2.39395 -31.28867,12.50966 -38.9711,28.43498 -3.2163,6.66724 -4.56077,12.87682 -4.56077,21.06437 0,8.18753 1.34447,14.39711 4.56077,21.06437 7.38951,15.31808 21.408,25.86855 37.68566,28.36264 5.7553,0.88184 14.72855,0.29918 20.64582,-1.34057 z M 298.32643,165.78274 c -2.3638,-1.65566 -2.93488,-3.36698 -4.08518,-12.24154 l -1.0841,-8.36399 -3.67792,-1.9736 c -2.02284,-1.08548 -4.6309,-2.68185 -5.79565,-3.54748 l -2.11777,-1.57388 -7.88717,3.33522 c -8.65344,3.65922 -11.22732,4.02547 -13.84112,1.96947 -2.5099,-1.97429 -14.49315,-23.27395 -14.49315,-25.76089 0,-2.88738 1.31197,-4.39689 8.65396,-9.95703 l 6.55919,-4.96734 v -7.055324 -7.055328 l -5.92711,-4.413139 c -7.19247,-5.355252 -9.28604,-7.715525 -9.28604,-10.468954 0,-1.388768 2.133,-5.778315 6.51992,-13.41751 6.57303,-11.445983 8.63283,-13.830762 11.95103,-13.836619 0.78036,-0.0013 5.06537,1.533417 9.52223,3.410651 l 8.10339,3.413142 3.55142,-2.357292 c 1.95327,-1.296516 4.62525,-2.869377 5.93772,-3.495242 l 2.38629,-1.137951 0.80981,-7.106536 c 1.15764,-10.159207 1.7205,-11.946511 4.24744,-13.48728 1.93369,-1.179033 3.43233,-1.304655 15.59052,-1.306925 12.60807,-0.0025 13.56189,0.08462 15.21738,1.386794 2.61075,2.053602 2.92044,2.959928 4.09999,11.998456 1.13681,8.711257 1.30647,9.348396 2.48922,9.348396 0.40716,0 2.96007,1.383519 5.67313,3.074494 l 4.93283,3.074495 7.94251,-3.408845 c 4.36838,-1.874876 8.58336,-3.408847 9.3666,-3.408847 3.36997,0 5.01133,1.829678 11.2042,12.489747 3.39275,5.840075 6.51771,11.619718 6.94437,12.843639 1.23543,3.543987 -0.35593,5.870529 -8.12009,11.871357 l -6.80348,5.258337 -0.0223,6.863148 -0.0223,6.863166 7.05057,5.30827 c 7.35285,5.53586 9.209,8.14597 8.15482,11.46733 -0.8696,2.73988 -12.47681,22.33504 -14.11617,23.83076 -2.47079,2.25431 -5.27241,1.89266 -14.00407,-1.80771 l -7.81595,-3.3123 -2.74991,1.88337 c -1.51245,1.03586 -4.10404,2.56338 -5.7591,3.39451 -1.65507,0.83111 -3.06548,1.55549 -3.13427,1.60971 -0.0688,0.0543 -0.61194,3.82944 -1.20703,8.38937 -1.80431,13.82613 -1.15922,13.38091 -19.41629,13.40022 -11.64038,0.0129 -14.31629,-0.16375 -15.54234,-1.0225 z m 27.26315,-44.19534 c 22.04242,-10.44128 22.17517,-40.985964 0.22397,-51.529539 -14.30623,-6.871545 -30.92184,-0.80819 -37.9323,13.8422 -1.93794,4.049906 -2.07992,4.848758 -2.07992,11.702425 0,6.871294 0.13938,7.650024 2.11614,11.822534 3.57433,7.54461 9.16297,12.53921 17.26771,15.4322 2.53993,0.90662 4.89176,1.14723 9.70504,0.99286 5.45994,-0.1751 6.9636,-0.49309 10.69936,-2.26268 z"
       id="path2" /><path
       style="fill:#38896f;stroke:#ffffff;stroke-width:0.842415"
       d="m 416.15046,655.09041 -0.88183,3.30405 0.40935,7.65043 0.647,1.12835 1.76012,-6.34401 -1.7516,-4.99358 -0.17665,-0.67622 z"
       id="path5" /><path
       style="fill:#38896f;stroke:#ffffff;stroke-width:0.842415"
       d="m 423.55131,637.30277 -3.699,-0.096 -1.76437,3.4721 0.41998,0.49116 0.35188,0.6582 0.21,-0.24907 z"
       id="path4" /><path
       style="fill:#38896f;stroke:#ffffff;stroke-width:0.842415"
       d="m 394.77937,620.58947 0.23837,0.29409 1.84667,-1.33742 z"
       id="path3" /><path
       style="fill:#85ded1;stroke:#ffffff;stroke-width:0.577084;fill-opacity:1"
       d="m 454.37811,149.90624 0.77365,-1.12514 0.3697,-0.44027 0.44957,-0.36973 0.51215,-0.28588 0.55647,-0.19138 0.57899,-0.0899 0.58053,0.0153 0.56028,0.11934 0.51975,0.21946 1.50321,0.81815 0.45584,0.31026 0.38058,0.38927 0.29186,0.45366 0.19354,0.50116 0.34747,1.26812 2.27534,0.55523 7.76489,-4.47935 0.53658,-0.2388 0.57059,-0.13727 0.5836,-0.0307 0.57399,0.0766 0.54182,0.18083 2.17131,0.97518 1.27986,0.0265 0.55528,0.0632 0.52894,0.1623 0.4836,0.25399 0.42087,0.33847 0.34403,0.40926 0.25536,0.46554 0.1577,0.50546 0.055,0.52676 -0.0492,0.53099 -0.15135,0.51462 -0.49473,1.24441 2.58997,-0.0371 0.54097,0.0423 0.52072,0.13829 0.48265,0.22866 0.42859,0.31122 0.35958,0.38343 0.2787,0.44111 2.5076,4.96113 2.71895,0.99435 0.54964,0.27257 0.47635,0.38093 0.38195,0.47103 3.22794,5.01203 0.2384,0.45814 0.15048,0.49208 0.0576,0.50955 0.0761,3.141 -0.0844,0.76204 -0.78155,3.12697 0.55874,0.0479 2.13222,-1.39119 6.83804,-8.34596 0.59981,-1.42016 -0.16176,-0.14762 -0.32581,-0.43761 -0.2342,-0.48913 -0.38152,-1.04856 -0.1396,-0.56532 -0.0159,-0.58079 0.10908,-0.57026 0.22916,-0.53438 0.3399,-0.4743 0.43493,-0.3942 0.51093,-0.29579 8.46717,-3.64281 1.00169,-6.959 0.16219,-0.58639 0.29272,-0.53982 3.45185,-4.83539 0.34764,-0.39354 0.41796,-0.32741 0.47354,-0.24965 12.61606,-4.98269 2.21315,-4.45181 -0.52962,-5.76826 0.0622,-0.80488 1.42753,-5.67414 0.19488,-0.51525 0.30112,-0.47623 0.39529,-0.41856 0.47456,-0.34411 0.53498,-0.2565 0.57477,-0.15877 0.59207,-0.056 7.23014,0.0369 0.59196,0.0637 0.56098,0.16976 0.50736,0.26833 0.43493,0.35727 0.34463,0.43105 0.24127,0.48716 2.3211,6.24958 0.32353,0.058 0.58427,0.16664 0.53093,0.27539 0.45505,0.373 2.10402,2.14196 0.36217,0.46028 0.24959,0.52212 0.12594,0.55959 -0.004,0.57262 -0.13042,0.55943 -1.72312,5.03682 -0.2341,0.51351 -0.33988,0.45813 -0.43227,0.38216 -0.50585,0.29007 -4.41726,2.02235 -2.36354,7.8331 0.22304,2.28285 1.13774,1.95609 2.93418,1.04715 0.48819,0.22946 0.43716,0.31453 0.36885,0.38719 0.28873,0.44678 0.19717,0.48874 0.1,0.51232 0.11156,1.16165 -8.9e-4,0.52923 -0.10671,0.51427 -0.20732,0.48039 -0.30017,0.42737 -0.38207,0.35836 -0.44872,0.27611 -5.48601,2.72596 0.74878,0.56294 0.40219,0.36698 0.32568,0.43323 0.23765,0.4834 0.14029,0.51439 0.0382,0.52662 -0.0649,0.51868 -0.16553,0.49144 -0.25962,0.44476 -0.34358,0.38244 -6.57079,6.15364 0.11531,0.1516 0.28233,0.44926 0.19483,0.48891 0.10131,0.5118 0.004,0.51551 -0.0927,0.50075 -1.7677,6.4027 -0.17941,0.47845 -0.17313,0.27474 0.14108,0.28857 1.81688,4.6894 0.14844,0.51269 0.0511,0.52382 -0.0469,0.51542 -0.1432,0.4872 -1.34646,3.36935 -0.23682,0.45653 -0.278,0.33507 0.18753,0.27649 0.21371,0.46695 0.13021,0.49109 1.61569,8.83442 0.0514,0.51346 -0.041,0.50359 -0.13251,0.47576 -0.21902,0.42981 -0.29722,0.36895 -0.36505,0.29448 -0.24741,0.12424 0.58258,1.31175 0.16923,0.4841 0.0853,0.49887 -8.9e-4,0.495 -0.0885,0.47494 -0.17202,0.43957 -0.24972,0.38805 -0.31864,0.32432 -0.37685,0.24907 -1.71387,0.89467 -1.70187,5.33201 -0.20974,0.48352 -0.30446,0.41361 -0.38712,0.32505 -1.97426,1.30375 -0.30629,3.13002 -0.10008,0.51536 -0.19732,0.46845 -3.16535,5.86334 -1.86753,6.4868 0.54924,3.14783 8.58549,12.97153 6.49418,8.15892 0.32901,0.49586 0.23983,0.54427 0.14103,0.56625 1.70998,10.45593 0.0453,0.49231 -0.0359,0.4737 -0.11428,0.43934 -0.18966,0.38981 -0.2576,0.3272 -0.31829,0.25367 -2.28284,1.42879 -0.37631,0.17762 -0.4149,0.0845 -0.43907,-0.012 -0.447,-0.10796 -0.43951,-0.20051 -0.41504,-0.28562 -4.53533,-3.67711 -0.33724,-0.31344 -0.2967,-0.36364 -3.44755,-4.85084 -5.39685,-4.57117 -0.38286,-0.38031 -0.3228,-0.44466 -0.25027,-0.49173 -0.16701,-0.52023 -1.12344,-4.85874 -5.90832,-3.41874 -1.72337,2.27862 -0.30734,0.32655 -0.36802,0.24494 -0.41459,0.15407 -0.44774,0.0561 -0.46328,-0.0421 -7.24447,-1.36238 -9.56015,3.53087 -1.159,1.84323 -0.009,1.12093 1.59424,1.99283 0.32079,0.47994 0.23798,0.52734 0.14552,0.55352 0.0473,0.55688 -0.0532,0.53694 -0.15008,0.49502 -0.24184,0.43275 -0.32333,0.35258 -0.39127,0.25765 -3.23804,1.61694 -0.39374,0.14602 -0.42314,0.0577 -5.14109,0.17895 -0.49937,-0.0386 -0.4996,-0.15378 -0.47816,-0.26419 -1.29216,-0.88275 -0.1235,0.27245 -0.23687,0.40514 -0.30854,0.33291 -0.3686,0.2489 -0.41599,0.15581 -0.44864,0.0564 -3.8191,0.0718 -5.316,4.37772 -1.42118,4.25103 -0.18242,0.41937 -0.253,0.36068 -0.31387,0.28942 -2.45738,1.82674 -0.83939,9.03466 3.36396,4.5467 0.30102,0.48389 0.22266,0.52665 0.13598,0.54912 0.0438,0.5494 -0.0494,0.52744 -0.14051,0.48471 -0.22677,0.42327 -0.30337,0.34486 -0.36805,0.25303 -0.41892,0.15092 -4.85889,1.12556 -0.48136,0.0499 -0.49993,-0.075 -5.17851,-1.37636 -0.45604,-0.16915 -0.4358,-0.26511 -0.39922,-0.35121 -2.38642,-2.46851 -0.37096,-0.4547 -0.29509,-0.51852 -0.97028,-2.08905 -4.18378,-2.55089 -0.54699,-0.42492 -5.51501,-5.32915 -0.59566,-0.22984 -2.943,0.0553 -1.06292,5.11538 -0.15294,0.4998 -0.24172,0.43712 -0.32046,0.35732 -0.38725,0.26262 -0.43837,0.15722 -0.47113,0.0468 -0.48551,-0.0674 -7.47011,-1.81441 -0.41229,-0.13683 -0.39771,-0.2137 -0.37055,-0.28369 -0.33336,-0.34655 -3.96188,-4.7433 -7.5475,-3.43951 -4.24006,1.61237 0.0233,0.0615 0.15899,0.54536 0.0663,0.55618 -0.0294,0.54462 -0.12303,0.51247 -0.21219,0.46099 -0.29295,0.39079 -0.36196,0.30653 -0.41804,0.20988 -12.12985,4.64582 -0.51936,0.13233 -0.54877,-0.0101 -18.1523,-2.19306 -9.25895,4.76688 -0.40282,0.16158 -0.43123,0.0732 -0.4452,-0.0183 -0.44615,-0.10975 -0.43163,-0.19767 -0.40294,-0.27854 -6.40493,-5.19045 -5.40846,-1.08409 -5.02089,0.82745 -0.49752,0.0283 -0.50365,-0.0847 -0.48995,-0.19352 -0.45678,-0.2952 -0.40543,-0.3848 -0.33835,-0.46068 -1.90644,-3.12105 -3.25457,-1.71088 -0.59619,-0.41474 -8.3398,-7.33013 -0.49477,-0.54059 -2.53252,-3.49851 -6.30497,-3.87525 -0.44774,-0.33249 -0.38433,-0.41647 -0.30557,-0.48508 -2.36919,-4.62967 -3.21695,-2.32042 -0.46223,-0.40914 -0.37337,-0.50005 -0.26684,-0.56836 -0.14678,-0.60956 -0.76856,-5.80015 -4.96949,-7.03688 -0.25742,-0.43316 -0.18194,-0.47112 -0.0996,-0.49407 -0.72889,-6.58383 -5.4352,-16.70983 -6.54263,-6.63578 -0.37692,-0.46342 -0.26695,-0.53085 -0.14617,-0.57676 -0.0178,-0.5977 0.11133,-0.59394 0.23657,-0.56514 0.3519,-0.512 0.45295,-0.43788 0.53389,-0.34427 0.59192,-0.23579 6.53341,-1.83758 -1.5104,-1.63809 -0.33295,-0.43997 -0.23626,-0.49569 -0.13047,-0.5336 -0.0196,-0.55287 0.0921,-0.55199 0.20107,-0.5316 0.30344,-0.49181 0.39463,-0.43373 0.47135,-0.36052 0.53081,-0.27404 14.56116,-5.62531 20.68047,-7.9835 16.90073,-6.52273 14.0649,-5.42644 20.67832,-7.97424 18.79041,-7.2428 12.24759,-4.71864 0.68528,-0.1735 0.69843,-0.0287 6.39951,0.47074 3.96198,-1.63639 0.57044,-0.17543 0.58885,-0.0724 0.5854,0.0333 5.56602,0.8756 7.23075,-2.52482 0.6057,-0.1435 0.6167,-0.0273 0.60273,0.089 0.56418,0.2023 0.50177,0.30649 0.42003,0.39828 0.32222,0.47425 0.21063,0.52982 z"
       id="path1" /></g></svg>
