<?xml version="1.0" encoding="UTF-8" standalone="no"?>
<!-- Created with Inkscape (http://www.inkscape.org/) -->

<svg
   version="1.1"
   id="svg1"
   width="387.2327"
   height="92.006432"
   viewBox="0 0 387.2327 92.006432"
   sodipodi:docname="zoomable.svg"
   inkscape:version="1.3.1 (9b9bdc1480, 2023-11-25, custom)"
   xml:space="preserve"
   xmlns:inkscape="http://www.inkscape.org/namespaces/inkscape"
   xmlns:sodipodi="http://sodipodi.sourceforge.net/DTD/sodipodi-0.dtd"
   xmlns="http://www.w3.org/2000/svg"
   xmlns:svg="http://www.w3.org/2000/svg"><defs
     id="defs1"><defs
       id="defs2" /></defs><sodipodi:namedview
     id="namedview1"
     pagecolor="#ffffff"
     bordercolor="#999999"
     borderopacity="1"
     inkscape:showpageshadow="0"
     inkscape:pageopacity="0"
     inkscape:pagecheckerboard="0"
     inkscape:deskcolor="#d1d1d1"
     showgrid="false"
     inkscape:zoom="1.2476853"
     inkscape:cx="220.40814"
     inkscape:cy="80.148416"
     inkscape:window-width="1864"
     inkscape:window-height="1016"
     inkscape:window-x="994"
     inkscape:window-y="1107"
     inkscape:window-maximized="1"
     inkscape:current-layer="g1"
     showguides="true" /><g
     inkscape:groupmode="layer"
     inkscape:label="Image"
     id="g1"
     transform="translate(549.32678,-295.79633)"><text
       xml:space="preserve"
       style="font-style:normal;font-weight:normal;font-size:43.3601px;line-height:1.25;font-family:sans-serif;fill:#000000;fill-opacity:1;stroke:none;stroke-width:1.084"
       x="352.51151"
       y="355.53671"
       id="text2"><tspan
         sodipodi:role="line"
         id="tspan2"
         style="stroke-width:1.084"
         x="352.51151"
         y="355.53671" /></text><rect
       style="fill:#02886f;fill-opacity:1;stroke-width:0.56399"
       id="rect1-9-3"
       width="387.2327"
       height="92.006432"
       x="-549.32678"
       y="295.79633" /><text
       xml:space="preserve"
       style="font-style:normal;font-weight:normal;font-size:56.5701px;line-height:1.25;font-family:sans-serif;fill:#9bece1;fill-opacity:1;stroke:none;stroke-width:1.41426"
       x="-431.41699"
       y="360.6102"
       id="text3149-3-0-9-2-0"><tspan
         sodipodi:role="line"
         id="tspan3147-0-4-7-9-4"
         style="font-style:normal;font-variant:normal;font-weight:normal;font-stretch:normal;font-family:Manjari;-inkscape-font-specification:Manjari;fill:#9bece1;fill-opacity:1;stroke-width:1.41426"
         x="-431.41699"
         y="360.6102">Zoomable</tspan></text><path
       style="opacity:0.6;fill:#ffffff;fill-opacity:1;stroke-width:0.371587"
       d="m -477.12805,363.90162 -10.3799,-10.3594 -3.10157,1.55704 c -4.36046,2.18903 -6.73989,2.7452 -11.73515,2.74299 -3.35978,-0.002 -4.63203,-0.15345 -6.72202,-0.80292 -8.45733,-2.62813 -14.28881,-8.21986 -17.15458,-16.44928 -0.88066,-2.52891 -0.96228,-3.18655 -0.96438,-7.77022 -0.002,-4.52661 0.087,-5.27277 0.92784,-7.77022 1.36627,-4.05815 3.15925,-6.88417 6.46792,-10.19446 2.30989,-2.31102 3.57056,-3.257 5.87622,-4.40936 4.41943,-2.2088 7.85707,-2.95236 12.75369,-2.7586 6.87292,0.27196 12.16713,2.63147 17.03595,7.59252 2.19878,2.24043 2.98661,3.36312 4.38612,6.25043 3.79895,7.83755 3.66983,15.77169 -0.38001,23.35091 l -1.37018,2.56427 10.37864,10.39918 c 10.35771,10.3782 10.37865,10.40215 10.37865,11.87096 0,1.8627 -0.76222,3.3502 -2.06075,4.02171 -0.55717,0.28812 -1.67534,0.52386 -2.48482,0.52386 -1.46874,0 -1.49314,-0.0213 -11.85167,-10.35941 z m -20.72716,-10.88072 c 3.89404,-0.81756 7.1846,-2.64908 10.18341,-5.66807 2.99605,-3.01619 4.55154,-5.7009 5.53819,-9.55867 1.24501,-4.86797 0.60062,-10.15785 -1.79706,-14.75236 -1.55488,-2.9795 -5.99122,-7.33835 -8.91706,-8.7613 -9.5232,-4.63152 -20.58812,-1.77585 -26.43664,6.82285 -2.44021,3.58768 -3.2955,6.19107 -3.50883,10.68045 -0.30134,6.34151 1.5463,11.06995 6.07698,15.55207 5.25466,5.19835 11.79273,7.16904 18.86101,5.68503 z"
       id="path5" /></g></svg>
